<svg width="34" height="17" viewBox="0 0 34 17" fill="none" xmlns="http://www.w3.org/2000/svg">
<path d="M1.74495 11.7694C0.795338 10.4971 0.116515 8.82414 0.654383 7.33295C0.858401 6.77283 1.21821 6.27947 1.61512 5.83434C3.16566 4.08349 5.3431 2.90018 7.65779 2.55149C7.94341 2.50698 8.24017 2.47731 8.50724 2.36231C8.71868 2.27329 8.90786 2.13233 9.10075 2.0025C11.7827 0.173749 15.277 -0.0154321 18.4893 0.444537C24.1165 1.24948 29.6732 4.07607 32.6816 8.90204C32.9969 9.41023 33.2937 9.97406 33.2491 10.5713C33.1898 11.3132 32.5963 11.9289 31.9137 12.2294C31.2312 12.5299 30.4708 12.5781 29.7252 12.6226C24.4838 12.9342 19.2201 13.3051 14.0974 14.4699C13.4667 14.6146 12.8324 14.7666 12.2352 15.0115C11.6157 15.2637 12.443 16.2949 11.7938 16.3394C10.2841 16.447 8.2958 15.9574 7.40183 15.6903C5.16505 15.0189 3.14341 13.639 1.74495 11.7694Z" fill="#D69F69"/>
<path d="M1.08099 10.5193C1.29243 10.9608 1.5558 11.3836 1.84143 11.7694C3.23617 13.639 5.26152 15.0189 7.49459 15.6903C8.39228 15.9611 10.3768 16.447 11.8866 16.3394C12.5357 16.2949 11.7085 15.2637 12.328 15.0115C12.3317 15.0115 12.3354 15.0078 12.3391 15.0078C11.2263 14.6665 10.0689 14.4736 8.90789 14.4476C8.22906 14.4291 7.55024 14.4699 6.87512 14.3883C5.54715 14.2288 4.30449 13.613 3.26214 12.7821C2.7762 12.3963 2.32736 11.9586 1.9119 11.4986C1.81917 11.3948 1.45194 10.8866 1.08099 10.5193Z" fill="#C49162"/>
<path d="M33.4754 9.93697C32.2216 5.05165 23.9755 1.20126 18.5709 0.4297C15.3548 -0.030269 11.8643 0.155202 9.18234 1.98766C8.98945 2.11749 8.80398 2.25845 8.58883 2.34748C8.32175 2.46247 8.02871 2.49214 7.73937 2.53666C5.42469 2.88534 3.15081 3.8906 1.60027 5.64145C1.20336 6.09029 0.817577 6.59106 0.617268 7.1549C0.480019 7.52955 0.446634 8.03774 0.450344 8.42352C0.639525 8.87978 1.10321 9.30636 1.55576 9.50296C2.22345 9.78859 3.01356 9.68102 3.67383 9.98519C4.71248 10.4637 5.11681 11.8102 6.13319 12.337C6.90475 12.7376 7.86178 12.567 8.63705 12.1738C9.41233 11.7843 10.0689 11.1982 10.7997 10.7234C11.957 9.97035 13.285 9.51409 14.6204 9.1617C18.7119 8.07854 23.0445 7.90791 27.2065 8.66463C28.6902 8.93542 30.263 9.31379 31.6726 8.76479C31.9323 8.66464 33.2788 10.1336 33.4754 9.93697Z" fill="#AD6F40"/>
<path d="M22.0096 3.75336C20.459 3.33049 18.8046 3.26743 17.3245 2.63311C16.5827 2.3141 15.9075 1.85784 15.2028 1.46835C14.7613 1.22724 14.2976 1.00467 13.8006 0.945324C13.4037 0.897101 13.0031 0.956451 12.6024 0.967579C12.1573 0.982417 11.7122 0.937904 11.2671 0.919357C10.5289 1.18644 9.82408 1.53512 9.1638 1.98396C8.97091 2.11379 8.78544 2.25475 8.57029 2.34378C8.39595 2.41797 8.21048 2.45877 8.0213 2.48845C8.13629 2.81488 8.50724 3.00035 8.83738 3.12276C10.1208 3.60499 11.4377 4.00931 12.6729 4.61024C13.9045 5.21117 15.0692 6.02724 15.8445 7.16233C16.03 7.43312 16.208 7.73358 16.5048 7.87454C16.7756 8.00066 17.0946 7.96356 17.3691 7.84857C17.6436 7.73358 17.881 7.55182 18.1221 7.37748C19.1793 6.62075 20.3552 6.03837 21.5978 5.6563C21.9242 5.55615 22.2655 5.46341 22.54 5.25197C22.8108 5.04053 22.9963 4.6733 22.8813 4.35058C22.7552 4.0056 22.362 3.84981 22.0096 3.75336Z" fill="#99613A"/>
<path d="M9.55699 15.9314C8.88559 15.668 8.2216 15.3008 7.81727 14.7036C7.53907 14.2881 7.40552 13.7911 7.3573 13.294C7.16441 11.2501 8.42562 9.23219 10.2136 8.22693C12.0015 7.22168 14.2123 7.14378 16.1857 7.69648C19.2163 5.24455 23.3598 4.23187 27.1768 5.01085C28.0893 5.19633 28.987 5.48195 29.7845 5.95676C31.1793 6.78767 32.1734 8.13419 33.1304 9.44733C33.4012 9.81827 33.6757 10.2003 33.7981 10.6381C34.0281 11.4616 33.6794 12.3667 33.0785 12.975C32.4776 13.5834 31.6652 13.932 30.8454 14.1731C29.2281 14.648 27.5255 14.7407 25.8451 14.8594C23.0148 15.0597 20.1882 15.3305 17.3691 15.6792C14.88 15.9833 11.9904 16.881 9.55699 15.9314Z" fill="#D19990"/>
<path d="M33.2083 9.64764C33.1601 9.58087 33.1119 9.51039 33.06 9.44362C32.1029 8.13048 31.1088 6.78396 29.714 5.95305C28.9165 5.47824 28.0151 5.19261 27.1063 5.00714C24.8324 4.54346 22.4436 4.71781 20.2439 5.44856C20.1919 5.57098 20.1474 5.71935 20.1103 5.88999C19.732 7.73728 18.1666 8.63125 17.3802 10.256C17.28 10.4637 17.1984 10.6974 17.2652 10.92C17.3765 11.2983 17.8476 11.4319 18.2408 11.4022C18.9678 11.3466 19.6207 10.9534 20.3255 10.7568C21.7239 10.3673 23.1966 10.7827 24.6395 10.9385C26.0454 11.0906 27.481 10.9867 28.8497 10.6381C30.0368 10.3339 31.1978 9.84424 32.4219 9.80714C32.689 9.79231 32.9932 9.7923 33.2083 9.64764Z" fill="#E2A59F"/>
<path d="M19.1273 6.57252C19.2868 6.32028 19.45 6.01982 19.4834 5.73419C18.2778 6.22013 17.1465 6.8767 16.1338 7.69277C14.1567 7.14007 11.9496 7.21797 10.1616 8.22322C9.26021 8.73141 8.49236 9.49555 7.97675 10.3895C8.83733 10.3265 9.6497 10.6084 10.3693 11.2687C10.9517 11.8028 11.3635 12.5299 12.0349 12.9453C12.6692 13.3385 13.4667 13.4016 14.2049 13.2718C14.9431 13.1419 15.633 12.8378 16.3193 12.5373C16.6234 12.4037 16.9721 12.1997 16.9721 11.8696C16.9721 11.5914 16.7125 11.3911 16.6197 11.1314C16.4825 10.7493 16.7087 10.3413 16.9276 10.0037C17.6584 8.86124 18.3928 7.71503 19.1273 6.57252Z" fill="#E2A59F"/>
<path d="M27.2992 14.7258C26.8689 14.2733 26.5054 13.754 26.0121 13.3756C25.2553 12.7895 24.2798 12.5892 23.3413 12.4037C22.3063 12.1997 21.2714 11.9957 20.2365 11.788C19.6244 11.6656 18.7787 11.6841 18.6303 12.2888C18.5339 12.6745 18.8232 13.0529 18.838 13.4535C18.8677 14.2844 17.7697 14.7592 17.6547 15.5827C17.6547 15.5976 17.651 15.6087 17.651 15.6235C20.3774 15.2897 23.1113 15.03 25.8488 14.8371C26.3348 14.7963 26.817 14.7629 27.2992 14.7258Z" fill="#E2A59F"/>
<path d="M17.4877 14.2139C17.7474 13.8022 18.1146 13.4238 18.1703 12.9379C18.2259 12.4557 17.6806 11.9104 17.2874 12.196C17.3431 12.5373 17.1353 12.8823 16.8534 13.0826C16.5715 13.2866 16.2265 13.3756 15.8927 13.4609C14.9319 13.7095 13.9527 13.958 12.9585 13.9246C11.9644 13.8912 10.9369 13.5277 10.3174 12.7524C10.0095 12.3629 9.80922 11.8881 9.4457 11.5506C8.95234 11.0943 8.35884 10.9051 7.75049 10.9125C7.42777 11.6507 7.27568 12.4557 7.35358 13.2643C7.40181 13.7614 7.53534 14.2585 7.81355 14.6739C8.21788 15.2711 8.88186 15.6421 9.55327 15.9017C11.8791 16.8105 14.6204 16.0353 17.0352 15.694C17.0575 15.1747 17.2132 14.6554 17.4877 14.2139Z" fill="#E2A59F"/>
<path d="M33.8055 10.6084C33.7795 10.5156 33.7462 10.4303 33.7091 10.3413C33.3233 10.3895 32.9375 10.486 32.5628 10.5824C29.6954 11.3243 26.7131 11.9623 23.7863 11.5172C22.6512 11.3428 21.4531 11.0164 20.3885 11.4504C21.0859 11.9475 22.0169 11.903 22.8738 11.9104C24.0794 11.9215 25.3517 12.107 26.2976 12.8526C26.9876 13.3979 27.4661 14.2065 28.2339 14.6331C29.1205 14.5367 29.9996 14.392 30.8565 14.1397C31.6763 13.8986 32.4886 13.5499 33.0896 12.9416C33.6905 12.3333 34.0355 11.4319 33.8055 10.6084Z" fill="#E2A59F"/>
<path d="M32.8893 9.10976C32.0065 7.90791 31.0643 6.71347 29.7882 5.95304C28.9907 5.47823 28.0893 5.1926 27.1805 5.00713C23.3635 4.23186 19.2164 5.24454 16.1895 7.69276C14.2123 7.14006 12.0052 7.21795 10.2173 8.22321C8.42933 9.22846 7.16441 11.2501 7.36101 13.2903C7.40923 13.7874 7.54277 14.2844 7.82098 14.6999C7.92484 14.8557 8.04725 14.9929 8.1845 15.119C8.05096 14.392 7.88033 13.7428 8.05839 12.9305C8.2587 12.0328 8.72979 11.1908 9.43088 10.5898C10.7292 9.4807 12.7063 8.71656 14.4126 8.7685C15.0692 8.78704 15.9558 9.03187 16.6049 8.93171C17.6621 8.7685 18.2296 8.54222 19.1793 8.04516C21.8649 6.63557 24.9734 5.66741 27.9224 6.3722C29.7697 6.81733 31.413 7.89307 32.8893 9.10976Z" fill="#FFD5C5"/>
<path d="M27.3808 6.57995C27.2473 6.80993 27.1657 7.08443 26.9617 7.25135C26.6723 7.48876 26.2494 7.4257 25.8785 7.4665C25.4111 7.51472 24.966 7.75584 24.6618 8.11565C24.8658 7.84486 25.2219 7.73729 25.5595 7.70019C25.897 7.66681 26.2457 7.68907 26.5722 7.60004C26.8986 7.51472 27.1991 7.31812 27.4068 7.05104C27.5403 6.88412 27.6405 6.68381 27.8222 6.56511C28.1338 6.36109 28.5456 6.47237 28.9128 6.40189C29.2392 6.33883 29.2504 6.16078 29.0056 6.03466C28.8683 5.96418 28.5567 5.90483 28.3972 5.90483C27.9855 5.91225 27.5848 6.23497 27.3808 6.57995Z" fill="#FFD5C5"/>
<path d="M11.586 11.0127C11.753 11.302 11.8049 11.6433 11.9459 11.9475C12.0868 12.2517 12.3687 12.5373 12.7026 12.5076C12.4281 12.4631 12.2352 12.2034 12.1462 11.9364C12.0571 11.673 12.0423 11.3874 11.9607 11.1203C11.8235 10.6826 11.4859 10.3116 11.063 10.1299C10.9814 10.0965 10.8961 10.0668 10.8256 10.0075C10.7292 9.92585 10.6884 9.79601 10.6772 9.66989C10.6401 9.25815 10.9146 8.86124 11.2819 8.67577C11.6491 8.4903 12.0905 8.49771 12.4874 8.609C12.6766 8.66464 12.8769 8.76108 12.9474 8.94655C12.9919 9.06155 12.9734 9.19138 12.9511 9.31379C12.8992 9.57345 12.8139 9.82569 12.6989 10.0631C12.6136 10.2374 12.5097 10.4303 12.5616 10.6158C12.595 10.7308 12.6803 10.8198 12.7248 10.9311C12.7694 11.0535 12.7582 11.1908 12.7768 11.3206C12.7953 11.4504 12.8658 11.5914 12.9919 11.6211C12.9252 11.354 12.8584 11.0869 12.7916 10.8198C12.7508 10.6492 12.7063 10.4674 12.7656 10.3042C12.8473 10.0705 13.1069 9.93326 13.1811 9.69957C13.2442 9.49184 13.144 9.25444 13.2256 9.05413C13.2701 8.94656 13.3592 8.86124 13.3888 8.74625C13.4482 8.50885 13.2071 8.30482 12.9771 8.21951C12.4763 8.03775 11.9125 8.11564 11.4191 8.31595C10.948 8.50884 9.47168 9.18767 9.79069 9.85536C10.1134 10.5379 11.178 10.2968 11.586 11.0127Z" fill="#FFD5C5"/>
<path d="M8.91899 14.3957C9.2343 14.3809 9.53105 14.2436 9.83522 14.1546C11.2893 13.7391 12.0015 14.8037 14.3422 14.0507C13.8117 14.2399 13.259 14.3549 12.6989 14.3957C11.8012 14.4588 10.9184 14.1138 10.0541 14.3549C9.71652 14.4476 9.3567 14.8112 9.00802 14.8408C8.58143 14.8742 8.14002 14.7147 7.83584 14.418C7.58731 14.1768 7.55021 13.8319 7.936 13.9951C8.29952 14.1398 8.45903 14.418 8.91899 14.3957Z" fill="#FFD5C5"/>
<path d="M6.83425 2.67761C5.31338 2.80744 3.77767 3.19322 2.54243 4.0872C1.91924 4.53604 1.38509 5.12584 1.01414 5.80095C0.828673 6.13851 0.665458 6.50945 0.58756 6.88781C0.52079 7.21054 0.550466 7.62599 0.865767 7.24763C1.92666 5.97159 2.98014 4.82537 4.38973 3.91656C5.15387 3.4195 5.97737 3.00404 6.83425 2.67761Z" fill="#99613A"/>
<path d="M4.78299 7.4368C5.1799 7.06586 5.59164 6.70605 6.0108 6.35736C6.43368 6.00867 6.86768 5.67482 7.3091 5.35581C7.75053 5.0368 8.20308 4.73263 8.66305 4.44329C9.12302 4.15396 9.59411 3.87946 10.0726 3.6198C10.5549 3.36014 11.0445 3.11161 11.5416 2.88533C11.6046 2.85566 11.664 2.82969 11.727 2.80002C11.7604 2.78518 11.7678 2.73696 11.753 2.70728C11.7345 2.67389 11.6937 2.66648 11.6603 2.68131C11.1632 2.90759 10.6699 3.1487 10.1876 3.40465C9.7054 3.6606 9.2306 3.9351 8.76321 4.22073C8.29582 4.51006 7.83956 4.81053 7.39442 5.12954C6.94558 5.44855 6.50787 5.7824 6.07758 6.12737C5.65099 6.47235 5.23924 6.82846 4.83492 7.20311C4.78669 7.24762 4.73476 7.29585 4.68654 7.34036C4.61977 7.39971 4.71622 7.49986 4.78299 7.4368Z" fill="#99613A"/>
<path d="M6.83056 7.21795C7.45004 6.43897 8.20305 5.7824 9.02284 5.22599C9.85004 4.66215 10.7366 4.19106 11.6343 3.75334C12.1388 3.50852 12.6507 3.27483 13.1626 3.04484C13.1959 3.03 13.2034 2.98178 13.1885 2.95211C13.17 2.91872 13.1292 2.9113 13.0958 2.92614C12.1758 3.3416 11.2596 3.76076 10.3731 4.24299C9.49764 4.72151 8.65189 5.26308 7.89516 5.91594C7.47229 6.28317 7.0828 6.68379 6.73411 7.12151C6.71185 7.15118 6.70444 7.18827 6.73411 7.21795C6.75637 7.24021 6.8083 7.24763 6.83056 7.21795Z" fill="#99613A"/>
<path d="M10.1913 6.59478C10.6809 6.10143 11.2114 5.64517 11.7715 5.23342C12.3316 4.82167 12.9251 4.45073 13.5409 4.13172C13.8859 3.94996 14.242 3.78303 14.6018 3.63466C14.6352 3.61982 14.6612 3.59014 14.65 3.54934C14.6426 3.51595 14.5981 3.48628 14.5647 3.50112C13.9119 3.7719 13.285 4.09092 12.6803 4.45815C12.0794 4.82538 11.5044 5.23713 10.9666 5.69339C10.6624 5.94934 10.3693 6.22013 10.0911 6.49834C10.0318 6.5614 10.1282 6.65784 10.1913 6.59478Z" fill="#99613A"/>
<path d="M12.3873 6.57623C12.9808 5.98643 13.6522 5.48566 14.3867 5.08504C14.5944 4.97376 14.8058 4.86619 15.021 4.77345C15.0544 4.75861 15.0618 4.71039 15.047 4.68071C15.0284 4.64733 14.9876 4.63991 14.9542 4.65475C14.1827 4.99972 13.4667 5.45228 12.8213 5.99756C12.6395 6.14965 12.4652 6.31286 12.2946 6.47979C12.2278 6.53914 12.3242 6.63558 12.3873 6.57623Z" fill="#99613A"/>
<path d="M3.71465 6.67267C4.44541 6.70976 5.17617 6.76911 5.90322 6.85072C6.63026 6.93233 7.35361 7.0399 8.07695 7.16602C8.48127 7.2365 8.8856 7.31811 9.28621 7.40342C9.37153 7.42197 9.40863 7.28843 9.32331 7.26989C8.59997 7.11409 7.87663 6.98426 7.14588 6.87298C6.41883 6.7654 5.68807 6.68009 4.95731 6.61703C4.54556 6.57993 4.13011 6.55396 3.71837 6.53171C3.62934 6.53171 3.62934 6.66896 3.71465 6.67267Z" fill="#99613A"/>
<path d="M5.01291 5.50421C5.94026 5.53388 6.86762 5.60065 7.79127 5.7008C8.71491 5.80096 9.63115 5.93821 10.5437 6.11255C11.0593 6.209 11.5712 6.31657 12.0831 6.43527C12.1684 6.45382 12.2055 6.32399 12.1202 6.30173C11.2114 6.0903 10.2914 5.91224 9.36777 5.77128C8.44412 5.63032 7.51677 5.52275 6.5857 5.45227C6.06267 5.41147 5.53965 5.3855 5.01662 5.36696C4.92388 5.36325 4.92388 5.5005 5.01291 5.50421Z" fill="#99613A"/>
<path d="M7.84323 3.99447C8.50722 4.09091 9.1712 4.19478 9.83148 4.31348C10.4881 4.42847 11.1446 4.5583 11.8012 4.69555C12.1721 4.77345 12.5431 4.85506 12.914 4.94037C12.9993 4.95892 13.0364 4.82909 12.9511 4.80683C12.2983 4.65475 11.6417 4.51379 10.9814 4.38767C10.3248 4.25784 9.66827 4.13914 9.00799 4.03156C8.63334 3.97221 8.25869 3.91286 7.88033 3.86093C7.84323 3.85722 7.80614 3.86835 7.79501 3.90915C7.78759 3.94254 7.80614 3.99076 7.84323 3.99447Z" fill="#99613A"/>
<path d="M15.4661 3.00403C15.57 2.7926 15.7814 2.66277 15.9706 2.53294C16.1746 2.39569 16.3824 2.26586 16.5975 2.14345C17.0315 1.89862 17.4841 1.68719 17.9477 1.51655C18.2111 1.42011 18.4745 1.33479 18.7453 1.26431C18.8306 1.24205 18.7935 1.10852 18.7082 1.13077C17.7252 1.39414 16.7867 1.82073 15.9409 2.38827C15.7221 2.53665 15.4661 2.68873 15.3474 2.93355C15.3103 3.01516 15.429 3.08564 15.4661 3.00403Z" fill="#99613A"/>
<path d="M16.7347 3.48997C17.1428 3.12273 17.5805 2.78889 18.0404 2.49584C18.5004 2.2028 18.9863 1.94685 19.4871 1.73541C19.7727 1.613 20.0621 1.50913 20.3588 1.4164C20.4441 1.39043 20.407 1.25689 20.3217 1.28286C19.7913 1.44978 19.272 1.66122 18.7786 1.91717C18.2816 2.16941 17.8104 2.46617 17.3616 2.79631C17.1094 2.98178 16.8683 3.18209 16.6346 3.39352C16.5715 3.45287 16.6717 3.54932 16.7347 3.48997Z" fill="#99613A"/>
<path d="M18.8194 3.58642C19.6096 2.96695 20.4924 2.46617 21.4309 2.10636C21.6943 2.0062 21.9613 1.91718 22.2284 1.83928C22.3137 1.81331 22.2766 1.68348 22.1913 1.70574C21.212 1.99137 20.2735 2.42537 19.4204 2.98549C19.1793 3.145 18.9493 3.31192 18.723 3.48997C18.6933 3.51223 18.7007 3.56416 18.723 3.58642C18.7527 3.6161 18.7935 3.60868 18.8194 3.58642Z" fill="#99613A"/>
<path d="M20.7483 4.01672C21.5088 3.61239 22.3026 3.27854 23.1224 3.01888C23.3524 2.94469 23.5823 2.87792 23.816 2.81857C23.9014 2.79632 23.8643 2.66278 23.7789 2.68503C22.9406 2.90389 22.1245 3.20064 21.3419 3.56788C21.1193 3.67174 20.8967 3.78302 20.6816 3.89801C20.6 3.93882 20.6704 4.05752 20.7483 4.01672Z" fill="#99613A"/>
<path d="M16.2414 1.35335C16.8349 1.52399 17.4247 1.71317 18.0071 1.92461C18.5894 2.13604 19.1607 2.36974 19.7245 2.62198C20.0435 2.76665 20.3588 2.91502 20.6741 3.07082C20.752 3.11162 20.8225 2.99292 20.7446 2.95212C20.1845 2.67391 19.617 2.41796 19.0383 2.18055C18.4633 1.94315 17.8809 1.72801 17.2911 1.53512C16.9573 1.42383 16.6197 1.31997 16.2785 1.22352C16.1931 1.19756 16.1561 1.32739 16.2414 1.35335Z" fill="#99613A"/>
<path d="M19.2498 1.20126C19.9323 1.46092 20.6074 1.75396 21.264 2.06927C21.9206 2.38828 22.5623 2.72954 23.1929 3.1042C23.549 3.31563 23.8977 3.53449 24.2426 3.76077C24.3168 3.80899 24.3836 3.69029 24.3131 3.64206C23.6974 3.23774 23.0668 2.85938 22.4213 2.51069C21.7759 2.162 21.1156 1.83557 20.4405 1.54253C20.0584 1.3756 19.6726 1.21981 19.2869 1.06772C19.2052 1.03804 19.1682 1.17159 19.2498 1.20126Z" fill="#99613A"/>
<path d="M23.2263 14.7036C24.6247 14.4996 26.0306 14.3289 27.4365 14.188C29.306 13.9988 31.3462 13.7948 32.689 12.4816C33.0896 12.0922 33.4124 11.5988 33.5014 11.0461C33.5941 10.4934 33.3753 9.52523 32.9376 9.17654C33.6164 9.69215 34.1728 11.0016 33.9502 11.8251C33.7277 12.6486 32.8337 13.3459 32.1029 13.7874C31.3722 14.2288 30.5376 14.4625 29.7029 14.6368C26.9951 15.2044 24.2056 15.2044 21.4532 15.4677C18.3076 15.7682 15.1508 16.5064 11.9793 16.358C11.23 16.3209 10.2915 16.2393 9.59412 15.9463C10.3694 16.1391 11.1261 15.9351 11.7159 15.95C12.6433 15.9759 13.5743 15.9463 14.498 15.8832C16.3824 15.7534 18.2556 15.4789 20.1215 15.1858C21.1564 15.0226 22.1913 14.8557 23.2263 14.7036Z" fill="#D19990"/>
</svg>
