<svg width="25" height="26" viewBox="0 0 25 26" fill="none" xmlns="http://www.w3.org/2000/svg">
<path d="M23.2377 16.6504L21.122 19.5924C21.122 19.5924 19.5605 18.7736 18.5914 18.647C18.5914 18.647 18.6828 17.4662 16.1327 16.3612C13.5746 15.2601 11.9505 15.3588 10.9553 15.9024C9.96019 16.4459 9.69089 17.0874 9.69089 17.0874C9.69089 17.0874 10.0505 16.929 9.86748 18.0455C9.6845 19.1621 8.47732 18.5959 8.47732 18.5959C8.47732 18.5959 7.57375 19.2035 7.24415 18.6998C6.91454 18.196 7.2754 17.6186 7.2754 17.6186C7.2754 17.6186 6.2541 17.5876 5.83148 16.1938C5.41685 14.7961 6.28772 14.4437 6.28772 14.4437C6.28772 14.4437 5.50172 14.4452 5.6847 13.3287C5.86768 12.2121 7.00801 12.4629 7.00801 12.4629C7.00801 12.4629 5.77611 12.1479 6.38279 10.7813C6.9855 9.40666 7.77021 9.82402 7.77021 9.82402C7.77021 9.82402 7.08232 9.05984 7.26402 8.36218C7.44571 7.66452 8.25915 7.81864 8.25915 7.81864C8.25915 7.81864 7.65758 7.52952 8.2657 6.98877C8.87382 6.44803 9.43873 6.98441 9.43873 6.98441C9.43873 6.98441 8.63182 6.00042 9.47653 5.07339C10.3212 4.14636 11.5598 4.87632 11.5598 4.87632C11.5598 4.87632 11.7415 4.17866 12.5027 3.18355C13.2558 2.1924 14.1543 3.2405 14.1543 3.2405C14.1543 3.2405 13.7933 2.57309 14.85 2.75589C15.8987 2.94265 15.5653 3.67575 15.5653 3.67575C15.5653 3.67575 16.7711 3.41614 17.0667 4.59405C17.3623 5.77196 16.4587 6.37962 16.4587 6.37962C16.4587 6.37962 15.9787 5.4924 15.882 7.08405C15.7853 8.6757 16.2261 10.648 17.6426 11.9172C19.0591 13.1863 19.08 14.1719 20.495 14.6151C21.9181 15.0344 23.2377 16.6504 23.2377 16.6504Z" fill="#85A93B"/>
<path d="M10.1783 16.8655C10.3982 16.7265 10.713 16.8592 10.788 17.1108C10.6633 17.4216 10.3435 17.64 10.0283 17.6271C10.2794 17.7117 10.4421 18.0194 10.3774 18.2905C10.2056 18.3658 10.0378 18.449 9.85797 18.5283C10.1337 18.3815 10.4597 18.7775 10.351 19.0804C10.2424 19.3833 9.86296 19.5018 9.56397 19.4211C9.26498 19.3404 9.03029 19.1082 8.80756 18.8801C8.93445 19.1359 8.57848 19.4221 8.32341 19.3295C8.06036 19.2409 7.9176 18.9532 7.79871 18.6935C7.70597 19.0084 7.22714 19.0269 7.03241 18.7749C6.82573 18.5189 6.84685 18.14 6.92763 17.821C6.50387 18.091 5.91139 17.4389 6.18806 16.9929C6.15859 17.4955 5.31286 17.457 5.19068 16.9698C5.06849 16.4827 5.49689 16.0013 5.95615 15.863C5.50568 15.738 5.31633 15.0352 5.64461 14.6731C5.38515 14.7122 5.13052 14.48 5.11143 14.2007C5.09631 13.9293 5.32454 13.6667 5.5879 13.6555C5.36901 13.4753 5.16209 13.2991 4.9432 13.1189C5.21194 12.6569 5.79517 12.4273 6.27742 12.5963C6.0423 12.5038 6.00363 12.1047 6.21154 11.9618C6.02041 11.8375 5.84124 11.7172 5.65011 11.593C5.74706 11.2062 6.09913 10.8921 6.48225 10.8614C6.31918 10.6933 6.14812 10.5292 5.98506 10.3611C6.20542 10.0626 6.61282 9.92019 6.95958 10.037C6.57305 9.88017 6.52725 9.20575 6.88304 8.97942C6.5472 9.20581 6.15403 8.6141 6.37853 8.26369C6.60304 7.91328 7.08585 7.90279 7.45243 8.05953C7.26136 7.9153 7.24642 7.5841 7.4145 7.42104C7.58257 7.25797 7.89364 7.30282 8.01272 7.50268C7.97753 7.27116 7.94233 7.03964 7.9111 6.81611C8.21839 6.79312 8.5297 6.75817 8.83699 6.73518C8.44204 6.72199 8.08809 6.34985 8.06144 5.93482C7.70626 5.96166 7.67236 5.31121 7.9841 5.13662C8.29585 4.96202 8.67444 5.10283 8.99716 5.25145C8.57885 5.05067 8.79666 4.28529 9.2359 4.16695C9.68314 4.04465 10.1251 4.33327 10.4752 4.65753C10.4759 4.43809 10.6321 4.2311 10.8318 4.17187C11.0505 4.41193 11.2772 4.64803 11.4959 4.88809C11.2411 4.71574 11.1625 4.31652 11.3309 4.05371C11.4993 3.7909 11.8786 3.71227 12.1294 3.89657C11.8944 3.76419 11.7436 3.48044 11.7565 3.20518C11.9322 3.15785 12.1197 3.15444 12.2951 3.20684C11.9364 3.08604 12.0421 2.43603 12.3976 2.30945C12.7531 2.18287 13.1314 2.42342 13.3858 2.71546C13.5139 2.57222 13.65 2.42502 13.7782 2.28178C13.9614 2.39007 14.1084 2.56608 14.1756 2.78173C14.3163 2.44303 14.5486 2.1485 14.8365 1.9459C15.2231 2.0628 15.5212 2.4627 15.5238 2.88962C16.2071 2.56057 17.0661 3.46891 16.7487 4.19408C17.0485 4.01546 17.3458 4.6348 17.0421 4.78548C17.2251 4.97357 17.4 5.16562 17.583 5.3537C17.466 5.76031 17.0303 6.02628 16.6396 5.94129C16.7469 6.07728 16.6903 6.32447 16.5264 6.39578C16.3194 6.25949 16.1123 6.1232 15.9013 5.97892C16.2516 6.24332 15.6269 6.99149 15.1998 7.05401C14.7727 7.11653 14.3787 6.80411 14.0804 6.48401C14.4352 6.59681 14.4692 7.20737 14.1692 7.44583C13.8692 7.6843 13.4107 7.58314 13.1402 7.31898C13.3866 7.65488 14.6006 9.88096 14.233 10.0634C13.8653 10.2458 11.9955 8.48447 11.6008 8.41144C11.9035 8.56 11.91 9.05476 11.6818 9.31738C11.4535 9.58001 11.1021 9.67468 10.7708 9.72952C11.1023 9.63478 11.3361 10.1462 11.1596 10.4529C10.9831 10.7596 10.5998 10.8501 10.2646 10.8571C10.6603 10.6508 11.1213 11.2188 10.9723 11.6612C10.8353 12.1077 10.3359 12.3256 9.8891 12.3082C10.3197 12.3933 12.6903 12.1932 12.5972 12.6477C12.504 13.1023 9.95537 14.1078 9.52882 13.9908C9.90358 14.0837 10.1857 14.4716 10.1764 14.8746C10.1672 15.2775 9.86682 15.6556 9.48755 15.7343C9.67191 15.4635 10.146 15.6764 10.1889 16.0037C10.2557 16.3391 10.4303 16.6508 10.1783 16.8655Z" fill="#397F28"/>
<path d="M15.8036 5.34024C15.2956 5.7616 14.7118 6.17076 14.5941 6.8367C14.4369 6.03825 14.3349 5.47137 13.8542 4.80359C13.9603 5.33856 14.0624 5.86553 14.1685 6.40049C13.7909 5.92055 13.3214 5.51613 12.7956 5.21926C13.3443 5.84337 13.745 6.5907 13.962 7.38934C13.3781 6.53371 12.4223 5.95224 11.4332 5.84546C12.9505 6.75583 14.0305 8.45084 14.2206 10.2189C12.9991 9.102 12.046 7.66272 11.4883 6.09699C11.6223 6.6081 11.3815 7.08614 11.5116 7.58926C11.1226 6.9457 10.9286 6.4344 10.2714 6.09324C10.5771 6.56897 10.8789 7.03671 11.1926 7.50848C10.8025 7.224 10.3242 7.06293 9.85742 7.06549C10.5228 7.36278 11.1318 7.82748 11.6048 8.39948C10.9476 8.05832 10.2018 7.94032 9.49929 8.04987C10.7674 8.27721 11.9416 9.17854 12.5444 10.3734C11.5442 9.94336 10.6406 9.2663 9.92907 8.41427C10.0715 8.82167 10.3137 9.18948 10.628 9.48171C9.93577 8.82924 9.0113 8.45134 8.10163 8.44455C8.70705 8.78156 9.32046 9.11461 9.92588 9.45162C9.43942 9.35436 8.93654 9.40468 8.47716 9.58281C9.01541 9.70416 9.54171 9.82149 10.08 9.94284C9.62083 10.0412 9.16572 10.1276 8.70659 10.2259C9.84393 10.1496 11.0275 10.6081 11.8587 11.4605C10.9412 11.4377 10.0084 11.1635 9.19597 10.6703C9.5462 10.9546 9.9004 11.247 10.2426 11.5353C9.48549 11.2337 8.62366 11.243 7.90848 11.568C8.46681 11.6495 9.03312 11.7271 9.59145 11.8086C9.13665 11.7952 8.68136 11.9414 8.32148 12.1997C9.71517 11.797 11.2944 12.0492 12.5526 12.879C11.3658 13.4778 9.88955 13.4733 8.6426 12.867C8.98862 13.2231 9.38271 13.5156 9.82091 13.7364C8.98318 13.6939 8.14148 13.6434 7.31173 13.597C8.00946 13.7587 8.70718 13.9205 9.39691 14.0862C8.55819 14.3629 7.78274 14.8273 7.14643 15.4517C8.08508 15.1155 9.03171 14.7753 9.97036 14.439C9.27457 14.9436 8.64626 15.5641 8.13739 16.2647C8.705 15.9234 9.27261 15.582 9.83223 15.2446C9.35948 15.8775 9.08176 16.6626 9.04733 17.4765C9.97009 15.8235 11.7449 14.7438 13.6203 14.6897C15.4957 14.6356 17.4317 15.6071 18.5959 17.1907C18.7826 17.4466 18.9573 17.7184 19.2042 17.8948C19.7854 18.3035 20.6637 18.1466 21.0928 18.7105C21.1833 17.849 21.6485 17.0604 22.3442 16.5958C20.2136 15.2925 18.0115 13.9052 16.6336 11.7704C15.7998 10.4712 14.2956 6.59639 15.8036 5.34024Z" fill="#A9D157"/>
<path d="M17.2 13.0928C16.683 12.5526 16.1741 11.9685 15.893 11.2615C15.4575 10.1829 14.8488 8.29379 14.0814 7.44957C14.3262 8.2842 15.0958 9.71493 15.0014 10.5884C14.7343 10.4918 14.4673 10.3953 14.2003 10.2987C14.2154 10.57 14.2346 10.8294 14.2497 11.1008C13.6692 10.4327 13.0888 9.76461 12.5243 9.08858C12.9888 9.84409 13.3613 10.6751 13.602 11.5417C13.2277 11.3091 11.2365 10.0861 10.8449 10.3003C11.3866 10.5892 13.4287 12.0957 13.9705 12.3847C13.7386 12.5395 12.2159 12.0601 11.9801 12.207C12.199 12.3872 13.7246 13.1938 13.9435 13.374C12.8656 13.5702 10.4735 14.2691 9.58967 14.9566C11.3675 14.204 14.7955 13.9472 16.5446 14.7625C17.5047 15.2124 18.3485 15.8892 19.1842 16.5701C19.3315 16.6862 19.4668 16.7984 19.6141 16.9145C20.1633 17.3591 20.7086 17.7957 21.2498 18.2442C22.4345 17.0389 21.2749 16.5885 20.3195 15.8674C19.2169 15.0301 18.1704 14.1052 17.2 13.0928Z" fill="#D3DFB1"/>
</svg>
