<svg width="25" height="20" viewBox="0 0 25 20" fill="none" xmlns="http://www.w3.org/2000/svg">
<path d="M1.43378 14.8592C1.43378 14.8592 1.77986 17.5537 2.44731 18.1222C3.09003 18.6908 14.3872 20.3471 21.4572 18.0481C21.6796 17.9739 21.828 17.8256 21.9268 17.6278C22.2482 16.8862 22.9898 15.0817 22.8168 14.2164C22.5696 13.1288 18.0458 16.7379 1.43378 14.8592Z" fill="#F89945"/>
<path d="M4.69685 16.8615C5.68566 17.257 6.42727 16.4907 7.29248 16.8862C8.15769 17.2818 8.35544 17.4301 9.04761 16.9357C9.17121 16.8368 9.36898 16.9357 9.49258 16.9604C10.4814 17.2323 11.05 17.3559 12.1871 16.9357C12.459 16.8368 12.6073 16.7874 12.904 16.8615C13.6703 17.0346 14.4119 16.8368 15.0794 16.4907C15.1288 16.466 15.1782 16.4413 15.2277 16.4413C15.821 16.4413 16.0434 16.7874 16.6367 16.911C17.5514 17.084 18.3671 17.2323 18.8863 16.3177C18.9604 16.1941 19.1335 16.0952 19.2818 16.0705C20.147 15.8233 20.4684 16.7626 21.3336 15.8974C21.7785 15.4525 22.1741 15.848 22.5696 15.9222C22.7673 15.3041 22.8909 14.6614 22.7921 14.2412C22.5696 13.1535 18.0211 16.7626 1.40906 14.8839C1.40906 14.8839 1.55738 16.0705 1.85403 17.0346C2.66979 17.6526 3.85637 16.5154 4.69685 16.8615Z" fill="#D77124"/>
<path opacity="0.55" d="M15.4254 18.0975C14.3872 17.5042 12.9781 16.6143 12.3601 15.5019C9.69031 15.6008 6.27892 15.5513 1.9776 15.1064C1.9776 15.1064 2.29896 17.3065 2.89224 17.7762C3.36193 18.147 10.16 19.1111 16.1176 18.4436C15.8704 18.32 15.6479 18.2211 15.4254 18.0975Z" fill="#CD4200"/>
<path d="M10.6297 9.39601C10.6297 9.39601 1.82928 10.4095 1.43376 11.3736C1.03823 12.3377 1.28544 14.2412 1.97761 14.7603C2.66977 15.2794 11.5691 15.2547 13.0275 15.3536C18.6143 15.7244 21.9763 13.7221 22.1988 13.6973C22.4212 13.6726 23.6572 11.2995 22.1988 9.81626C20.8639 8.43192 12.2612 9.47017 10.6297 9.39601Z" fill="#BE5B2A"/>
<path d="M13.077 13.6232C12.0635 13.0299 11.0747 12.3872 10.2836 11.4972C9.76452 10.9287 9.369 10.2365 8.94875 9.59377C7.11946 9.84098 4.25191 10.2612 2.62037 10.7556C2.57093 12.6344 3.21366 14.167 4.82048 15.1805C7.76219 15.403 12.0388 15.4772 13.0029 15.3289C13.4231 15.2794 14.4119 15.1064 15.5491 14.8839C14.7333 14.5625 13.9175 14.1176 13.077 13.6232Z" fill="#AE4D25"/>
<path d="M7.76216 11.25C9.19594 11.2006 10.5061 11.5961 11.9152 11.8433C13.077 12.0411 14.2141 12.2141 15.3266 12.5849C16.2165 12.8816 18.1199 14.2412 18.7379 13.2276C19.2076 12.4613 20.0481 12.1152 20.765 11.6456C21.21 11.3736 22.001 10.9039 22.7426 10.7556C22.6437 10.4343 22.446 10.1129 22.1741 9.81625C20.8144 8.43192 12.2365 9.49489 10.605 9.39601C10.605 9.39601 1.80458 10.4095 1.40906 11.3736C1.31018 11.6208 1.26074 11.8928 1.23602 12.2141C3.36196 11.4972 5.4879 11.3242 7.76216 11.25Z" fill="#953E25"/>
<path d="M1.43378 14.6861C1.43378 14.6861 2.54619 14.1423 3.21364 14.0187C3.88108 13.8951 5.75982 14.4884 7.58911 14.167C9.41841 13.8457 9.31953 14.9581 11.4207 14.5378C13.5467 14.0929 14.1153 14.9086 14.8074 14.6861C15.4996 14.4637 17.5019 14.612 17.9222 14.7356C18.3671 14.8345 20.6908 13.376 21.5066 13.549C22.3471 13.7221 23.1381 13.0052 23.3359 13.3512C23.5337 13.6973 23.8798 14.4884 22.7179 14.7603C21.556 15.0075 21.0369 15.4277 20.5178 15.2053C19.9987 14.9828 17.2053 16.5649 16.8345 16.0952C16.4637 15.6502 15.2771 15.6997 14.2389 15.848C13.2006 15.9963 12.8051 15.6502 11.5444 15.9222C10.2836 16.1941 8.50376 15.675 7.95992 15.9716C7.41607 16.2435 5.68566 16.4907 5.26541 16.0952C4.82045 15.7244 3.36195 15.4772 2.99115 15.6997C2.59562 15.8727 1.48322 14.9333 1.43378 14.6861Z" fill="#7BB027"/>
<path d="M2.54615 13.9693C2.54615 13.9445 2.52143 13.9198 2.57087 13.9198C2.64503 13.8704 2.76863 13.7715 2.86751 13.7468V13.722C3.01583 13.6726 3.13943 13.5737 3.28776 13.549V13.5243C3.55968 13.5243 3.9552 13.4501 4.22712 13.4007C4.54848 13.4254 4.96873 13.6479 4.72153 13.994C4.62264 14.1423 4.42489 14.167 4.44961 14.4142C4.47433 14.5873 4.67209 14.7603 4.77097 14.8097C5.14177 14.9333 5.6609 14.9086 6.05642 14.8592C6.37779 14.8345 7.06995 14.7603 7.09467 14.3153C7.11939 14.1917 6.92163 14.0929 6.89691 13.9693C6.87219 13.7962 6.99579 13.6479 7.09467 13.5737C7.26771 13.5737 7.4902 13.4996 7.63852 13.4501C7.861 13.4996 8.13292 13.4007 8.3554 13.4007C8.55317 13.4007 8.80037 13.4501 8.99813 13.4501C9.12173 13.5243 9.27005 13.5984 9.41837 13.6726C9.51725 13.7962 9.71502 13.994 9.61614 14.1917C9.5667 14.3153 9.39365 14.3153 9.29477 14.3895C9.17117 14.4884 9.12173 14.5625 9.04757 14.6861C9.07229 14.8097 9.14645 14.9086 9.24533 14.9581C9.29477 14.9828 9.31949 14.9581 9.36893 15.0075C9.86334 14.9581 10.3577 15.1558 10.8274 15.0322C10.9263 15.0569 11.0005 15.0569 11.0499 15.0075C11.1735 15.0322 11.2971 15.0075 11.4207 14.9828V14.9581C11.4454 14.9581 11.4702 14.9828 11.4702 14.9581C11.4702 14.9333 11.4702 14.9333 11.4702 14.9333C11.7915 14.8097 11.1735 14.5625 11.0746 14.4637C10.778 14.167 11.223 13.9693 11.4949 13.9198C12.1623 13.7962 13.1264 13.7468 13.7197 14.167C13.7691 14.3895 13.5961 14.6861 13.3736 14.7356C13.3242 14.8097 13.2006 14.8839 13.1264 14.9828C13.1264 15.0075 13.1264 15.0569 13.1264 15.0817C13.1758 15.1064 13.25 15.1558 13.2994 15.1558C13.4478 15.2547 13.695 15.2053 13.8433 15.2053C13.868 15.2053 13.9175 15.2053 13.9175 15.2053C13.9916 15.23 14.0658 15.2053 14.1399 15.2053V15.1805C14.2388 15.1805 14.4366 15.1311 14.4119 14.9828C14.6096 14.7109 14.1399 14.2659 14.7085 14.2412C15.0299 14.2165 15.4748 14.3895 15.6726 14.0681C15.8951 13.994 16.0434 13.9198 16.2906 13.994C16.612 14.4142 16.2164 14.612 15.9445 14.9333L15.9198 14.9581C15.9198 15.0075 15.9198 15.0569 15.9445 15.0817C15.9692 15.1064 15.9692 15.1064 15.994 15.1311V15.1064C16.0928 15.23 16.4884 15.3041 16.5872 15.23C16.9828 15.403 17.3041 14.785 17.5019 14.5131C17.6502 14.3401 17.7738 14.1423 17.9468 14.0187C18.1446 13.8704 18.3177 13.9198 18.4907 13.8209C18.8121 13.9198 19.0098 13.9693 19.2323 14.2165C19.4053 14.3895 19.5042 14.7603 19.8009 14.6861C20.7402 14.8592 21.0369 13.3018 21.7538 12.9557C21.9515 12.8568 22.174 12.8816 22.2976 13.0793C22.4212 13.2524 22.3471 13.4748 22.4459 13.6479C22.5695 13.8209 22.792 13.8456 22.9651 13.722C23.1381 13.5984 23.1134 13.3512 23.237 13.1782C23.5831 12.7332 24.2258 12.9804 24.2258 13.5243C24.2258 13.8704 23.7561 14.5625 23.4347 14.6614C23.41 14.8345 22.9651 15.2053 22.7673 15.2547C22.3965 15.3536 22.1493 15.0817 22.0999 14.7603C22.0751 14.4884 22.1246 14.0434 21.8279 13.9445C21.5807 13.8456 21.2099 14.1176 21.2346 14.3648C21.1358 14.5378 21.1358 14.8592 21.0863 15.0817C21.0369 15.2794 20.9627 15.5266 20.8391 15.6997C20.7897 15.7244 20.7897 15.7244 20.7897 15.7491C20.2211 16.021 19.6031 15.6255 19.4053 15.0075C19.2076 14.8097 18.8615 14.3648 18.7132 14.9333C18.6637 15.1311 18.7132 15.3289 18.7132 15.5266C18.7132 15.6997 18.639 15.9222 18.6885 16.0952C18.466 16.466 18.1693 16.5896 17.6996 16.639C17.2052 16.6885 16.7108 16.4907 16.2906 16.293C15.9445 16.1199 15.6479 16.021 15.7468 15.5761C15.7715 15.4525 15.8951 15.2053 15.8209 15.0569C15.7468 14.8839 15.4748 14.8345 15.3512 14.9086C14.8815 14.9086 14.9804 15.4772 14.8815 15.7985C14.7332 16.2682 14.3377 16.4413 13.8927 16.4907C13.5714 16.5154 12.5578 16.5402 12.5826 16.0705C12.5826 15.8727 12.8545 15.7244 12.8792 15.5266C12.9286 15.2794 12.7062 15.1064 12.5084 15.0075C12.3601 14.9333 11.7421 14.8839 11.8904 15.1805C11.8904 15.2794 11.9893 15.403 12.014 15.5266C12.0387 15.6502 12.014 15.7738 12.0634 15.8974C11.9646 16.021 11.9398 16.2188 11.8904 16.3424C11.8162 16.5154 11.6679 16.639 11.5196 16.7132C11.4701 16.7132 11.4454 16.7379 11.396 16.7626C10.8027 16.7379 10.3083 16.7379 9.76446 16.466C9.61614 16.3918 9.36893 16.2682 9.29477 16.1446C9.14645 15.9469 9.27005 15.7244 9.14645 15.5266C8.97341 15.1805 8.15764 14.9828 8.25652 15.5761C8.30596 15.848 8.52845 15.9716 8.52845 16.293C8.52845 16.4907 8.50372 16.6885 8.30596 16.8121V16.8368C7.26771 17.1582 7.76212 15.6008 6.99579 15.4772C6.74859 15.4277 6.20475 15.5019 6.05642 15.7244C5.83394 16.0705 6.4025 16.2682 6.08114 16.6143C6.05642 16.6143 5.98226 16.639 5.98226 16.6143C5.51257 16.7379 4.77097 16.5649 4.62265 16.021C4.54849 15.8233 4.72153 15.5761 4.64737 15.403C4.57321 15.2547 4.27656 15.1064 4.15296 15.1064C4.02936 15.0322 3.8316 15.0569 3.708 15.1558C3.51024 15.3041 3.55968 15.4277 3.65856 15.6008C3.90576 16.0458 3.9552 16.3177 3.63384 16.7626C3.26303 16.8615 2.79335 16.8862 2.44727 16.6638C2.17535 16.466 2.10118 15.9716 2.0023 15.6997C1.8787 15.5019 1.35958 15.5513 1.16181 15.6008C0.247165 15.5019 -0.0247577 14.167 1.03821 14.1917C1.43374 14.1917 1.77982 14.4637 2.1259 14.6614C2.39782 14.8097 2.99111 15.0322 3.06527 14.5378C3.13944 14.1423 2.66975 14.2165 2.57087 13.9445C2.54615 13.8951 2.49671 13.994 2.54615 13.9693Z" fill="#9FCC29"/>
<path d="M3.88108 8.75328C3.88108 8.75328 0.914648 9.71737 0.0247192 11.1511L0.346087 11.6456C0.346087 11.6456 5.26542 10.3601 9.02289 10.8792C12.7804 11.3983 16.9086 12.3377 18.1447 12.8321C18.1447 12.8321 20.765 9.64321 24.3 9.79153V9.14881C24.3 9.14881 22.9898 8.2836 21.4572 8.20944C19.9245 8.13528 9.71505 9.66793 3.88108 8.75328Z" fill="#FFCF08"/>
<path d="M19.0099 11.3242C18.4413 11.7197 17.9469 12.0905 17.9469 12.0905C13.9669 11.1017 10.9758 10.2859 8.13296 10.2859C3.51027 10.2859 0.0247202 11.1264 0 11.1264L0.32136 11.6208C0.32136 11.6208 5.24069 10.3354 8.99816 10.8545C12.7804 11.3736 16.8839 12.313 18.1199 12.8074C18.1199 12.8074 20.7403 9.6185 24.2753 9.76682V9.14881C21.4324 9.27241 19.8009 10.7803 19.0099 11.3242Z" fill="#EFA708"/>
<path d="M21.5313 6.72623C21.5313 6.72623 22.0504 6.94871 22.0999 7.36896C22.1493 7.7892 22.0257 8.62969 21.828 8.80273C21.3583 9.14881 10.6544 10.3107 2.27424 9.39602C2.27424 9.39602 2.00233 9.2477 1.854 7.64088C1.854 7.64088 4.3013 8.55553 13.0523 8.20944C19.9987 7.96224 21.5313 6.72623 21.5313 6.72623Z" fill="#E72124"/>
<path opacity="0.55" d="M12.4837 9.12409C14.2883 9.09937 16.0929 8.82745 17.8727 8.60496C19.4548 8.43192 20.8144 8.23416 22.0999 7.36895C22.0257 6.97343 21.5313 6.75095 21.5313 6.75095C21.5313 6.75095 19.9739 7.98696 13.0523 8.25888C4.3013 8.58024 1.854 7.69031 1.854 7.69031C1.90344 8.30832 1.9776 8.70384 2.05176 8.95105C5.43844 9.66793 9.04759 9.14881 12.4837 9.12409Z" fill="#C42124"/>
<path d="M12.014 0.00232359C10.1353 0.0270438 8.25657 0.298966 6.452 0.79337C5.2407 1.11473 4.02942 1.58442 2.96645 2.27658C1.95292 2.94403 1.31019 3.78452 0.840507 4.89693C0.840507 4.89693 0.271939 6.42958 1.40907 7.93752C2.52148 9.44545 19.5537 8.80273 21.9516 7.07231C21.9516 7.07231 22.8168 6.03406 22.2482 4.3778C21.9269 3.5126 21.0864 2.69683 20.3448 2.1777C19.1829 1.36194 17.8233 0.842812 16.439 0.496728C15.0052 0.150645 13.4973 -0.0223966 12.014 0.00232359Z" fill="#F89945"/>
<path d="M18.3177 5.88575C15.8951 6.62735 13.522 6.38015 11.0252 6.42959C8.47905 6.47903 5.83399 6.75095 3.31253 6.25655C2.1754 6.03407 1.33491 5.7127 0.840503 4.9711C0.741622 5.31718 0.469698 6.62735 1.43379 7.9128C2.5462 9.42074 19.5784 8.77801 21.9763 7.0476C21.9763 7.0476 22.7921 6.08351 22.2977 4.50141C21.1111 5.24302 19.7515 5.4655 18.3177 5.88575Z" fill="#E8761F"/>
<path opacity="0.32" d="M12.4343 0.743929C11.8904 0.570887 10.3825 0.422565 10.2342 1.26305C10.1106 1.95522 11.4455 2.10354 11.8904 2.12826C12.3848 2.15298 13.1759 2.0541 13.25 1.53498C13.2748 1.11473 12.8792 0.89225 12.4343 0.743929Z" fill="#FDE5C1"/>
<path opacity="0.32" d="M16.5626 2.37547C15.3018 2.25186 13.9175 2.35075 12.9781 3.11707C12.2365 3.7598 12.9534 4.20476 13.6208 4.42725C14.6344 4.74861 15.821 4.89693 16.8839 4.77333C17.6008 4.69917 18.911 4.55085 18.7627 3.56204C18.7132 3.29012 18.4907 3.04291 18.2683 2.86987C17.9222 2.67211 16.9581 2.42491 16.5626 2.37547Z" fill="#FDE5C1"/>
<path d="M7.66329 2.35074C7.73746 2.52378 7.58913 2.77099 7.29249 2.91931C6.99585 3.06763 6.6992 3.04291 6.60032 2.86987C6.52616 2.69683 6.67448 2.44963 6.97112 2.3013C7.26777 2.1777 7.56441 2.20242 7.66329 2.35074Z" fill="#FBD198"/>
<path d="M12.5084 4.94637C12.5826 5.11941 12.4343 5.36662 12.1376 5.51494C11.841 5.66326 11.5444 5.63854 11.4455 5.4655C11.3713 5.29246 11.5196 5.04525 11.8163 4.89693C12.1129 4.74861 12.4096 4.77333 12.5084 4.94637Z" fill="#FBD198"/>
<path d="M16.5379 4.55084C16.612 4.72389 16.4637 4.97109 16.1671 5.11941C15.8704 5.26773 15.5738 5.24301 15.4749 5.06997C15.4007 4.89693 15.5491 4.64972 15.8457 4.5014C16.1423 4.3778 16.4637 4.40252 16.5379 4.55084Z" fill="#FBD198"/>
<path d="M4.79574 3.48788C4.8699 3.66092 4.72158 3.90812 4.42494 4.05645C4.12829 4.20477 3.83165 4.18005 3.73277 4.007C3.65861 3.83396 3.80693 3.58676 4.10357 3.43844C4.40021 3.29012 4.72158 3.31484 4.79574 3.48788Z" fill="#FBD198"/>
<path d="M20.4684 3.31484C20.5426 3.48788 20.3942 3.73508 20.0976 3.8834C19.801 4.03172 19.5043 4.007 19.4054 3.83396C19.3313 3.66092 19.4796 3.41372 19.7762 3.2654C20.0729 3.1418 20.3942 3.1418 20.4684 3.31484Z" fill="#FBD198"/>
<path d="M13.7692 4.007C13.695 4.18005 13.3737 4.20477 13.077 4.05645C12.7804 3.90812 12.6073 3.66092 12.6815 3.48788C12.7557 3.31484 13.077 3.29012 13.3737 3.43844C13.6703 3.58676 13.8433 3.83396 13.7692 4.007Z" fill="#FBD198"/>
<path d="M17.3289 2.86987C17.3784 3.06764 17.1312 3.2654 16.8098 3.33956C16.4884 3.41372 16.1918 3.31484 16.1671 3.11708C16.1176 2.91931 16.3648 2.72155 16.6862 2.64739C17.0076 2.57323 17.2795 2.67211 17.3289 2.86987Z" fill="#FBD198"/>
<path d="M7.6633 5.26773C7.58914 5.44077 7.26777 5.46549 6.97113 5.31717C6.67448 5.16885 6.50144 4.92165 6.5756 4.74861C6.64976 4.57557 6.97113 4.55085 7.26777 4.69917C7.56441 4.84749 7.73746 5.09469 7.6633 5.26773Z" fill="#FBD198"/>
<path d="M10.432 4.15532C10.3578 4.30364 10.0612 4.30364 9.76452 4.1306C9.46788 3.98228 9.29484 3.73508 9.369 3.58675C9.44316 3.43843 9.7398 3.43843 10.0364 3.61147C10.3331 3.7598 10.5308 4.007 10.432 4.15532Z" fill="#FBD198"/>
<path d="M4.15298 5.41605C4.10354 5.56437 3.83162 5.63853 3.51026 5.56437C3.18889 5.49021 2.96641 5.29245 2.99113 5.11941C3.04057 4.97109 3.3125 4.89693 3.63386 4.97109C3.97994 5.04525 4.20243 5.24301 4.15298 5.41605Z" fill="#FBD198"/>
<path d="M15.1535 1.70802C15.0793 1.85634 14.7827 1.88106 14.486 1.73274C14.2141 1.58442 14.0411 1.33721 14.1152 1.18889C14.1894 1.04057 14.4861 1.01585 14.7827 1.16417C15.0793 1.28777 15.2277 1.53498 15.1535 1.70802Z" fill="#FBD198"/>
<path d="M18.9604 2.22714C18.8863 2.37546 18.5896 2.40018 18.293 2.25186C18.0211 2.10354 17.848 1.85634 17.9222 1.70802C17.9964 1.5597 18.293 1.53498 18.5896 1.6833C18.8863 1.8069 19.0593 2.0541 18.9604 2.22714Z" fill="#FBD198"/>
<path d="M9.20319 1.46038C9.28616 1.30348 9.1284 1.05729 8.85082 0.910486C8.57323 0.763686 8.28094 0.771874 8.19797 0.92877C8.11499 1.08567 8.27276 1.33186 8.55034 1.47866C8.82793 1.62546 9.12021 1.61727 9.20319 1.46038Z" fill="#FBD198"/>
<path opacity="0.35" d="M22.1246 4.08116C19.7515 5.26773 16.6367 5.71269 14.14 5.93518C12.3354 6.0835 10.3825 6.28126 8.62738 5.76214C6.89696 5.26773 5.63623 4.08116 5.83399 2.15298C5.88343 1.65857 6.08119 1.21361 6.35312 0.818089C5.16655 1.13945 4.0047 1.58441 2.96645 2.27658C1.95292 2.94403 1.31019 3.78452 0.840507 4.89693C0.840507 4.89693 0.271939 6.42958 1.40907 7.93752C2.52148 9.44545 19.5537 8.80272 21.9516 7.07231C21.9516 7.07231 22.8168 6.03406 22.2482 4.3778C22.2235 4.27892 22.1741 4.18004 22.1246 4.08116Z" fill="#D48745"/>
<path opacity="0.32" d="M11.8162 6.50374C11.5196 6.50374 11.1982 6.50374 10.9016 6.50374C8.42957 6.55318 5.88339 6.77566 3.43609 6.35542C2.3484 6.18238 1.53263 5.88574 1.03822 5.26773C0.93934 5.56437 0.667422 6.67678 1.60679 7.78919C2.2248 8.50608 7.73741 8.6544 12.8298 8.38248C12.4095 7.78919 12.0634 7.14647 11.8162 6.50374Z" fill="#BA773D"/>
</svg>
