<svg width="35" height="22" viewBox="0 0 35 22" fill="none" xmlns="http://www.w3.org/2000/svg">
<path d="M1.09194 11.3973C0.986483 11.4199 0.877264 11.4387 0.783109 11.5103C0.549603 11.691 0.519473 12.1204 0.523239 12.4819C0.527005 13.1712 0.5722 13.9319 0.937523 14.4178C1.19363 14.7605 1.56272 14.8999 1.91297 15.0128C2.24817 15.1221 2.58336 15.22 2.91855 15.3066C3.17466 15.3744 3.44959 15.4309 3.69063 15.2878C3.96933 15.1183 4.11998 14.7228 4.2292 14.3425C4.33089 13.9884 4.40998 13.6231 4.43257 13.2465C4.48907 12.2447 4.05595 11.2353 3.41193 10.7344C2.64362 10.1394 1.90167 11.2203 1.09194 11.3973Z" fill="#F9BA7A"/>
<path d="M26.5441 1.75576C26.7474 1.64278 26.9584 1.51849 27.0713 1.31512C27.2182 1.06278 27.2069 0.701222 27.448 0.539275C27.64 0.411223 27.9037 0.479015 28.0958 0.607066C28.2765 0.731352 28.4234 0.91213 28.4761 1.1268C28.5251 1.34148 28.4648 1.58252 28.2991 1.72563C28.7096 1.72563 29.09 2.06459 29.139 2.47134C29.1691 2.70862 29.0486 2.99485 28.8113 3.03628C28.5854 3.07394 28.3895 2.8781 28.1635 2.81784C27.8811 2.74251 27.5948 2.90069 27.3387 3.04758C26.8039 3.35641 26.2578 3.63887 25.7004 3.90251C25.2372 4.12095 24.7589 4.32432 24.258 4.42978C23.7571 4.53523 23.2223 4.539 22.7402 4.36575C22.4992 4.27913 22.2393 4.09458 22.2543 3.83471C22.2995 3.05511 23.614 3.05887 24.1111 2.90823C24.9736 2.64836 25.7645 2.20018 26.5441 1.75576Z" fill="#DAE5EA"/>
<path d="M29.1352 2.47134C29.0862 2.06459 28.7058 1.72563 28.2953 1.72563C28.461 1.58251 28.5213 1.34147 28.4723 1.1268C28.4234 0.912124 28.2727 0.731345 28.092 0.60706C27.9262 0.494073 27.704 0.430048 27.5233 0.49784C27.6023 0.520437 27.6814 0.558099 27.7492 0.60706C27.93 0.731345 28.0769 0.912124 28.1296 1.1268C28.1786 1.34147 28.1183 1.58251 27.9526 1.72563C28.3631 1.72563 28.7435 2.06459 28.7925 2.47134C28.8151 2.67095 28.736 2.90822 28.5665 2.99861C28.6456 3.02874 28.7247 3.04757 28.8113 3.03627C29.0448 2.99484 29.1653 2.70861 29.1352 2.47134Z" fill="#C9D3D6"/>
<path d="M27.817 2.81782C27.5345 2.7425 27.2483 2.90068 26.9922 3.04756C26.4574 3.35639 25.9113 3.63886 25.3539 3.9025C24.8907 4.12094 24.4123 4.32431 23.9114 4.42977C23.742 4.46366 23.5725 4.49003 23.3992 4.49756C23.6855 4.51639 23.9755 4.48626 24.2579 4.42977C24.7588 4.32431 25.2371 4.12094 25.7004 3.9025C26.2578 3.64263 26.8039 3.35639 27.3387 3.04756C27.4931 2.95717 27.6626 2.86679 27.8321 2.82159C27.8245 2.82159 27.8208 2.81782 27.817 2.81782Z" fill="#C9D3D6"/>
<path opacity="0.37" d="M24.2504 3.29614C24.2806 3.36393 24.3596 3.39782 24.435 3.39782C24.5103 3.39782 24.5781 3.36393 24.6459 3.33756C24.853 3.24717 25.0564 3.15679 25.2635 3.06263C25.6251 2.90445 25.9866 2.7425 26.3256 2.53913C26.5064 2.42991 26.6834 2.29809 26.7663 2.10601C26.7776 2.07588 26.7851 2.04198 26.77 2.01939C26.7361 1.97419 26.6683 2.01186 26.6269 2.04952C26.4989 2.17004 26.367 2.29056 26.2164 2.38094C25.9791 2.52029 24.0885 2.93081 24.2504 3.29614Z" fill="white"/>
<path opacity="0.37" d="M27.3576 0.772772C27.3387 0.863162 27.4141 0.946019 27.4178 1.03641C27.4216 1.10797 27.3839 1.17199 27.3613 1.23978C27.3387 1.30758 27.3425 1.3942 27.4065 1.43186C27.4404 1.45446 27.4856 1.45069 27.5271 1.43939C27.7078 1.39043 27.8283 1.19459 27.8171 1.00628C27.8133 0.930954 27.7907 0.855629 27.7417 0.799136C27.6702 0.708747 27.3952 0.584462 27.3576 0.772772Z" fill="white"/>
<path d="M32.4005 7.99638C32.6039 7.88339 32.8148 7.75911 32.9278 7.55573C33.0747 7.30339 33.0634 6.94184 33.3044 6.77989C33.4965 6.65184 33.7601 6.71963 33.9522 6.84768C34.133 6.97197 34.2799 7.15275 34.3326 7.36742C34.3815 7.58209 34.3213 7.82313 34.1556 7.96625C34.5661 7.96625 34.9465 8.30521 34.9954 8.71196C35.0256 8.94923 34.905 9.23546 34.6678 9.27689C34.4418 9.31455 34.246 9.11871 34.02 9.05845C33.7375 8.98313 33.4513 9.14131 33.1952 9.28819C32.6604 9.59702 32.1143 9.87949 31.5569 10.1431C31.0936 10.3616 30.6153 10.5649 30.1144 10.6704C29.6135 10.7758 29.0787 10.7796 28.5966 10.6064C28.3556 10.5197 28.0957 10.3352 28.1108 10.0753C28.156 9.29572 29.4704 9.29949 29.9675 9.14884C30.83 8.88521 31.6247 8.44079 32.4005 7.99638Z" fill="#DAE5EA"/>
<path d="M34.9954 8.7082C34.9465 8.30145 34.5661 7.96249 34.1556 7.96249C34.3213 7.81937 34.3815 7.57833 34.3326 7.36366C34.2836 7.14899 34.133 6.96821 33.9522 6.84392C33.7865 6.73094 33.5643 6.66691 33.3835 6.7347C33.4626 6.7573 33.5417 6.79496 33.6095 6.84392C33.7902 6.96821 33.9371 7.14899 33.9898 7.36366C34.0388 7.57833 33.9785 7.81937 33.8128 7.96249C34.2234 7.96249 34.6037 8.30145 34.6527 8.7082C34.6753 8.90781 34.5962 9.14508 34.4267 9.23547C34.5058 9.2656 34.5849 9.28443 34.6715 9.27313C34.905 9.23547 35.0218 8.94924 34.9954 8.7082Z" fill="#C9D3D6"/>
<path d="M33.6734 9.05844C33.391 8.98312 33.1048 9.1413 32.8486 9.28818C32.3138 9.59701 31.7677 9.87948 31.2103 10.1431C30.7471 10.3616 30.2688 10.5649 29.7679 10.6704C29.5984 10.7043 29.4289 10.7306 29.2557 10.7382C29.5419 10.757 29.8319 10.7269 30.1144 10.6704C30.6153 10.5649 31.0936 10.3616 31.5568 10.1431C32.1142 9.88324 32.6603 9.59701 33.1951 9.28818C33.3496 9.19779 33.519 9.1074 33.6885 9.06221C33.6847 9.05844 33.6772 9.05844 33.6734 9.05844Z" fill="#C9D3D6"/>
<path d="M22.164 2.61446C23.0452 2.38095 23.9378 2.08719 24.8493 2.15875C25.0526 2.17381 25.2824 2.22654 25.3765 2.40732C25.4368 2.5203 25.4293 2.65589 25.418 2.78394C25.2824 4.36952 25.0338 6.15847 23.742 7.09249C22.985 7.63859 22.0133 7.77041 21.0793 7.81937C19.2941 7.91729 17.4185 7.75535 15.8857 6.83262C15.3019 6.48237 14.7294 5.9099 14.801 5.23198C14.9215 4.04562 16.6879 3.43926 17.6822 3.30368C19.1999 3.1003 20.6763 3.00991 22.164 2.61446Z" fill="#F9BA7A"/>
<path d="M24.2918 4.15107C23.3013 4.04561 22.3485 3.72172 21.3805 3.50328C19.569 3.09652 17.6896 3.07016 15.8404 3.20951C13.5317 3.37899 11.2231 3.80457 9.08385 4.6934C6.9484 5.58599 4.98243 6.96066 3.59646 8.81741C2.66997 10.0565 2.00712 11.5291 1.89414 13.0732C1.78115 14.6174 2.26322 16.2331 3.34789 17.3404C4.57192 18.587 6.37594 19.0502 8.10463 19.3365C11.208 19.8487 14.3829 19.9579 17.5126 19.6604C20.2243 19.4005 23.0979 18.7301 24.9208 16.7076C25.9603 15.5552 26.5478 14.075 27.1165 12.6288C27.7492 11.0169 28.3819 9.40871 29.0109 7.79676C29.2708 7.13391 29.5344 6.45599 29.6022 5.74794C29.67 5.03613 29.5193 4.27535 29.0373 3.74808C28.3932 3.0438 27.6927 3.16055 27.0035 3.56354C26.141 4.06068 25.2974 4.25652 24.2918 4.15107Z" fill="#EAB071"/>
<path d="M18.0512 3.23587C17.5955 3.19445 17.136 3.16808 16.6766 3.15678C16.4167 3.16808 16.1568 3.18315 15.9007 3.20198C13.592 3.37146 11.2833 3.79704 9.14412 4.68587C7.00868 5.57846 5.04271 6.95313 3.65674 8.80988C3.31402 9.26936 3.00519 9.76273 2.74908 10.2787C3.31402 10.4218 4.15388 9.50286 4.47778 9.23546C5.44946 8.43702 6.40232 7.61599 7.34011 6.77989C7.78452 6.38443 8.244 5.97015 8.81646 5.80444C8.95204 5.76677 9.11023 5.74418 9.21945 5.83456C9.44542 6.01534 9.22321 6.3656 9.00477 6.55768C7.56608 7.80806 6.12738 9.05845 4.69245 10.3088C4.50414 10.4708 4.297 10.6855 4.34596 10.9303C4.39116 11.1525 4.64349 11.2843 4.86947 11.2692C5.09544 11.2542 5.29882 11.1299 5.48713 11.0018C7.06517 9.93974 8.37582 8.47468 10.0857 7.64235C10.8691 7.26196 11.7127 7.02469 12.5526 6.80625C13.4828 6.56521 14.4281 6.343 15.2906 5.91742C16.0363 5.54457 16.6992 5.02859 17.3545 4.51639C17.7951 4.1699 18.2358 3.82717 18.6802 3.48068C18.5408 3.29237 18.2847 3.25471 18.0512 3.23587Z" fill="#F9BA7A"/>
<path d="M29.6022 5.78937C29.67 5.07755 29.5193 4.31678 29.0372 3.78951C28.9017 3.64262 28.7661 3.5334 28.6267 3.45055C28.5853 3.50327 28.51 3.556 28.5024 3.63886C28.4798 3.94769 29.0146 4.48626 28.8339 5.32989C28.2124 8.23364 27.2031 9.1752 25.836 10.9867C25.2145 11.8116 24.4726 12.5686 23.5649 13.0619C22.3032 13.7512 20.8231 13.883 19.3882 14.0035C15.7237 14.3086 12.0554 14.6136 8.39083 14.9149C7.3137 15.0053 6.22149 15.0919 5.15189 14.9375C4.08228 14.7793 3.01267 14.3537 2.28203 13.5553C2.16151 13.4235 2.03346 13.2766 1.89411 13.1636C1.79619 14.6927 2.27826 16.2858 3.34787 17.378C4.57189 18.6246 6.37591 19.0879 8.1046 19.3741C11.208 19.8863 14.3829 19.9955 17.5126 19.698C20.2243 19.4381 23.0979 18.7678 24.9208 16.7453C25.9602 15.5928 26.5478 14.1127 27.1165 12.6665C27.7492 11.0545 28.3819 9.44636 29.0109 7.83442C29.2707 7.17534 29.5344 6.49742 29.6022 5.78937Z" fill="#D69F69"/>
<path d="M18.7743 9.46521C19.8288 8.22612 21.26 7.41262 22.7778 7.19041C23.064 7.14899 23.4369 7.18665 23.531 7.49924C23.629 7.83067 23.3126 8.10561 23.0414 8.25249C21.8927 8.87391 20.6348 9.37105 19.7724 10.4294C19.2639 11.0546 18.9363 11.8266 18.6726 12.6175C18.4278 13.3519 18.3186 14.4743 17.893 15.0882C17.3921 15.8113 16.7217 14.9451 16.6803 14.2558C16.6351 13.5629 17.0946 12.7381 17.3055 12.1166C17.6407 11.1336 18.1265 10.226 18.7743 9.46521Z" fill="#F9BA7A"/>
<path d="M10.4246 17.2537C11.3021 16.5532 12.0817 15.7209 12.8387 14.866C13.0609 14.6174 13.2907 14.35 13.3735 14.011C13.5317 13.367 13.0798 12.6966 12.5186 12.4254C12.4056 12.8548 12.2851 13.2992 12.0328 13.6532C11.626 14.2257 10.9556 14.478 10.3342 14.7341C9.28719 15.171 8.27784 15.7171 7.32499 16.3574C6.90318 16.6436 6.48889 16.9487 6.13487 17.3291C5.90136 17.5814 5.67915 17.9392 5.79967 18.2744C5.87123 18.4778 6.05578 18.6133 6.24785 18.6698C6.43993 18.7263 6.64331 18.7188 6.84292 18.7075C7.11785 18.6924 7.40785 18.7376 7.67902 18.7113C8.00291 18.6774 8.3607 18.4928 8.65823 18.3572C9.28343 18.0748 9.87472 17.6906 10.4246 17.2537Z" fill="#BF8C62"/>
<path d="M16.3715 17.894C16.6916 18.4213 17.1737 18.8469 17.7725 18.9937C18.3713 19.1406 19.0003 19.0879 19.6142 19.0126C20.4428 18.9109 21.2676 18.7715 22.0848 18.5945C22.3447 18.538 22.6046 18.4778 22.8531 18.3836C23.7533 18.0409 24.4199 17.2876 25.0526 16.5608C25.4556 16.0975 25.8849 15.559 25.8322 14.9451C25.8284 14.8999 25.8209 14.8547 25.7908 14.8208C25.7456 14.768 25.6665 14.7643 25.5949 14.768C23.2486 14.8471 21.0077 15.8904 18.6613 15.913C18.0851 15.9167 17.1511 13.834 16.6803 14.2596C16.2736 14.6249 15.5994 16.6248 16.3715 17.894Z" fill="#BF8C62"/>
<path d="M3.16729 17.6191C2.15418 18.4664 2.11275 19.0916 2.16924 19.698C2.22573 20.3081 2.83963 20.6961 3.41209 20.9107C4.60975 21.3627 5.90156 21.4832 7.17454 21.5736C8.35714 21.6564 9.5435 21.7205 10.7299 21.7581C11.05 21.7694 11.3739 21.777 11.6752 21.6753C11.935 21.5886 12.161 21.4229 12.3832 21.2572C14.0818 19.9993 15.7352 18.6887 17.3509 17.3253C16.0591 17.9994 14.7522 18.6397 13.4265 19.2385C13.1026 19.3854 12.7674 19.5323 12.4096 19.5587C11.8409 19.6001 11.3023 19.3289 10.7826 19.0954C9.71674 18.6171 8.58688 18.2781 7.43441 18.0823C9.04636 16.8959 10.6621 15.7096 12.274 14.5195C12.6431 14.2483 13.0461 13.9206 13.0913 13.4611C13.1327 13.0318 12.8389 12.6401 12.4962 12.3802C11.6526 11.7362 10.6282 11.2014 8.98609 11.4764C7.10675 11.7889 6.54935 12.674 5.84884 13.7361C4.86585 15.235 4.54572 16.4628 3.16729 17.6191Z" fill="#F9BA7A"/>
<path d="M17.3507 17.3253C16.7331 17.6492 16.1079 17.9618 15.4827 18.2706C15.4036 18.3459 15.3245 18.4175 15.2492 18.4928C14.3453 19.344 13.3774 20.1763 12.2023 20.5718C11.8445 20.6923 11.4679 20.7714 11.0913 20.7375C10.6958 20.6998 10.323 20.5454 9.95013 20.4023C8.04066 19.6716 5.99183 19.3139 3.94678 19.3477C3.50236 19.3553 3.03159 19.3741 2.64367 19.1557C2.48925 19.069 2.39509 18.8581 2.29341 18.6774C2.13522 19.0427 2.13899 19.3703 2.16535 19.6942C2.22185 20.3044 2.83574 20.6923 3.40821 20.907C4.60586 21.3589 5.89768 21.4794 7.17066 21.5698C8.35325 21.6527 9.53961 21.7167 10.726 21.7544C11.0461 21.7657 11.37 21.7732 11.6713 21.6715C11.9312 21.5849 12.1571 21.4192 12.3793 21.2535C14.0817 19.9993 15.7388 18.6887 17.3507 17.3253Z" fill="#EAB071"/>
<path d="M7.5812 18.0974C7.53224 18.0898 7.47951 18.0785 7.43055 18.071C9.04249 16.8846 10.6582 15.6983 12.2701 14.5082C12.6392 14.237 13.0422 13.9093 13.0874 13.4498C13.1288 13.0205 12.8351 12.6288 12.4924 12.3689C11.9199 11.9321 11.2646 11.5441 10.3908 11.4274C10.3192 11.45 10.2552 11.4914 10.2289 11.5592C10.1912 11.6571 10.2439 11.7739 10.323 11.8454C10.4021 11.917 10.5038 11.9622 10.5942 12.0187C11.0047 12.2823 11.1516 12.8397 11.0499 13.3143C10.9482 13.7926 10.6431 14.1993 10.3117 14.5571C9.58106 15.3405 8.6734 15.9581 7.69795 16.4026C6.98237 16.7302 6.19147 16.9939 5.68679 17.5964C5.61523 17.6831 5.54744 17.7885 5.57381 17.8977C5.61523 18.0597 5.82991 18.0936 5.99939 18.0898C6.31199 18.0861 6.62081 18.0823 6.93341 18.0785C7.12172 18.0823 7.37406 18.12 7.5812 18.0974Z" fill="#EAB071"/>
<path d="M27.6739 8.33909C28.4422 7.85702 29.1126 7.18663 29.4817 6.35806C29.1729 7.35611 28.8678 8.35039 28.559 9.34844C28.5025 9.52922 28.4272 9.73636 28.2464 9.80415C28.1033 9.85688 27.9451 9.80039 27.802 9.75896C27.5233 9.67987 27.2295 9.64974 26.9395 9.62337C26.5365 9.58571 26.1298 9.54428 25.7268 9.50662C25.3539 9.46896 25.3351 9.37857 25.6816 9.22039C26.3557 8.91532 27.0412 8.73831 27.6739 8.33909Z" fill="#BF8C62"/>
<path d="M19.038 11.386C17.6068 12.3275 16.2962 13.8679 16.5523 15.5589C16.7443 16.8206 17.8215 17.8337 19.0493 18.1802C20.277 18.5267 21.6141 18.2857 22.774 17.7546C23.934 17.2236 24.9472 16.4252 25.9301 15.6117C27.6061 14.2219 29.2369 12.7757 30.8074 11.2692C31.0748 11.0131 31.3648 10.6478 31.2104 10.3088C30.5287 10.4181 30.024 9.71001 29.4064 9.39364C29.0674 9.2204 28.6832 9.16767 28.3066 9.13378C25.1581 8.85508 21.6931 9.64221 19.038 11.386Z" fill="#F9BA7A"/>
<path d="M31.2066 10.2862C30.7885 10.354 30.442 10.1168 30.0918 9.84937C29.0033 10.3653 28.0655 11.1562 27.075 11.8455C26.1448 12.4933 25.158 13.0619 24.1298 13.5403C22.3032 14.3914 20.341 14.9714 18.3374 15.2313C17.8817 15.2916 17.4109 15.3706 16.974 15.1974C16.7932 15.1258 16.6652 15.0091 16.5221 14.9451C16.5108 15.1371 16.5183 15.3367 16.5484 15.5326C16.7405 16.7943 17.8177 17.8074 19.0454 18.1539C20.2732 18.5004 21.6102 18.2593 22.7702 17.7283C23.9302 17.1973 24.9433 16.3988 25.9263 15.5853C27.6023 14.1956 29.2331 12.7494 30.8036 11.2429C31.0747 10.9905 31.3647 10.6214 31.2066 10.2862Z" fill="#EAB071"/>
<path d="M18.8157 4.20002C18.7065 4.29794 18.6011 4.40716 18.5446 4.54275C18.4881 4.67833 18.4918 4.84781 18.586 4.95703C18.6463 5.02859 18.7404 5.07002 18.8308 5.09638C19.3468 5.25833 19.9042 5.14534 20.4427 5.08508C21.5613 4.95703 22.7288 5.07002 23.7344 5.57469C24.0809 5.74794 24.401 5.96638 24.7588 6.11703C25.3388 6.36183 26.0205 6.41079 26.6005 6.15846C27.1805 5.90989 27.6325 5.33742 27.6588 4.70846C27.6626 4.62184 27.6588 4.53145 27.6212 4.45236C27.5571 4.31678 27.4065 4.24145 27.2558 4.22262C27.1052 4.20756 26.9583 4.24145 26.8114 4.27535C25.9979 4.46742 25.1731 4.65574 24.3408 4.60301C23.7947 4.56535 23.2599 4.426 22.7288 4.29041C22.307 4.18119 21.8852 4.06821 21.4634 3.95899C21.0943 3.86106 20.7252 3.76691 20.3486 3.72548C19.6707 3.65769 19.3166 3.74054 18.8157 4.20002Z" fill="#F9BA7A"/>
<path d="M6.28552 13.2653C6.32695 13.4273 6.48513 13.5365 6.64708 13.5666C6.80903 13.6005 6.97851 13.5704 7.14045 13.5403C8.02928 13.3821 8.92188 13.2201 9.77681 12.9339C10.0819 12.8284 10.3982 12.7004 10.6091 12.4556C10.8201 12.2108 10.8916 11.8153 10.6882 11.563C10.5188 11.3521 10.225 11.3031 9.95382 11.2843C9.13655 11.2316 8.1498 11.322 7.41539 11.7174C7.19318 11.8379 7.05383 12.0225 6.89188 12.2108C6.67721 12.4631 6.19137 12.8849 6.28552 13.2653Z" fill="#F9BA7A"/>
<path opacity="0.37" d="M30.1069 9.53678C30.137 9.60457 30.2161 9.63847 30.2914 9.63847C30.3667 9.63847 30.4345 9.60457 30.5023 9.57821C30.7095 9.48782 30.9128 9.39743 31.12 9.30328C31.4815 9.14509 31.8431 8.98315 32.1821 8.77977C32.3628 8.67055 32.5399 8.53873 32.6227 8.34666C32.634 8.31653 32.6415 8.28263 32.6265 8.26003C32.5926 8.21484 32.5248 8.2525 32.4834 8.29016C32.3553 8.41068 32.2235 8.5312 32.0728 8.62159C31.8356 8.75717 29.9487 9.17146 30.1069 9.53678Z" fill="white"/>
<path opacity="0.37" d="M33.214 7.0134C33.1952 7.10379 33.2705 7.18665 33.2743 7.27704C33.278 7.3486 33.2404 7.41262 33.2178 7.48041C33.1952 7.54821 33.199 7.63483 33.263 7.67249C33.2969 7.69509 33.3421 7.69132 33.3835 7.68002C33.5643 7.63106 33.6848 7.43522 33.6735 7.24691C33.6697 7.17158 33.6471 7.09626 33.5982 7.03977C33.5304 6.94938 33.2554 6.82509 33.214 7.0134Z" fill="white"/>
<path opacity="0.29" d="M9.42658 5.08132C9.39268 5.13782 9.36632 5.20184 9.37385 5.26587C9.38515 5.41275 9.55086 5.49937 9.69398 5.50691C9.84086 5.51444 9.98775 5.46924 10.1309 5.48431C10.3719 5.50691 10.5753 5.68015 10.8088 5.75171C11.1327 5.8534 11.4792 5.74794 11.7993 5.63119C13.3058 5.06626 14.6993 4.09834 16.2999 3.95899C16.4129 3.94769 16.5297 3.94016 16.6201 3.87237C16.7104 3.80458 16.7406 3.65016 16.6502 3.58613C16.5937 3.54471 16.5146 3.55224 16.4468 3.56354C15.1663 3.75938 13.8895 3.96276 12.6128 4.17743C11.9801 4.28289 11.3473 4.39211 10.7146 4.50133C10.2514 4.58042 9.69022 4.61808 9.42658 5.08132Z" fill="white"/>
<path opacity="0.29" d="M17.7273 13.48C17.6897 13.6306 17.6746 13.7963 17.7386 13.9395C17.8328 14.1541 18.0851 14.2596 18.3186 14.2445C18.5521 14.2295 18.763 14.1089 18.9513 13.9734C19.9795 13.2352 20.552 11.9396 21.6781 11.3596C22.0622 11.1638 22.533 11.0244 22.7138 10.6327C22.469 10.4934 22.1639 10.5725 21.9003 10.6591C20.5557 11.1035 18.1115 11.8869 17.7273 13.48Z" fill="white"/>
<path opacity="0.29" d="M24.3107 10.3729C24.7814 10.2222 25.2974 10.3088 25.7832 10.2109C25.8849 10.1921 25.9904 10.1582 26.0619 10.0829C26.1335 10.0075 26.1523 9.87571 26.077 9.80416C26.0431 9.77026 25.9942 9.75519 25.9452 9.7439C25.7757 9.70623 25.5987 9.71377 25.4255 9.7213C24.8831 9.7439 23.742 9.66857 23.3201 10.0979C23.1582 10.2636 23.1243 10.5386 23.3653 10.6516C23.6139 10.7683 24.0809 10.4444 24.3107 10.3729Z" fill="white"/>
<path opacity="0.29" d="M2.97501 18.3497C2.91852 18.3987 2.85826 18.4589 2.85449 18.538C2.85449 18.6284 2.93735 18.6924 3.01644 18.7339C3.2989 18.8695 3.65293 18.8469 3.91656 18.6736C4.32708 18.4024 4.4476 17.8676 4.66228 17.427C4.91838 16.8997 5.33266 16.4741 5.69799 16.0147C6.06331 15.5552 6.3872 15.0241 6.40603 14.4404C6.00305 14.4517 5.76954 14.8848 5.58877 15.2464C4.97111 16.4666 3.98812 17.4458 2.97501 18.3497Z" fill="white"/>
</svg>
