<svg width="368" height="453" viewBox="0 0 368 453" fill="none" xmlns="http://www.w3.org/2000/svg">
<path d="M33.3547 329.35C34.4901 327.869 36.2502 327 38.1166 327H329.883C331.75 327 333.51 327.868 334.645 329.35L354.576 355.35C357.602 359.297 354.787 365 349.814 365H18.186C13.2126 365 10.3984 359.297 13.4241 355.35L33.3547 329.35Z" fill="#4AA5F8" stroke="black" stroke-width="2"/>
<path d="M26.1843 365.385L1.32734 452H366.658L340.827 365.385H26.1843Z" fill="#4AA5F8" stroke="black" stroke-width="2"/>
<path d="M184 122.565L221.957 110L269.827 343.277L231.869 343.277L184 122.565Z" fill="#61B2F6"/>
<path d="M144.857 110L182.814 122.565L134.945 343.277L96.9878 343.277L144.857 110Z" fill="#61B2F6"/>
<g filter="url(#filter0_i_15_952)">
<path d="M154.431 114.824L160.646 116.914L112.777 341.092L105.5 347.5L154.431 114.824Z" fill="#2D69C1"/>
</g>
<g filter="url(#filter1_i_15_952)">
<path d="M196 121.843L202.518 121.227L246.736 339.093L242 345.5L196 121.843Z" fill="#2D69C1"/>
</g>
<g filter="url(#filter2_i_15_952)">
<path d="M167.431 114.824L173.646 116.914L125.777 341.092L118.5 348L167.431 114.824Z" fill="#2D69C1"/>
</g>
<g filter="url(#filter3_i_15_952)">
<path d="M207.903 116.615L214.421 116L260.064 340.887L255 346L207.903 116.615Z" fill="#2D69C1"/>
</g>
<rect x="107.137" y="34" width="6.5" height="209.577" transform="rotate(-45 107.137 34)" fill="#61B2F6" stroke="black" stroke-width="1.5"/>
<rect x="179.827" y="0.75" width="6.5" height="209.577" fill="#61B2F6" stroke="black" stroke-width="1.5"/>
<rect x="255.077" y="29.0607" width="6.5" height="209.577" transform="rotate(45 255.077 29.0607)" fill="#61B2F6" stroke="black" stroke-width="1.5"/>
<rect x="288.327" y="101.75" width="6.5" height="209.577" transform="rotate(90 288.327 101.75)" fill="#61B2F6" stroke="black" stroke-width="1.5"/>
<mask id="path-13-inside-1_15_952" fill="white">
<path d="M254 106C254 144.66 222.66 176 184 176C145.34 176 114 144.66 114 106C114 67.3401 145.34 36 184 36C222.66 36 254 67.3401 254 106ZM125.652 106C125.652 138.225 151.775 164.348 184 164.348C216.225 164.348 242.348 138.225 242.348 106C242.348 73.7751 216.225 47.6517 184 47.6517C151.775 47.6517 125.652 73.7751 125.652 106Z"/>
</mask>
<path d="M254 106C254 144.66 222.66 176 184 176C145.34 176 114 144.66 114 106C114 67.3401 145.34 36 184 36C222.66 36 254 67.3401 254 106ZM125.652 106C125.652 138.225 151.775 164.348 184 164.348C216.225 164.348 242.348 138.225 242.348 106C242.348 73.7751 216.225 47.6517 184 47.6517C151.775 47.6517 125.652 73.7751 125.652 106Z" fill="#6AAFF2" stroke="black" stroke-width="3" mask="url(#path-13-inside-1_15_952)"/>
<circle cx="120" cy="105" r="3.5" fill="url(#paint0_radial_15_952)" stroke="black"/>
<circle cx="248" cy="105" r="3.5" fill="url(#paint1_radial_15_952)" stroke="black"/>
<circle cx="183" cy="42" r="3.5" fill="url(#paint2_radial_15_952)" stroke="black"/>
<circle cx="183" cy="170" r="3.5" fill="url(#paint3_radial_15_952)" stroke="black"/>
<circle cx="137" cy="150" r="3.5" fill="url(#paint4_radial_15_952)" stroke="black"/>
<circle cx="228" cy="59" r="3.5" fill="url(#paint5_radial_15_952)" stroke="black"/>
<circle cx="139" cy="60" r="3.5" fill="url(#paint6_radial_15_952)" stroke="black"/>
<circle cx="228" cy="153" r="3.5" fill="url(#paint7_radial_15_952)" stroke="black"/>
<rect x="86.5" y="339.5" width="59" height="9" rx="4.5" fill="#61B2F6" stroke="black"/>
<rect x="220.5" y="339.5" width="59" height="9" rx="4.5" fill="#61B2F6" stroke="black"/>
<circle cx="183.5" cy="105.5" r="51.5" fill="#EC6150"/>
<circle cx="183.5" cy="105.5" r="39.927" stroke="white" stroke-width="3" stroke-linecap="round" stroke-dasharray="1 8"/>
<path d="M91.6991 385.171C94.1054 385.171 95.5546 384.002 95.5546 382.163V382.156C95.5546 380.618 94.6591 379.784 92.6083 379.36L91.5419 379.142C90.3525 378.896 89.8124 378.485 89.8124 377.788V377.781C89.8124 376.995 90.5302 376.455 91.6855 376.448C92.7929 376.448 93.5517 376.961 93.6679 377.822L93.6816 377.904H95.37L95.3632 377.788C95.2607 376.1 93.8525 374.965 91.6991 374.965C89.5732 374.965 88.0488 376.141 88.0419 377.877V377.884C88.0419 379.354 88.9989 380.256 90.9404 380.659L91.9999 380.878C93.2714 381.145 93.7841 381.541 93.7841 382.279V382.286C93.7841 383.134 93.0048 383.688 91.7607 383.688C90.5234 383.688 89.6552 383.161 89.5253 382.313L89.5116 382.231H87.8232L87.83 382.334C87.9462 384.104 89.4364 385.171 91.6991 385.171ZM99.2314 385.144C99.5732 385.144 99.874 385.109 100.072 385.082V383.804C99.956 383.811 99.8261 383.831 99.6621 383.831C99.04 383.831 98.7255 383.605 98.7255 382.895V379.066H100.072V377.754H98.7255V375.915H96.9961V377.754H95.9707V379.066H96.9961V383.038C96.9961 384.528 97.7138 385.144 99.2314 385.144ZM104.125 385.144C106.019 385.144 107.085 384.022 107.311 382.908L107.331 382.833H105.738L105.725 382.881C105.561 383.366 105.007 383.817 104.159 383.817C103.052 383.817 102.354 383.065 102.327 381.794H107.399V381.247C107.399 379.06 106.114 377.604 104.043 377.604C101.972 377.604 100.639 379.107 100.639 381.391V381.397C100.639 383.701 101.951 385.144 104.125 385.144ZM104.063 378.937C104.966 378.937 105.622 379.511 105.745 380.659H102.348C102.484 379.545 103.161 378.937 104.063 378.937ZM108.335 387.393H110.037V383.776H110.071C110.481 384.624 111.309 385.144 112.341 385.144C114.159 385.144 115.321 383.708 115.321 381.384V381.377C115.321 379.039 114.159 377.604 112.32 377.604C111.281 377.604 110.488 378.137 110.071 379.005H110.037V377.754H108.335V387.393ZM111.814 383.708C110.762 383.708 110.023 382.799 110.023 381.384V381.377C110.023 379.955 110.762 379.039 111.814 379.039C112.901 379.039 113.585 379.928 113.585 381.377V381.384C113.585 382.812 112.901 383.708 111.814 383.708ZM122.525 385.171C124.931 385.171 126.38 384.002 126.38 382.163V382.156C126.38 380.618 125.484 379.784 123.434 379.36L122.367 379.142C121.178 378.896 120.638 378.485 120.638 377.788V377.781C120.638 376.995 121.356 376.455 122.511 376.448C123.618 376.448 124.377 376.961 124.493 377.822L124.507 377.904H126.195L126.189 377.788C126.086 376.1 124.678 374.965 122.525 374.965C120.399 374.965 118.874 376.141 118.867 377.877V377.884C118.867 379.354 119.824 380.256 121.766 380.659L122.825 380.878C124.097 381.145 124.609 381.541 124.609 382.279V382.286C124.609 383.134 123.83 383.688 122.586 383.688C121.349 383.688 120.481 383.161 120.351 382.313L120.337 382.231H118.649L118.655 382.334C118.772 384.104 120.262 385.171 122.525 385.171ZM130.549 385.144C132.443 385.144 133.509 384.022 133.735 382.908L133.755 382.833H132.162L132.149 382.881C131.985 383.366 131.431 383.817 130.583 383.817C129.476 383.817 128.778 383.065 128.751 381.794H133.823V381.247C133.823 379.06 132.538 377.604 130.467 377.604C128.396 377.604 127.063 379.107 127.063 381.391V381.397C127.063 383.701 128.375 385.144 130.549 385.144ZM130.487 378.937C131.39 378.937 132.046 379.511 132.169 380.659H128.772C128.908 379.545 129.585 378.937 130.487 378.937ZM134.807 385H136.509V375.136H134.807V385ZM140.979 385.144C142.872 385.144 143.939 384.022 144.164 382.908L144.185 382.833H142.592L142.578 382.881C142.414 383.366 141.861 383.817 141.013 383.817C139.906 383.817 139.208 383.065 139.181 381.794H144.253V381.247C144.253 379.06 142.968 377.604 140.897 377.604C138.825 377.604 137.492 379.107 137.492 381.391V381.397C137.492 383.701 138.805 385.144 140.979 385.144ZM140.917 378.937C141.82 378.937 142.476 379.511 142.599 380.659H139.201C139.338 379.545 140.015 378.937 140.917 378.937ZM148.388 385.144C150.22 385.144 151.444 383.995 151.574 382.484L151.58 382.437H149.974L149.96 382.498C149.803 383.257 149.256 383.77 148.395 383.77C147.322 383.77 146.624 382.895 146.624 381.384V381.377C146.624 379.894 147.315 378.984 148.388 378.984C149.29 378.984 149.81 379.552 149.953 380.256L149.967 380.317H151.574L151.567 380.263C151.464 378.813 150.275 377.604 148.367 377.604C146.255 377.604 144.888 379.053 144.888 381.363V381.37C144.888 383.694 146.235 385.144 148.388 385.144ZM155.127 385.144C155.469 385.144 155.77 385.109 155.968 385.082V383.804C155.852 383.811 155.722 383.831 155.558 383.831C154.936 383.831 154.621 383.605 154.621 382.895V379.066H155.968V377.754H154.621V375.915H152.892V377.754H151.867V379.066H152.892V383.038C152.892 384.528 153.61 385.144 155.127 385.144ZM159.097 385H160.943L161.777 382.45H165.448L166.282 385H168.134L164.607 375.136H162.624L159.097 385ZM163.595 376.893H163.636L165.003 381.09H162.221L163.595 376.893ZM168.851 385H170.553V380.563C170.553 379.682 171.127 379.039 171.948 379.039C172.741 379.039 173.233 379.545 173.233 380.358V385H174.887V380.522C174.887 379.647 175.448 379.039 176.268 379.039C177.102 379.039 177.567 379.552 177.567 380.447V385H179.269V380.023C179.269 378.574 178.332 377.604 176.904 377.604C175.858 377.604 174.997 378.164 174.648 379.066H174.607C174.34 378.137 173.609 377.604 172.597 377.604C171.64 377.604 170.895 378.123 170.587 378.916H170.553V377.754H168.851V385ZM183.677 385.144C185.803 385.144 187.184 383.729 187.184 381.377V381.363C187.184 379.025 185.783 377.604 183.67 377.604C181.565 377.604 180.17 379.039 180.17 381.363V381.377C180.17 383.722 181.544 385.144 183.677 385.144ZM183.684 383.77C182.597 383.77 181.907 382.901 181.907 381.377V381.363C181.907 379.859 182.611 378.984 183.67 378.984C184.75 378.984 185.448 379.853 185.448 381.363V381.377C185.448 382.895 184.757 383.77 183.684 383.77ZM190.581 385.144C191.674 385.144 192.419 384.638 192.795 383.865H192.83V385H194.532V377.754H192.83V381.951C192.83 383.004 192.208 383.708 191.23 383.708C190.259 383.708 189.781 383.127 189.781 382.102V377.754H188.079V382.437C188.079 384.118 188.988 385.144 190.581 385.144ZM195.768 385H197.47V380.796C197.47 379.75 198.092 379.039 199.07 379.039C200.041 379.039 200.519 379.62 200.519 380.652V385H202.221V380.311C202.221 378.629 201.312 377.604 199.719 377.604C198.619 377.604 197.88 378.109 197.504 378.889H197.47V377.754H195.768V385ZM206.117 385.144C206.459 385.144 206.759 385.109 206.958 385.082V383.804C206.841 383.811 206.712 383.831 206.547 383.831C205.925 383.831 205.611 383.605 205.611 382.895V379.066H206.958V377.754H205.611V375.915H203.881V377.754H202.856V379.066H203.881V383.038C203.881 384.528 204.599 385.144 206.117 385.144ZM217.859 380.133L210.784 377.576V379.107L216.389 381.008L210.784 382.915V384.412L217.859 381.855V380.133ZM226.382 385.171C228.651 385.171 230.326 383.77 230.579 381.746L230.593 381.678H228.863L228.843 381.746C228.521 382.963 227.639 383.64 226.382 383.64C224.666 383.64 223.558 382.259 223.558 380.064V380.058C223.558 377.87 224.659 376.496 226.382 376.496C227.667 376.496 228.535 377.2 228.822 378.328L228.856 378.458H230.586L230.579 378.39C230.319 376.38 228.651 374.965 226.382 374.965C223.552 374.965 221.754 376.906 221.754 380.058V380.064C221.754 383.216 223.545 385.171 226.382 385.171ZM231.644 385H233.346V375.136H231.644V385ZM235.533 376.715C236.066 376.715 236.476 376.291 236.476 375.785C236.476 375.266 236.066 374.849 235.533 374.849C235 374.849 234.583 375.266 234.583 375.785C234.583 376.291 235 376.715 235.533 376.715ZM234.679 385H236.381V377.754H234.679V385ZM240.864 385.144C242.696 385.144 243.92 383.995 244.05 382.484L244.057 382.437H242.45L242.436 382.498C242.279 383.257 241.732 383.77 240.871 383.77C239.798 383.77 239.1 382.895 239.1 381.384V381.377C239.1 379.894 239.791 378.984 240.864 378.984C241.766 378.984 242.286 379.552 242.43 380.256L242.443 380.317H244.05L244.043 380.263C243.94 378.813 242.751 377.604 240.844 377.604C238.731 377.604 237.364 379.053 237.364 381.363V381.37C237.364 383.694 238.711 385.144 240.864 385.144ZM244.985 385H246.687V382.484L247.262 381.883L249.552 385H251.514L248.526 380.871L251.397 377.754H249.429L246.722 380.762H246.687V375.136H244.985V385ZM254.813 385H258.949C261.055 385 262.333 383.934 262.333 382.211V382.197C262.333 380.898 261.39 379.928 260.002 379.805V379.771C261.062 379.627 261.861 378.677 261.861 377.617V377.604C261.861 376.106 260.706 375.136 258.908 375.136H254.813V385ZM258.464 376.51C259.51 376.51 260.118 376.988 260.118 377.843V377.856C260.118 378.786 259.435 379.306 258.163 379.306H256.577V376.51H258.464ZM258.443 380.584C259.824 380.584 260.535 381.104 260.535 382.095V382.108C260.535 383.1 259.838 383.626 258.546 383.626H256.577V380.584H258.443ZM263.426 385H269.811V383.517H265.189V380.707H269.558V379.278H265.189V376.619H269.811V375.136H263.426V385ZM273.59 385H275.347V376.619H278.293V375.136H270.637V376.619H273.59V385Z" fill="black"/>
<mask id="path-27-inside-2_15_952" fill="white">
<path d="M210 98C210 94.4543 209.302 90.9433 207.945 87.6675C206.588 84.3918 204.599 81.4153 202.092 78.9081C199.585 76.4009 196.608 74.4121 193.332 73.0553C190.057 71.6984 186.546 71 183 71C179.454 71 175.943 71.6984 172.668 73.0553C169.392 74.4121 166.415 76.4009 163.908 78.9081C161.401 81.4153 159.412 84.3918 158.055 87.6675C156.698 90.9433 156 94.4543 156 98L183 98H210Z"/>
</mask>
<path d="M210 98C210 94.4543 209.302 90.9433 207.945 87.6675C206.588 84.3918 204.599 81.4153 202.092 78.9081C199.585 76.4009 196.608 74.4121 193.332 73.0553C190.057 71.6984 186.546 71 183 71C179.454 71 175.943 71.6984 172.668 73.0553C169.392 74.4121 166.415 76.4009 163.908 78.9081C161.401 81.4153 159.412 84.3918 158.055 87.6675C156.698 90.9433 156 94.4543 156 98L183 98H210Z" fill="#FBD87E" stroke="black" stroke-width="2" mask="url(#path-27-inside-2_15_952)"/>
<mask id="mask0_15_952" style="mask-type:alpha" maskUnits="userSpaceOnUse" x="156" y="31" width="58" height="67">
<rect x="156" y="31" width="58" height="66.2857" fill="#D9D9D9"/>
</mask>
<g mask="url(#mask0_15_952)">
<path d="M200.188 92.624C200.188 92.624 199.075 89.8556 196.153 89.6367C193.232 89.4154 198.806 80.8419 198.806 80.8419L200.805 86.7341V89.4954" fill="#FBA329"/>
<g opacity="0.2">
<path d="M200.188 92.624C200.188 92.624 199.075 89.8556 196.153 89.6367C193.232 89.4154 198.806 80.8419 198.806 80.8419L200.805 86.7341V89.4954" fill="#3B0372"/>
</g>
<path d="M200.188 93.0124C200.035 93.0124 199.889 92.9206 199.828 92.77C199.786 92.6664 198.762 90.2229 196.123 90.0228C195.506 89.9757 195.214 89.6391 195.077 89.3636C194.647 88.4926 195.092 86.7907 196.438 84.1659C197.392 82.3062 198.47 80.6442 198.481 80.6277C198.562 80.5029 198.707 80.4347 198.856 80.4535C199.004 80.4723 199.129 80.5736 199.176 80.7148L201.175 86.607C201.189 86.6471 201.196 86.6894 201.196 86.7318V89.4931C201.196 89.7073 201.022 89.8815 200.807 89.8815C200.593 89.8815 200.419 89.7073 200.419 89.4931V86.7977L198.7 81.7365C197.147 84.2506 195.252 87.963 195.777 89.02C195.826 89.1212 195.913 89.2271 196.184 89.2483C199.312 89.4837 200.501 92.358 200.551 92.4804C200.631 92.6805 200.534 92.9065 200.334 92.9866C200.287 93.003 200.238 93.0124 200.188 93.0124Z" fill="#00046A"/>
<path d="M198.821 84.1376C198.778 85.1899 198.651 86.3552 198.371 87.5039C198.371 87.5039 198.371 87.5039 198.371 87.5063C198.103 88.6127 197.688 89.7026 197.071 90.6607C197.071 90.6607 198.47 95.9974 195.956 100.585C196.695 100.934 197.283 101.431 197.601 101.974C198.766 103.959 196.309 106.539 184.223 104.599C182.585 107.455 167.617 107.664 170.287 101.047C170.287 101.047 167.022 95.7102 168.611 90.7055C168.856 89.9357 168.957 89.0058 168.999 87.9795C169.239 82.3368 167.756 73.7256 178.9 72.0707C192.071 70.1121 194.574 66.5786 198.628 80.1851C198.628 80.1851 198.91 81.9107 198.821 84.1376Z" fill="#FBD87E"/>
<path d="M186.313 77.0072C186.313 77.0072 189.779 71.6752 194.11 73.9445L192.234 71.501C192.234 71.501 186.626 73.9328 184.673 74.0575" fill="#C1982E"/>
<path d="M198.835 84.4177C198.823 84.479 198.811 84.5378 198.795 84.5967C198.385 86.3128 198.126 87.7464 197.782 88.9305C197.392 90.2888 196.888 91.3199 195.923 92.0755C195.631 92.3039 195.296 92.5369 194.943 92.7629C193.119 93.9352 190.772 94.9804 190.772 94.9804C188.197 94.5897 186.674 92.6429 186.007 90.1146C184.143 83.0147 189.051 71.3103 196.441 76.4775C196.441 76.4728 199.571 80.7689 198.835 84.4177Z" fill="#F9D9C2"/>
<path d="M198.821 84.1376C198.606 80.9855 196.827 78.4737 196.768 78.3913C200.805 90.0463 187.839 95.2723 184.976 88.5491L176.285 86.1809C176.285 86.1809 174.101 85.7031 172.107 86.2492C171.127 86.5176 169.946 87.1767 168.999 87.9794C168.957 89.0058 168.856 89.9333 168.611 90.7055C167.024 95.7102 170.287 101.047 170.287 101.047C167.617 107.664 182.587 107.452 184.223 104.599C196.309 106.539 198.766 103.956 197.601 101.974C196.909 104.423 191.257 103.848 188.985 103.166C186.714 102.483 186.737 101.092 186.737 101.092C185.767 96.4823 190.685 95.4018 192.545 94.3237C194.404 93.2455 196.704 92.0944 198.369 87.5039C198.369 87.5039 198.369 87.5039 198.369 87.5016C198.785 86.3528 198.894 85.2087 198.821 84.1376ZM184.143 102.65C185.188 104.187 178.001 106.668 174.981 104.067C171.961 101.464 176.172 101.398 175.864 97.8924C175.555 94.3849 177.231 94.4084 177.231 94.4084C177.231 94.4084 179.943 92.6217 182.792 90.8349C185.643 89.0482 185.61 92.9889 185.61 92.9889C186.262 96.9626 185.341 99.7145 183.046 101.398L184.143 102.65Z" fill="#C1982E"/>
<path d="M198.835 84.4177C198.832 84.3236 198.828 84.2318 198.82 84.1376C198.606 80.9855 196.827 78.4737 196.768 78.3913C200.431 88.9682 190.092 94.2507 186.007 90.1122C186.671 92.6405 188.197 94.5873 190.772 94.9781C190.772 94.9781 193.119 93.9329 194.943 92.7606C195.93 91.9437 196.916 90.7949 197.782 88.9281C197.985 88.495 198.18 88.0218 198.369 87.5039C198.369 87.5039 198.369 87.5039 198.369 87.5016C198.75 86.454 198.872 85.4065 198.835 84.4177Z" fill="#F7B690"/>
<path d="M177.712 106.88C175.628 106.88 173.503 106.539 171.984 105.8C169.87 104.773 169.119 103.102 169.854 101.08C169.301 100.11 166.753 95.2606 168.237 90.5831C168.625 89.3566 168.634 87.6358 168.644 85.8161C168.658 83.0524 168.677 79.9215 169.953 77.2708C171.44 74.1776 174.348 72.3508 178.842 71.6823C181.127 71.3433 183.079 70.9572 184.802 70.6182C188.893 69.8108 191.596 69.2788 193.724 70.437C195.788 71.5599 197.267 74.2623 198.999 80.0722C199.004 80.0886 199.009 80.1028 199.011 80.1192C199.056 80.3852 200.038 86.5882 197.486 90.7267C197.702 91.6659 198.585 96.2399 196.481 100.418C197.801 101.169 198.489 102.344 198.173 103.368C197.458 105.682 192.443 106.282 184.404 105.018C183.441 106.214 180.619 106.88 177.712 106.88ZM190.718 70.5476C189.188 70.5476 187.311 70.9172 184.953 71.3833C183.222 71.7246 181.262 72.1107 178.957 72.4544C174.738 73.0806 172.022 74.7684 170.654 77.6098C169.454 80.1028 169.437 83.1419 169.423 85.8231C169.414 87.7064 169.404 89.4837 168.978 90.8232C167.462 95.6043 170.584 100.793 170.614 100.844C170.678 100.95 170.689 101.08 170.642 101.193C169.95 102.909 170.515 104.225 172.321 105.103C173.969 105.903 176.516 106.254 179.129 106.04C181.523 105.844 183.432 105.188 183.882 104.404C183.962 104.263 184.122 104.187 184.282 104.213C193.291 105.658 196.994 104.538 197.427 103.14C197.651 102.417 196.961 101.489 195.786 100.936C195.69 100.892 195.614 100.807 195.581 100.706C195.548 100.604 195.558 100.491 195.61 100.397C198.018 96.0045 196.702 90.8114 196.69 90.7596C196.662 90.6537 196.681 90.543 196.74 90.4512C199.167 86.6824 198.31 80.6936 198.244 80.2723C196.582 74.7002 195.209 72.1342 193.35 71.122C192.601 70.7124 191.735 70.5476 190.718 70.5476Z" fill="#00046A"/>
<path d="M203.131 73.6927L203.343 71.0326C201.184 70.2628 201.883 66.5834 202.222 65.2274C202.286 64.9732 202.516 64.799 202.773 64.799C202.803 64.799 202.834 64.8014 202.862 64.8061C203.183 64.8579 203.394 65.1662 203.328 65.484C202.971 67.2096 203.107 68.4972 203.78 69.0575L204.4 65.3781C204.442 65.1215 204.663 64.9379 204.92 64.9379C204.932 64.9379 204.946 64.9379 204.96 64.9379C205.254 64.9591 205.473 65.218 205.445 65.5123L205.103 69.2223C205.558 69.2623 205.97 68.9516 206.052 68.5019C206.2 67.6757 206.273 66.6375 206.306 65.9666C206.32 65.6441 206.589 65.3993 206.9 65.3993C206.937 65.3993 206.977 65.4016 207.015 65.4111C207.281 65.4628 207.479 65.6888 207.495 65.9572C207.535 66.6234 207.554 67.9558 207.234 69.533C206.838 71.4869 204.929 71.3974 204.929 71.3974L204.764 73.6291" fill="#C1C5D1"/>
<path d="M205.673 81.6494C205.581 81.6824 205.49 81.713 205.393 81.7412C205.393 81.7412 203.696 85.1052 201.257 84.5308C198.821 83.9587 198.051 77.1272 198.051 77.1272L199.258 75.7831L200.628 74.2576C200.628 74.2576 202.017 72.2708 203.406 73.9916C207.406 71.8565 210.873 79.825 205.673 81.6494Z" fill="#FBD87E"/>
<path d="M207.95 77.7369C207.95 77.7369 207.839 78.615 206.043 79.027C206.043 79.027 204.145 79.5967 205.671 81.647C205.579 81.68 205.487 81.7106 205.391 81.7389C205.391 81.7389 203.693 85.1028 201.255 84.5284C198.818 83.9564 198.048 77.1249 198.048 77.1249L199.256 75.7807L200.207 76.0538C200.207 76.0538 199.873 80.051 203.173 81.0232C203.173 81.0232 203.595 81.0067 203.992 80.6419C204.03 80.6089 204.065 80.5712 204.101 80.5312C204.4 80.1969 204.659 79.639 204.675 78.6998C204.675 78.6998 202.505 77.066 202.629 75.6654L203.171 74.22C203.176 74.22 202.9 77.857 207.95 77.7369Z" fill="#C1982E"/>
<path d="M201.827 84.9851C201.615 84.9851 201.394 84.9616 201.168 84.9074C198.54 84.2883 197.745 77.897 197.665 77.1696C197.653 77.059 197.688 76.9483 197.761 76.8659L200.325 74.0105C200.44 73.8527 201.156 72.9323 202.13 72.8993C202.627 72.8805 203.086 73.0877 203.503 73.5114C204.574 73.0476 205.687 73.1771 206.669 73.888C208.114 74.9332 208.936 77.0119 208.62 78.8269C208.35 80.3923 207.3 81.5388 205.659 82.0661C205.313 82.6875 203.891 84.9851 201.827 84.9851ZM198.458 77.2544C198.7 79.1917 199.621 83.7445 201.346 84.1494C203.453 84.6461 205.028 81.5929 205.045 81.5623C205.094 81.4658 205.179 81.3952 205.282 81.3645C207.116 80.8302 207.693 79.6155 207.853 78.6903C208.114 77.1767 207.408 75.3805 206.212 74.5142C205.638 74.0976 204.717 73.7303 203.59 74.3283C203.425 74.4154 203.22 74.3753 203.105 74.2294C202.799 73.8504 202.481 73.6644 202.161 73.6738C201.62 73.6903 201.102 74.2576 200.949 74.4766C200.939 74.4883 200.93 74.5025 200.92 74.5119L198.458 77.2544Z" fill="#00046A"/>
<path d="M192.509 71.5764C197.469 78.1913 200.313 85.1593 200.188 92.6217C202.34 89.1942 202.526 84.5072 199.115 77.5157L200.407 75.5524C200.407 75.5524 200.209 75.0486 200.628 74.2529L198.291 72.0684C198.291 72.0684 197.545 69.2105 194.586 69.752C191.629 70.2957 192.509 71.5764 192.509 71.5764Z" fill="#FEDA24"/>
<g opacity="0.2">
<path d="M195.426 69.8414C195.426 69.8414 194.119 71.6376 198.053 73.8339C198.053 73.8339 198.482 75.7854 199.925 76.1503L198.929 77.1272C196.973 74.4907 195.005 71.7129 193.253 71.2986" fill="#3B0372"/>
</g>
<path d="M200.188 93.0125C200.151 93.0125 200.115 93.0078 200.078 92.996C199.911 92.9466 199.798 92.7912 199.8 92.617C199.915 85.5948 197.429 78.7892 192.199 71.8118C192.196 71.807 192.192 71.8023 192.189 71.7976C192.154 71.7458 191.848 71.275 192.088 70.7006C192.352 70.065 193.168 69.6178 194.517 69.3706C197.053 68.9068 198.296 70.7336 198.637 71.8588L200.895 73.9704C201.022 74.0905 201.055 74.2812 200.972 74.4365C200.654 75.0415 200.767 75.4064 200.772 75.4205C200.819 75.5382 200.8 75.663 200.732 75.7666L199.56 77.5439C202.639 83.9446 202.952 88.947 200.516 92.8288C200.445 92.9466 200.32 93.0125 200.188 93.0125ZM192.827 71.3551C197.775 77.9582 200.315 84.4248 200.56 91.0727C202.043 87.5887 201.45 83.189 198.764 77.6875C198.703 77.5627 198.712 77.4168 198.788 77.3038L199.988 75.4794C199.953 75.2487 199.946 74.8532 200.153 74.3471L198.023 72.3555C197.968 72.3061 197.931 72.2402 197.912 72.1696C197.886 72.0683 197.213 69.6696 194.654 70.138C193.194 70.4064 192.872 70.8301 192.801 70.9996C192.731 71.1762 192.815 71.3315 192.827 71.3551Z" fill="#00046A"/>
<path d="M195.572 72.6074C196.739 73.6173 197.794 74.7379 198.679 76.0044C198.971 76.4328 199.237 76.8824 199.473 77.3579C199.567 77.551 199.489 77.784 199.296 77.8782C199.094 77.9794 198.844 77.8829 198.762 77.6734C198.187 76.3198 197.286 75.1145 196.311 74.0152C195.979 73.6432 195.631 73.2783 195.275 72.937C195.07 72.7416 195.351 72.4262 195.572 72.6074Z" fill="#00046A"/>
<path d="M198.679 72.0472C198.651 72.8687 198.498 73.6715 198.248 74.4507C198.168 74.7073 198.067 74.9568 197.961 75.2016C197.926 75.2864 197.827 75.3264 197.742 75.2887C197.665 75.2558 197.625 75.171 197.646 75.0933C197.712 74.8438 197.773 74.5943 197.815 74.3424C197.942 73.6056 197.98 72.8334 197.9 72.0919C197.853 71.541 198.665 71.4916 198.679 72.0472Z" fill="#00046A"/>
<path d="M200 73.7797C199.397 74.4765 198.863 75.2699 198.507 76.1244C198.404 76.3857 198.011 76.2539 198.086 75.9831C198.291 75.2605 198.611 74.5778 198.988 73.9304C199.115 73.7138 199.242 73.5067 199.395 73.2901C199.52 73.1135 199.762 73.0712 199.939 73.1936C200.129 73.3301 200.16 73.6079 200 73.7797Z" fill="#00046A"/>
<path d="M202.877 76.8965L202.634 79.9474C202.601 80.3711 202.893 80.7501 203.31 80.8278C203.359 80.8372 203.411 80.842 203.458 80.842C203.882 80.842 204.249 80.5147 204.282 80.0769L204.397 78.5467" fill="#C1C5D1"/>
<path d="M205.645 79.3471C204.536 79.3471 203.131 78.3302 202.505 77.0213C201.916 75.7925 202.151 74.5825 203.15 73.6974C203.31 73.5538 203.557 73.5702 203.698 73.7303C203.842 73.8904 203.825 74.1376 203.665 74.2788C202.731 75.1074 202.9 76.0444 203.206 76.6847C203.773 77.8688 205.082 78.6762 205.791 78.5585C206.003 78.5232 206.203 78.6644 206.24 78.8763C206.276 79.0882 206.135 79.2883 205.923 79.3259C205.831 79.3401 205.739 79.3471 205.645 79.3471Z" fill="#00046A"/>
<path d="M203.131 74.0269C203.121 74.0269 203.112 74.0269 203.105 74.0269C202.921 74.0128 202.785 73.8527 202.799 73.6691L202.992 71.2491C200.89 70.2369 201.518 66.6752 201.9 65.1498C202.001 64.7472 202.361 64.4671 202.773 64.4671C202.829 64.4671 202.879 64.4741 202.912 64.4788C203.159 64.5189 203.373 64.6531 203.515 64.8555C203.653 65.0579 203.705 65.3122 203.656 65.5547C203.43 66.6422 203.413 67.5368 203.597 68.1418L204.07 65.324C204.138 64.9073 204.496 64.606 204.92 64.606C204.941 64.606 204.965 64.606 204.988 64.6083C205.217 64.6248 205.426 64.7331 205.577 64.9096C205.727 65.0886 205.798 65.3122 205.777 65.5452L205.478 68.8103C205.605 68.7303 205.697 68.6008 205.725 68.4431C205.869 67.6545 205.939 66.6517 205.975 65.9501C205.996 65.4558 206.403 65.065 206.902 65.065C206.963 65.065 207.024 65.0721 207.083 65.0838C207.498 65.1662 207.806 65.517 207.832 65.9384C207.872 66.6116 207.891 67.9841 207.566 69.6013C207.255 71.1432 206.052 71.6446 205.245 71.7223L205.101 73.655C205.087 73.8386 204.929 73.9775 204.743 73.9634C204.56 73.9493 204.421 73.7892 204.435 73.6056L204.6 71.3739C204.614 71.1926 204.767 71.0561 204.948 71.0655C205.012 71.0679 206.58 71.1103 206.909 69.4695C207.22 67.9276 207.201 66.621 207.163 65.9807C207.156 65.863 207.069 65.7642 206.951 65.7406C206.935 65.7383 206.918 65.7359 206.9 65.7359C206.761 65.7359 206.645 65.8442 206.638 65.9855C206.603 66.7081 206.528 67.7392 206.379 68.5655C206.266 69.1893 205.706 69.6154 205.073 69.5589C204.986 69.5519 204.903 69.5071 204.847 69.4412C204.79 69.3729 204.762 69.2859 204.772 69.1964L205.113 65.4864C205.118 65.4346 205.101 65.3828 205.068 65.3428C205.035 65.3028 204.986 65.2792 204.934 65.2745H204.92C204.826 65.2745 204.743 65.3428 204.729 65.4346L204.11 69.114C204.091 69.2317 204.009 69.3306 203.898 69.3706C203.785 69.413 203.66 69.3918 203.569 69.3141C202.804 68.6785 202.608 67.332 203.004 65.4181C203.018 65.3522 203.004 65.2886 202.966 65.2345C202.931 65.1827 202.874 65.1474 202.811 65.138C202.801 65.1356 202.787 65.1333 202.773 65.1333C202.667 65.1333 202.573 65.2086 202.547 65.3098C202.274 66.4045 201.528 70.0321 203.456 70.7195C203.597 70.7713 203.689 70.9102 203.677 71.0608L203.465 73.7209C203.449 73.8951 203.303 74.0269 203.131 74.0269Z" fill="#00046A"/>
<path d="M203.46 81.1715C203.392 81.1715 203.321 81.1645 203.253 81.1527C202.665 81.0468 202.255 80.5147 202.302 79.9192L202.545 76.873C202.556 76.6988 202.7 76.5623 202.877 76.5623C203.06 76.5623 203.211 76.7106 203.211 76.8942C203.211 76.9036 203.211 76.9107 203.211 76.9201L202.968 79.9686C202.95 80.2228 203.121 80.4488 203.371 80.4935C203.399 80.4983 203.43 80.5006 203.46 80.5006C203.717 80.5006 203.931 80.3005 203.952 80.0439L204.068 78.5138C204.082 78.3302 204.24 78.1936 204.426 78.2054C204.609 78.2195 204.748 78.3796 204.734 78.5632L204.619 80.0934C204.571 80.7007 204.063 81.1715 203.46 81.1715Z" fill="#00046A"/>
<path d="M187.837 40.3685C187.917 38.0191 190.252 34.0454 194.181 34.1726C198.333 34.3067 201.177 37.586 200.285 41.6185C199.593 44.7494 197.057 46.2136 195.16 46.7597L187.837 40.3685Z" fill="#FBD87E"/>
<path d="M187.839 40.3685L191.349 43.4335L195.162 46.7621C197.062 46.216 199.595 44.7517 200.287 41.6208C200.4 41.1147 200.452 40.618 200.45 40.1401C200.443 36.8115 197.813 34.2926 194.181 34.1749C190.254 34.0454 187.917 38.0191 187.839 40.3685Z" fill="#FBD87E"/>
<path d="M187.646 40.3614C187.497 38.4876 188.592 36.6655 189.91 35.4132C191.328 34.0667 193.26 33.5182 195.179 33.8619C199.291 34.4951 201.728 38.2192 200.534 42.2306C199.852 44.6647 197.618 46.4373 195.212 46.9434C194.979 46.9905 194.885 46.6586 195.106 46.5762C197.25 45.8158 199.141 44.2197 199.772 42.0022C200.56 39.4998 199.703 36.835 197.415 35.4838C196.45 34.9094 195.336 34.6222 194.216 34.5798C191.605 34.4386 189.482 36.4513 188.54 38.7583C188.317 39.2786 188.138 39.8153 188.025 40.3732C187.989 40.5898 187.672 40.578 187.646 40.3614Z" fill="#00046A"/>
<path d="M190.184 41.8092C190.047 40.7216 190.548 37.7978 193.479 37.5059C195.956 37.2588 197.702 39.0996 197.175 41.8068C196.744 44.0149 194.473 44.6835 193.592 44.6905C192.104 44.6976 190.374 43.3322 190.184 41.8092Z" fill="#F9D9C2"/>
<path d="M190.184 41.8092C190.374 43.3322 192.104 44.6976 193.592 44.6882C194.141 44.6835 195.226 44.4245 196.073 43.6971C196.589 43.2546 197.015 42.6401 197.177 41.8044C197.361 40.8581 197.269 40.0201 196.961 39.3374C196.394 38.0662 195.092 37.3435 193.479 37.5036C190.548 37.7978 190.047 40.7192 190.184 41.8092Z" fill="#F9D9C2"/>
<path d="M190.184 41.8092C190.374 43.3322 192.104 44.6976 193.592 44.6882C194.141 44.6835 195.226 44.4245 196.073 43.6971C194.261 43.7724 192.053 41.1076 192.966 39.5375C194.049 37.6754 196.318 38.9301 196.961 39.3397C196.394 38.0685 195.092 37.3458 193.479 37.5059C190.548 37.7978 190.047 40.7192 190.184 41.8092Z" fill="#E0B299"/>
<path d="M193.573 45.0695C191.838 45.0695 190.012 43.5135 189.804 41.8562C189.724 41.223 189.826 39.7093 190.77 38.5252C191.422 37.7084 192.319 37.2376 193.439 37.1269C194.757 36.9951 195.918 37.3976 196.704 38.2616C197.526 39.1632 197.825 40.4485 197.547 41.8798C197.081 44.2739 194.68 45.0625 193.592 45.0719C193.587 45.0695 193.58 45.0695 193.573 45.0695ZM193.922 37.8637C193.79 37.8637 193.653 37.8708 193.517 37.8849C192.608 37.9767 191.885 38.351 191.368 39.0008C190.638 39.9141 190.487 41.1524 190.562 41.7621C190.72 43.0286 192.236 44.3068 193.573 44.3068C193.578 44.3068 193.583 44.3068 193.587 44.3068C194.437 44.2998 196.426 43.643 196.798 41.7338C197.029 40.545 196.796 39.4928 196.142 38.7748C195.603 38.1792 194.826 37.8637 193.922 37.8637Z" fill="#00046A"/>
<path d="M182.229 74.6037C174.614 75.4394 167.535 74.4836 164.115 68.5961C161.775 64.5659 160.146 52.7838 165.32 45.99C167.672 42.7696 171.134 40.6392 176.078 38.8737C178.839 37.885 179.99 37.779 181.045 34.5704C182.434 34.5681 183.966 35.7216 183.783 37.4659C187.297 36.0653 188.401 37.9038 190.259 36.0582C190.708 37.0657 190.942 38.6383 189.515 39.9236C198.851 43.0356 199.911 53.1464 200.69 57.4355C203.628 63.1605 202.448 70.6535 185.788 74.0175" fill="#FBD87E"/>
<path d="M201.306 65.3027C199.779 68.8221 195.313 72.0942 185.788 74.0175L182.229 74.6037C174.614 75.4394 167.535 74.4836 164.117 68.5961C164.115 68.5961 164.115 68.5961 164.115 68.5961C161.772 64.5659 160.143 52.7838 165.32 45.99C167.672 42.7696 171.137 40.6392 176.078 38.8737C178.839 37.885 179.988 37.779 181.045 34.5704C182.432 34.5681 183.966 35.7216 183.783 37.4659C187.297 36.0653 188.401 37.9038 190.261 36.0606C190.711 37.0681 190.944 38.6406 189.517 39.9259C198.854 43.038 199.913 53.1487 200.692 57.4355C201.949 59.8884 202.453 62.6638 201.306 65.3027Z" fill="#FBD87E"/>
<path d="M164.114 68.5961C164.421 69.1187 164.75 69.6036 165.113 70.0509C168.797 74.639 175.289 75.364 182.229 74.6037L185.788 74.0175C195.313 72.0942 199.779 68.8221 201.306 65.3027C202.453 62.6638 201.949 59.8884 200.69 57.4355C199.91 53.1487 198.851 43.038 189.515 39.9236C190.941 38.6406 190.706 37.0681 190.256 36.0606C188.399 37.9038 187.295 36.0676 183.778 37.4659C183.964 35.7216 182.429 34.5681 181.043 34.5728C179.986 37.7814 178.837 37.8873 176.075 38.876C171.132 40.6416 167.669 42.772 165.317 45.9947C160.143 52.7838 161.775 64.5659 164.114 68.5961Z" fill="#FBD87E"/>
<path d="M167.064 71.9506C170.864 74.832 176.386 75.244 182.227 74.6037L183.886 74.5001L185.786 74.0175C192.57 72.6474 196.789 70.5923 199.207 68.2524C197.667 69.0928 184.289 76.5764 167.064 71.9506Z" fill="#C1982E"/>
<path d="M182.229 74.6037C176.123 75.7642 168.46 75.3687 164.465 69.9097C163.961 69.2081 163.509 68.4596 163.185 67.6568C162.462 65.9289 162.062 64.0881 161.796 62.2425C161.224 57.8992 161.431 53.3582 163.06 49.2504C164.326 46.0771 166.676 43.3888 169.543 41.5526C171.527 40.2743 173.717 39.3186 175.927 38.5229C177.234 38.0238 178.792 37.7249 179.665 36.5761C180.139 35.9452 180.423 35.2178 180.685 34.4504C180.737 34.2903 180.887 34.1867 181.047 34.1891C182.801 34.1867 184.383 35.7098 184.164 37.506L183.644 37.1105C184.731 36.6655 185.955 36.4419 187.128 36.5172C187.709 36.5408 188.262 36.6091 188.736 36.5172C189.23 36.4254 189.637 36.1406 189.995 35.7828C190.176 35.5968 190.511 35.6604 190.609 35.9005C190.765 36.2512 190.88 36.6232 190.939 37.0092C191.153 38.2051 190.675 39.4127 189.771 40.2037L189.637 39.5587C190.525 39.8647 191.393 40.239 192.217 40.6957C198.338 44.1162 200.085 50.9241 201.066 57.3625C201.069 57.3672 201.031 57.2566 201.031 57.2566C201.563 58.2617 201.996 59.3376 202.213 60.4769C202.446 61.6186 202.453 62.8098 202.21 63.9539C201.41 67.7298 197.999 70.1968 194.668 71.6776C191.857 72.9158 188.823 73.6597 185.788 74.0128C191.019 72.3932 198.263 70.5217 200.833 65.2439C201.977 62.7415 201.525 60.0179 200.353 57.605C199.983 55.7759 199.746 53.9303 199.251 52.1318C197.902 46.7574 194.87 42.0587 189.397 40.2814C189.124 40.1966 189.051 39.82 189.263 39.6364C189.727 39.2103 190.08 38.6759 190.186 38.0544C190.294 37.4471 190.172 36.7974 189.913 36.2089L190.529 36.3242C190.313 36.5384 190.07 36.7409 189.795 36.9104C188.995 37.4306 187.985 37.3294 187.095 37.2753C185.996 37.207 184.943 37.4047 183.926 37.8143C183.67 37.925 183.373 37.6966 183.406 37.4236C183.437 37.1011 183.404 36.7809 183.298 36.4819C182.98 35.5686 181.998 34.9494 181.047 34.9471L181.41 34.6858C181.193 35.3331 180.944 35.9805 180.574 36.5926C179.826 37.9156 178.47 38.4617 177.125 38.909C174.027 39.9754 170.927 41.2701 168.373 43.3464C163.013 47.5578 161.742 54.693 162.476 61.1525C162.7 63.0993 163.098 65.0462 163.785 66.88C164.453 68.6973 165.649 70.2722 167.147 71.4798C171.367 74.7684 177.116 74.7214 182.229 74.6037Z" fill="#00046A"/>
<path d="M174.675 52.047C174.675 52.047 175.68 48.3582 177.841 48.8949C178.415 49.0385 178.853 50.0767 178.448 50.6605C177.74 51.6845 174.675 52.047 174.675 52.047Z" fill="#00046A"/>
<path d="M194.36 48.7089C194.36 48.7089 192.928 45.7734 191.351 46.8304C190.937 47.1105 190.685 47.9486 191.304 48.5112C192.118 49.2504 194.36 48.7089 194.36 48.7089Z" fill="#00046A"/>
<path d="M171.019 43.6689C170.047 41.0182 166.205 37.2541 161.188 38.9984C157.234 40.3732 154.922 45.5945 157.455 49.7871C159.242 52.7438 162.928 53.5748 165.266 53.4029" fill="#FBD87E"/>
<path d="M171.019 43.6689C169.072 39.8812 164.661 37.8026 160.678 39.6576C157.603 41.0935 156.019 45.0084 157.177 48.1911C158.316 51.6256 161.85 53.1675 165.266 53.403C162.387 53.942 159.155 52.8639 157.398 50.4604C154.439 46.4137 156.412 40.2626 161.101 38.5912C162.248 38.1933 163.491 38.0403 164.696 38.2192C167.606 38.6524 170.179 40.8699 171.019 43.6689Z" fill="#00046A"/>
<path d="M180.42 64.4731C182.172 64.1428 183.245 62.0336 182.816 59.762C182.388 57.4904 180.621 55.9166 178.869 56.2469C177.118 56.5772 176.045 58.6864 176.473 60.9581C176.902 63.2297 178.669 64.8034 180.42 64.4731Z" fill="#00046A"/>
<path d="M180.763 62.9597C181.427 62.8344 181.834 62.0337 181.671 61.1713C181.509 60.3089 180.838 59.7114 180.174 59.8366C179.51 59.9619 179.103 60.7626 179.266 61.625C179.428 62.4874 180.099 63.0849 180.763 62.9597Z" fill="white"/>
<g opacity="0.5">
<path d="M178.352 60.1202C178.629 60.0679 178.799 59.7345 178.732 59.3755C178.664 59.0164 178.384 58.7678 178.107 58.8201C177.83 58.8723 177.66 59.2058 177.728 59.5648C177.795 59.9238 178.075 60.1724 178.352 60.1202Z" fill="white"/>
</g>
<path d="M195.257 60.8772C196.808 60.5847 197.757 58.7164 197.378 56.7041C196.999 54.6919 195.434 53.2977 193.883 53.5902C192.331 53.8827 191.382 55.751 191.761 57.7633C192.141 59.7755 193.706 61.1697 195.257 60.8772Z" fill="#00046A"/>
<path d="M195.56 59.5352C196.149 59.4241 196.51 58.7158 196.366 57.953C196.222 57.1903 195.628 56.662 195.039 56.7731C194.45 56.8841 194.089 57.5925 194.233 58.3552C194.377 59.118 194.971 59.6463 195.56 59.5352Z" fill="white"/>
<g opacity="0.5">
<path d="M193.424 57.0237C193.669 56.9774 193.819 56.682 193.759 56.3639C193.699 56.0458 193.452 55.8254 193.206 55.8716C192.961 55.9179 192.811 56.2133 192.871 56.5314C192.931 56.8495 193.178 57.0699 193.424 57.0237Z" fill="white"/>
</g>
<path d="M189.722 40.2437C188.406 40.8675 186.836 40.7593 185.527 40.1825C186.186 40.3308 186.871 40.385 187.54 40.2814C188.171 40.1825 188.79 39.9754 189.305 39.6034C189.308 39.6034 189.722 40.2437 189.722 40.2437Z" fill="#00046A"/>
<path d="M193.152 62.6262C193.507 64.9779 191.405 66.4727 189.913 66.9388C186.662 67.9487 184.663 66.5269 184.263 65.0626C183.634 62.758 185.817 60.258 188.764 59.9355C190.949 59.6954 192.917 61.0678 193.152 62.6262Z" fill="#F9D9C2"/>
<path d="M160.854 48.3864C160.981 48.5842 161.12 48.7631 161.266 48.9255C162.754 50.5639 165.124 50.3262 166 49.9896C167.627 49.361 168.926 47.127 168.479 45.3827C168.159 44.1374 166.356 41.1665 163.034 42.1081C162.332 42.3059 161.735 42.6284 161.261 43.0451C161.261 43.0451 161.261 43.0451 161.259 43.0451C159.849 44.2857 159.552 46.3478 160.854 48.3864Z" fill="#F9D9C2"/>
<path d="M161.266 48.9255C162.754 50.5639 165.124 50.3262 166 49.9896C167.627 49.361 168.926 47.127 168.479 45.3827C168.159 44.1374 166.356 41.1665 163.034 42.1081C162.333 42.3059 161.735 42.6284 161.261 43.0451C163.823 42.0752 167.347 44.9754 166.064 48.1393C165.327 49.959 162.271 49.2245 161.266 48.9255Z" fill="#E0B299"/>
<path d="M164.463 50.6204C163.145 50.6204 161.532 50.1614 160.532 48.5912C159.623 47.167 159.399 45.6581 159.901 44.3422C160.381 43.0827 161.457 42.1599 162.93 41.7409C164.183 41.3854 165.348 41.5102 166.393 42.1129C167.914 42.9862 168.665 44.5729 168.849 45.2908C169.331 47.1647 168.013 49.6223 166.139 50.345C165.739 50.498 165.139 50.6204 164.463 50.6204ZM164.277 42.3106C163.91 42.3106 163.528 42.3671 163.138 42.4777C161.902 42.8285 161.005 43.5865 160.612 44.6152C160.2 45.7004 160.397 46.9669 161.172 48.184C162.422 50.1426 164.915 50.0013 165.859 49.6364C167.38 49.0503 168.493 46.9928 168.105 45.4839C167.923 44.7753 167.215 43.4711 166.01 42.7791C165.473 42.466 164.894 42.3106 164.277 42.3106Z" fill="#00046A"/>
<path d="M190.96 60.9336C191.064 61.6069 190.407 62.3178 189.887 62.7627C189.527 63.0711 189.021 63.1511 188.583 62.9652C187.952 62.6968 187.109 62.2189 187.005 61.5457C186.836 60.4557 190.791 59.8413 190.96 60.9336Z" fill="#00046A"/>
<g opacity="0.35">
<path d="M189.986 60.8441C190.005 60.9689 189.746 61.1219 189.541 61.2208C189.4 61.2891 189.214 61.3173 189.058 61.2961C188.835 61.2632 188.54 61.1973 188.521 61.0725C188.491 60.8677 189.955 60.6417 189.986 60.8441Z" fill="white"/>
</g>
<path d="M189.096 64.8131C188.314 66.348 185.753 66.0278 185.438 64.2929C185.419 64.1893 185.487 64.0881 185.591 64.0692C185.687 64.0504 185.779 64.1069 185.807 64.1987C185.913 64.5118 186.083 64.7896 186.325 64.9967C187.114 65.6417 188.343 65.5711 189.096 64.8131Z" fill="#00046A"/>
<path d="M186.266 64.0975C185.963 64.2505 185.654 64.4223 185.421 64.6742C185.379 64.7142 185.344 64.759 185.287 64.8013C185.238 64.6766 185.233 64.54 185.278 64.4153C185.391 64.0174 185.946 63.8126 186.266 64.0975Z" fill="#00046A"/>
<path d="M183.983 93.4809C183.896 94.2837 183.898 94.9734 184.023 95.6208C178.112 95.6208 167.059 92.2403 167.283 88.9611C167.283 88.9611 167.335 88.2596 167.464 87.1508C167.926 83.1795 169.352 73.9775 172.796 72.7557C177.208 71.1903 184.444 74.2976 184.444 74.2976C184.444 74.2976 187.462 76.0632 186.116 83.1419C185.136 88.3137 184.223 91.3081 183.983 93.4809Z" fill="#FEDA24"/>
<g opacity="0.2">
<path d="M184.023 95.6231C178.112 95.6231 167.059 92.2427 167.283 88.9635C167.283 88.9635 167.335 88.262 167.464 87.1532L171.285 79.0858C171.191 79.3401 165.673 94.4226 183.98 93.4856C183.896 94.2837 183.9 94.9758 184.023 95.6231Z" fill="#3B0372"/>
</g>
<g opacity="0.2">
<path d="M179.409 74.8485C179.409 74.8485 179.706 76.8895 181.989 77.0213C184.272 77.1531 184.887 77.5439 184.887 77.5439C184.887 77.5439 186.584 78.0594 186.422 80.1852C186.422 80.1852 185.115 77.7652 183.825 79.898C182.535 82.0308 182.392 82.2073 181.598 82.1249C180.805 82.0425 177.865 76.6164 173.834 75.8207L174.246 74.2529" fill="#3B0372"/>
</g>
<path d="M184.023 96.0115C181.549 96.0115 178.171 95.4348 174.986 94.472C172.975 93.8646 169.357 92.5793 167.714 90.8185C167.13 90.1923 166.855 89.559 166.897 88.9352C166.899 88.8952 167.184 85.2017 168.008 81.3622C169.136 76.1032 170.704 73.0829 172.669 72.3861C177.173 70.7877 184.301 73.808 184.602 73.9375C184.616 73.9445 184.63 73.9516 184.644 73.9586C184.776 74.0363 187.881 75.9455 186.502 83.2125C186.04 85.6419 185.588 87.6146 185.226 89.1989C184.534 92.2215 184.117 94.0459 184.407 95.5478C184.428 95.6608 184.399 95.7785 184.324 95.8703C184.249 95.9597 184.141 96.0115 184.023 96.0115ZM175.713 72.7016C174.722 72.7016 173.769 72.8216 172.928 73.1206C169.508 74.3353 167.975 84.9898 167.674 88.9917C167.646 89.3895 167.85 89.825 168.284 90.2888C170.654 92.8265 178.62 95.0934 183.573 95.2276C183.406 93.6739 183.82 91.8613 184.468 89.027C184.828 87.4474 185.278 85.4841 185.737 83.0689C186.963 76.6117 184.494 74.7943 184.268 74.6437C183.884 74.4812 179.534 72.7016 175.713 72.7016Z" fill="#00046A"/>
<path d="M181.817 80.5736C181.81 80.5736 181.805 80.5736 181.798 80.5736C181.666 80.5665 181.544 80.4935 181.478 80.3782C179.677 77.2379 173.769 75.2369 173.71 75.2181C173.505 75.1498 173.397 74.9285 173.465 74.7261C173.533 74.5213 173.754 74.413 173.957 74.4789C174.199 74.5589 179.623 76.3951 181.834 79.4931C182.752 78.236 183.74 77.1319 184.847 77.1508C185.546 77.1673 186.167 77.6145 186.749 78.5185C186.864 78.6997 186.812 78.9399 186.631 79.0552C186.45 79.1706 186.21 79.1188 186.094 78.9375C185.671 78.276 185.247 77.937 184.833 77.9276C184.826 77.9276 184.821 77.9276 184.814 77.9276C183.999 77.9276 183.046 79.1188 182.137 80.4064C182.064 80.5124 181.944 80.5736 181.817 80.5736Z" fill="#00046A"/>
<path d="M176.723 87.7394C177.74 90.2512 175.306 91.2375 174.289 88.7257L176.723 87.7394Z" fill="#C1C5D1"/>
<path d="M173.107 79.3966C172.895 82.0214 169.237 82.4027 166.426 82.3038C164.642 82.2426 163.199 81.9837 163.199 81.9837C161.965 82.3721 161.565 80.6584 163.098 79.7356C163.098 79.7356 165.061 74.5566 169.442 72.7393C169.442 72.7393 169.503 72.7746 169.604 72.8429C170.355 73.3419 173.413 75.6301 173.107 79.3966Z" fill="#FEDA24"/>
<g opacity="0.2">
<path d="M169.607 72.8405L169.129 73.8104C169.129 73.8104 165.051 76.2256 165.68 79.0105L165.037 79.2035C165.037 79.2035 163.286 80.7125 165.037 81.2304C165.567 81.3881 166.078 81.8118 166.426 82.2991C164.642 82.2379 163.199 81.979 163.199 81.979C161.965 82.3674 161.565 80.6536 163.098 79.7308C163.098 79.7308 165.061 74.5519 169.442 72.7346C169.444 72.7369 169.503 72.7722 169.607 72.8405Z" fill="#3B0372"/>
</g>
<path d="M167.154 82.7229C165.282 82.7229 163.618 82.4663 163.204 82.3956C162.591 82.551 162.052 82.318 161.812 81.7883C161.518 81.1362 161.758 80.1522 162.768 79.4884C163.107 78.6597 165.12 74.1164 169.277 72.3932C169.39 72.3461 169.519 72.3556 169.623 72.4168C169.795 72.518 173.842 74.9615 173.477 79.4436C173.408 80.2864 173.027 80.9809 172.34 81.5082C171.099 82.4663 169.023 82.7229 167.154 82.7229ZM163.182 81.6094C163.206 81.6094 163.227 81.6117 163.251 81.6165C163.314 81.6282 169.517 82.704 171.866 80.8938C172.38 80.4983 172.653 80.0039 172.702 79.3824C172.987 75.8725 170.108 73.6833 169.388 73.1936C165.341 74.9945 163.465 79.8391 163.446 79.8886C163.415 79.971 163.357 80.0392 163.284 80.084C162.53 80.5359 162.387 81.1668 162.523 81.4705C162.631 81.7083 162.879 81.6894 163.067 81.6282C163.105 81.6165 163.145 81.6094 163.182 81.6094Z" fill="#00046A"/>
<path d="M178.135 86.2563C177.37 87.4686 176.13 88.3043 174.731 88.6245C168.232 90.1099 161.132 90.5501 163.182 81.9978C163.453 81.8236 163.743 81.6776 164.039 81.5552C166.433 80.5642 169.425 81.0868 169.425 81.0868C170.671 78.5303 173.886 77.6946 176.083 78.9822C177.618 79.8791 178.835 81.6282 178.896 83.5397C178.924 84.4366 178.7 85.3641 178.135 86.2563Z" fill="#FBD87E"/>
<g opacity="0.45">
<path d="M178.898 83.5421C178.905 83.7516 178.898 83.9611 178.875 84.1729C178.693 82.3956 177.528 80.7996 176.085 79.9545C173.889 78.6691 170.673 79.5025 169.428 82.059C169.428 82.059 167.206 81.3481 165.04 81.2327C167.191 80.6983 169.428 81.0891 169.428 81.0891C170.673 78.5326 173.889 77.6969 176.085 78.9846C177.618 79.8815 178.837 81.6306 178.898 83.5421Z" fill="#F0F1F1"/>
</g>
<path d="M178.135 86.2563C177.37 87.4686 176.13 88.3043 174.731 88.6245C168.232 90.1099 161.132 90.5501 163.182 81.9978C163.453 81.8236 163.743 81.6776 164.039 81.5552H164.042C164.042 81.5552 162.147 85.4983 167.504 86.8425C172.862 88.1866 177.078 86.8213 178.896 83.5397C178.924 84.4366 178.7 85.3641 178.135 86.2563Z" fill="#C1982E"/>
<path d="M168.653 89.8533C166.673 89.8533 164.858 89.4626 163.712 88.302C162.408 86.9837 162.104 84.8321 162.803 81.9084C162.827 81.8095 162.888 81.7247 162.973 81.6706C165.164 80.2746 168.258 80.5407 169.209 80.6631C169.866 79.4884 170.939 78.6291 172.267 78.229C173.648 77.8099 175.113 77.963 176.28 78.648C177.69 79.4743 178.759 80.8938 179.136 82.4474C179.475 83.841 179.242 85.2299 178.463 86.4635C177.662 87.73 176.334 88.6575 174.816 89.0035L174.729 88.6245L174.816 89.0035C172.959 89.4296 170.715 89.8533 168.653 89.8533ZM163.526 82.245C162.938 84.8086 163.187 86.6612 164.268 87.7535C166.337 89.8463 171.184 89.0365 174.647 88.2455C175.965 87.9442 177.116 87.1438 177.808 86.0492C178.472 84.9969 178.672 83.8152 178.383 82.6334C178.053 81.2798 177.121 80.0416 175.89 79.3212C174.908 78.7469 173.67 78.6197 172.493 78.9752C171.283 79.3424 170.317 80.1522 169.778 81.261C169.703 81.4164 169.534 81.5035 169.362 81.4729C169.324 81.4658 165.833 80.8796 163.526 82.245Z" fill="#00046A"/>
<path d="M169.8 81.2045C169.503 82.0614 169.348 83.0006 169.392 83.9116C169.399 84.1871 168.995 84.2271 168.95 83.954C168.787 82.9606 168.837 81.9601 169.056 80.9738C169.202 80.4441 169.976 80.6819 169.8 81.2045Z" fill="#00046A"/>
<path d="M174.286 79.7662L173.437 76.9225C175.313 73.5679 173.966 68.123 170.525 69.1493C167.622 70.2251 168.886 74.5237 171.485 77.3862L172.335 79.9004C172.766 80.2558 174.305 80.6513 174.286 79.7662Z" fill="#C1C5D1"/>
<g opacity="0.2">
<path d="M169.844 69.5119C169.844 69.5119 168.867 73.1065 172.276 75.8725C172.542 76.0868 172.639 76.4681 172.462 76.76C172.375 76.9036 172.356 77.139 172.469 77.5157C172.876 78.8716 173.373 80.1852 173.373 80.1852L172.337 79.898L171.786 77.3627C169.995 74.4013 168.733 71.5999 169.844 69.5119Z" fill="#3B0372"/>
</g>
<path d="M173.606 80.6913C173.018 80.6913 172.361 80.4253 172.085 80.197C172.029 80.1499 171.989 80.091 171.965 80.0228L171.141 77.5839C169.185 75.397 168.131 72.6145 168.575 70.7925C168.811 69.8297 169.437 69.1352 170.388 68.7821C170.395 68.7797 170.405 68.7774 170.412 68.775C171.64 68.4102 172.756 68.7562 173.552 69.7496C174.931 71.4704 175.054 74.672 173.851 76.9648L174.654 79.6555C174.663 79.6885 174.67 79.7238 174.67 79.7591C174.677 80.1263 174.501 80.4229 174.185 80.576C174.02 80.6583 173.818 80.6913 173.606 80.6913ZM172.664 79.6555C172.959 79.8321 173.601 79.9969 173.853 79.8744C173.877 79.8627 173.891 79.8556 173.896 79.818L173.065 77.0331C173.034 76.9319 173.046 76.8236 173.098 76.7318C174.223 74.719 174.155 71.7435 172.949 70.2369C172.349 69.4883 171.575 69.2458 170.649 69.5166C169.948 69.7802 169.505 70.2699 169.333 70.9761C168.943 72.5792 169.946 75.1075 171.772 77.1225C171.808 77.1626 171.836 77.2096 171.852 77.2591L172.664 79.6555Z" fill="#00046A"/>
<path d="M171.386 69.865C172.629 70.1475 173.258 71.2303 173.371 72.9888C173.394 73.3349 173.027 73.575 172.721 73.4125C171.742 72.8899 171.05 71.9624 170.842 70.357C170.802 70.0462 171.08 69.7967 171.386 69.865Z" fill="#F0F1F1"/>
<path d="M175.901 90.576C175.833 90.576 175.765 90.5713 175.694 90.5619C174.964 90.4607 174.319 89.8439 173.924 88.8717C173.844 88.6716 173.94 88.4456 174.138 88.3656C174.338 88.2855 174.564 88.382 174.644 88.5798C174.927 89.2766 175.358 89.7309 175.8 89.7921C176.026 89.8251 176.229 89.7427 176.37 89.5614C176.645 89.2107 176.641 88.5845 176.358 87.8877C176.278 87.6876 176.375 87.4616 176.572 87.3816C176.772 87.3015 176.998 87.398 177.078 87.5958C177.472 88.568 177.436 89.4602 176.984 90.0417C176.716 90.3854 176.33 90.576 175.901 90.576Z" fill="#00046A"/>
<path d="M162.933 79.3919C164.927 78.7092 167.114 78.5703 169.164 79.0576C169.369 79.1047 169.315 79.413 169.103 79.3848C167.615 79.1353 166.08 79.2436 164.628 79.6296C164.155 79.7567 163.672 79.9121 163.227 80.1099C162.735 80.3147 162.438 79.5943 162.933 79.3919Z" fill="#00046A"/>
<path d="M185.68 92.0308C186.264 94.5991 186.44 97.4758 185.07 99.8463C184.63 100.647 184.011 101.355 183.286 101.906L183.244 101.263C184.096 101.81 184.889 102.676 184.861 103.759C184.854 104.131 184.727 104.486 184.56 104.79C184.456 104.978 184.218 105.046 184.03 104.943C183.842 104.839 183.773 104.604 183.875 104.416C184.432 103.509 183.764 102.57 183.004 102.04C182.952 102.003 182.888 101.96 182.846 101.934C182.662 101.831 182.594 101.6 182.697 101.414C182.726 101.365 182.761 101.325 182.803 101.292C183.437 100.776 183.973 100.157 184.385 99.4555C185.202 98.0125 185.438 96.3058 185.431 94.6556C185.433 93.8199 185.341 92.9418 185.24 92.1108C185.209 91.8378 185.612 91.7554 185.68 92.0308Z" fill="#00046A"/>
<path d="M197.41 90.8444C196.222 92.8241 194.119 94.1424 191.996 94.9263C191.683 95.0275 191.297 95.1805 190.977 95.2559L190.287 95.4301C189.884 95.5407 189.305 95.6137 188.893 95.6961C188.425 95.7526 187.954 95.7973 187.486 95.842C187.363 95.8538 187.255 95.7643 187.243 95.6419C187.231 95.5195 187.321 95.4136 187.441 95.3995C188.093 95.2818 188.823 95.1688 189.468 94.9969C191.655 94.472 193.785 93.4856 195.447 91.9555C195.925 91.5129 196.386 91.0091 196.735 90.463C196.996 90.0393 197.636 90.3947 197.41 90.8444Z" fill="#00046A"/>
</g>
<defs>
<filter id="filter0_i_15_952" x="105.5" y="114.824" width="55.146" height="232.676" filterUnits="userSpaceOnUse" color-interpolation-filters="sRGB">
<feFlood flood-opacity="0" result="BackgroundImageFix"/>
<feBlend mode="normal" in="SourceGraphic" in2="BackgroundImageFix" result="shape"/>
<feColorMatrix in="SourceAlpha" type="matrix" values="0 0 0 0 0 0 0 0 0 0 0 0 0 0 0 0 0 0 127 0" result="hardAlpha"/>
<feOffset/>
<feGaussianBlur stdDeviation="0.5"/>
<feComposite in2="hardAlpha" operator="arithmetic" k2="-1" k3="1"/>
<feColorMatrix type="matrix" values="0 0 0 0 0 0 0 0 0 0 0 0 0 0 0 0 0 0 0.92 0"/>
<feBlend mode="normal" in2="shape" result="effect1_innerShadow_15_952"/>
</filter>
<filter id="filter1_i_15_952" x="196" y="121.227" width="50.7364" height="224.273" filterUnits="userSpaceOnUse" color-interpolation-filters="sRGB">
<feFlood flood-opacity="0" result="BackgroundImageFix"/>
<feBlend mode="normal" in="SourceGraphic" in2="BackgroundImageFix" result="shape"/>
<feColorMatrix in="SourceAlpha" type="matrix" values="0 0 0 0 0 0 0 0 0 0 0 0 0 0 0 0 0 0 127 0" result="hardAlpha"/>
<feOffset/>
<feGaussianBlur stdDeviation="0.5"/>
<feComposite in2="hardAlpha" operator="arithmetic" k2="-1" k3="1"/>
<feColorMatrix type="matrix" values="0 0 0 0 0 0 0 0 0 0 0 0 0 0 0 0 0 0 0.92 0"/>
<feBlend mode="normal" in2="shape" result="effect1_innerShadow_15_952"/>
</filter>
<filter id="filter2_i_15_952" x="118.5" y="114.824" width="55.146" height="233.176" filterUnits="userSpaceOnUse" color-interpolation-filters="sRGB">
<feFlood flood-opacity="0" result="BackgroundImageFix"/>
<feBlend mode="normal" in="SourceGraphic" in2="BackgroundImageFix" result="shape"/>
<feColorMatrix in="SourceAlpha" type="matrix" values="0 0 0 0 0 0 0 0 0 0 0 0 0 0 0 0 0 0 127 0" result="hardAlpha"/>
<feOffset/>
<feGaussianBlur stdDeviation="0.5"/>
<feComposite in2="hardAlpha" operator="arithmetic" k2="-1" k3="1"/>
<feColorMatrix type="matrix" values="0 0 0 0 0 0 0 0 0 0 0 0 0 0 0 0 0 0 0.92 0"/>
<feBlend mode="normal" in2="shape" result="effect1_innerShadow_15_952"/>
</filter>
<filter id="filter3_i_15_952" x="207.903" y="116" width="52.1615" height="230" filterUnits="userSpaceOnUse" color-interpolation-filters="sRGB">
<feFlood flood-opacity="0" result="BackgroundImageFix"/>
<feBlend mode="normal" in="SourceGraphic" in2="BackgroundImageFix" result="shape"/>
<feColorMatrix in="SourceAlpha" type="matrix" values="0 0 0 0 0 0 0 0 0 0 0 0 0 0 0 0 0 0 127 0" result="hardAlpha"/>
<feOffset/>
<feGaussianBlur stdDeviation="0.5"/>
<feComposite in2="hardAlpha" operator="arithmetic" k2="-1" k3="1"/>
<feColorMatrix type="matrix" values="0 0 0 0 0 0 0 0 0 0 0 0 0 0 0 0 0 0 0.92 0"/>
<feBlend mode="normal" in2="shape" result="effect1_innerShadow_15_952"/>
</filter>
<radialGradient id="paint0_radial_15_952" cx="0" cy="0" r="1" gradientUnits="userSpaceOnUse" gradientTransform="translate(120 105) rotate(90) scale(3)">
<stop stop-color="white"/>
<stop offset="1" stop-color="#EC6150"/>
</radialGradient>
<radialGradient id="paint1_radial_15_952" cx="0" cy="0" r="1" gradientUnits="userSpaceOnUse" gradientTransform="translate(248 105) rotate(90) scale(3)">
<stop stop-color="white"/>
<stop offset="1" stop-color="#EC6150"/>
</radialGradient>
<radialGradient id="paint2_radial_15_952" cx="0" cy="0" r="1" gradientUnits="userSpaceOnUse" gradientTransform="translate(183 42) rotate(90) scale(3)">
<stop stop-color="white"/>
<stop offset="1" stop-color="#EC6150"/>
</radialGradient>
<radialGradient id="paint3_radial_15_952" cx="0" cy="0" r="1" gradientUnits="userSpaceOnUse" gradientTransform="translate(183 170) rotate(90) scale(3)">
<stop stop-color="white"/>
<stop offset="1" stop-color="#EC6150"/>
</radialGradient>
<radialGradient id="paint4_radial_15_952" cx="0" cy="0" r="1" gradientUnits="userSpaceOnUse" gradientTransform="translate(137 150) rotate(90) scale(3)">
<stop stop-color="white"/>
<stop offset="1" stop-color="#EC6150"/>
</radialGradient>
<radialGradient id="paint5_radial_15_952" cx="0" cy="0" r="1" gradientUnits="userSpaceOnUse" gradientTransform="translate(228 59) rotate(90) scale(3)">
<stop stop-color="white"/>
<stop offset="1" stop-color="#EC6150"/>
</radialGradient>
<radialGradient id="paint6_radial_15_952" cx="0" cy="0" r="1" gradientUnits="userSpaceOnUse" gradientTransform="translate(139 60) rotate(90) scale(3)">
<stop stop-color="white"/>
<stop offset="1" stop-color="#EC6150"/>
</radialGradient>
<radialGradient id="paint7_radial_15_952" cx="0" cy="0" r="1" gradientUnits="userSpaceOnUse" gradientTransform="translate(228 153) rotate(90) scale(3)">
<stop stop-color="white"/>
<stop offset="1" stop-color="#EC6150"/>
</radialGradient>
</defs>
</svg>
