<svg width="34" height="16" viewBox="0 0 34 16" fill="none" xmlns="http://www.w3.org/2000/svg">
<path d="M1.27449 8.74638C1.11485 8.67956 0.955221 8.59046 0.858699 8.44568C0.762177 8.3009 0.747327 8.093 0.858699 7.96307C0.958933 7.84427 1.14827 7.79601 1.19281 7.64381C1.20766 7.58812 1.20024 7.53243 1.19281 7.47675C1.15198 7.13892 1.18168 6.78996 1.28562 6.46327C1.37843 6.16627 1.54549 5.873 1.82021 5.73564C2.09492 5.59457 2.49586 5.67624 2.61837 5.95838C2.68519 6.1143 2.66663 6.30363 2.77058 6.43728C2.84483 6.53009 2.96362 6.57464 3.07499 6.60062C3.50192 6.70086 3.94741 6.61547 4.38547 6.5932C4.82353 6.57092 5.30614 6.63032 5.61427 6.93845C5.94467 7.26885 5.97808 7.82571 5.75905 8.23779C5.38039 8.94685 4.68617 9.10649 3.96968 9.00625C3.08242 8.87632 2.1172 9.08792 1.27449 8.74638Z" fill="#DAE5EA"/>
<path d="M4.70102 8.52735C3.81747 8.40113 2.85225 8.61274 2.00583 8.26749C1.84619 8.20066 1.68656 8.11157 1.59004 7.96678C1.49352 7.822 1.47867 7.61411 1.59004 7.48417C1.69027 7.36538 1.87961 7.31712 1.92415 7.16491C1.939 7.10922 1.93158 7.05354 1.92415 6.99414C1.88332 6.65631 1.91302 6.30735 2.01696 5.98066C2.05038 5.873 2.09492 5.76163 2.15061 5.66139C2.03553 5.65397 1.92044 5.67624 1.82021 5.72822C1.54549 5.86929 1.37843 6.16256 1.28562 6.45584C1.18539 6.78253 1.15198 7.1315 1.19281 7.46932C1.20024 7.52501 1.20766 7.58441 1.19281 7.63638C1.15198 7.78859 0.962646 7.83685 0.858699 7.95565C0.747327 8.08929 0.762177 8.29719 0.858699 8.43826C0.955221 8.58304 1.11114 8.67214 1.27449 8.73896C2.12091 9.0805 3.08613 8.8689 3.96968 8.99883C4.58965 9.08793 5.19477 8.98027 5.59199 8.48652C5.31356 8.56819 5.00915 8.5719 4.70102 8.52735Z" fill="#BAC3C6"/>
<path d="M4.74185 9.74873C5.67737 10.365 5.82958 10.5061 6.91731 10.7771C8.70297 11.2263 10.3847 12.0764 11.8028 13.2532C12.2966 13.6616 12.7569 14.1108 13.3063 14.4412C13.9152 14.8124 14.6057 15.024 15.2999 15.1948C18.9863 16.0969 23.0179 15.8482 26.3814 14.0922C27.7661 13.3683 29.0543 12.3697 29.845 11.0221C30.9476 9.15104 30.9587 6.71942 30.0046 4.77042C29.0506 2.8177 28.6162 1.92673 26.5299 1.32161C24.4435 0.71649 26.296 0.538296 23.6936 0.170769C20.3302 -0.304416 15.3296 1.23622 14.3866 1.65572C10.7745 3.26319 10.4181 4.64048 5.53259 5.62427C4.6973 5.79132 3.81004 6.4447 3.59843 7.33939C3.38683 8.26006 3.98452 9.24756 4.74185 9.74873Z" fill="#C18E63"/>
<path d="M17.1412 13.8324C16.6214 13.4648 16.0943 13.0936 15.504 12.8523C15.0956 12.6815 14.6576 12.5776 14.2641 12.3771C13.1504 11.8165 12.5118 10.6211 11.5466 9.83411C10.8598 9.27725 10.0022 8.932 9.1187 8.86147C8.36137 8.80207 7.60776 8.93571 6.85414 9.0211C5.98916 9.11762 5.09818 9.12505 4.30373 8.72411C4.08099 8.61274 3.86938 8.47538 3.65778 8.33802C3.83968 8.91344 4.25918 9.42946 4.74179 9.74873C5.67731 10.365 5.82952 10.5061 6.91725 10.7771C8.70291 11.2263 10.3846 12.0764 11.8028 13.2532C12.2965 13.6616 12.7568 14.1108 13.3063 14.4412C13.9151 14.8124 14.6093 15.024 15.2998 15.1948C16.7662 15.5549 18.2883 15.7294 19.7992 15.7034C19.7658 15.6774 19.7324 15.6551 19.699 15.6329C18.8452 15.0315 17.995 14.4338 17.1412 13.8324Z" fill="#AD7E5A"/>
<path d="M15.3778 4.16159C14.097 6.18113 13.6255 8.63873 13.6589 11.0332C13.6664 11.5938 13.7035 12.1618 13.8854 12.6927C14.4497 14.3335 16.2539 15.2097 17.9616 15.5029C20.4043 15.9261 22.9176 15.5178 25.3195 14.8904C27.7177 14.263 33.3012 12.6704 33.4905 10.1942C33.6093 8.61275 31.8459 5.56116 30.2459 3.41169C29.2435 2.0678 27.6918 0.872416 26.0546 0.519739C22.0044 -0.348959 17.776 0.374956 15.3778 4.16159Z" fill="#FFDDD7"/>
<path d="M31.5378 5.39038C30.1902 4.75928 29.2918 3.5082 28.0482 2.73231C26.7229 1.90445 24.7961 1.71883 23.2815 1.9193C21.5404 2.14947 19.8735 2.99589 18.7264 4.32493C18.2289 4.90035 17.8317 5.56115 17.5013 6.24794C16.6363 8.04845 16.2131 10.1274 16.6957 12.0653C16.8553 12.7038 17.1263 13.3423 17.6238 13.773C18.3254 14.3781 19.3278 14.4597 20.2522 14.4338C24.2578 14.3113 28.0667 12.6741 32.0427 12.1729C32.0464 12.1729 32.0464 12.1729 32.0501 12.1729C32.8706 11.5826 33.4311 10.9107 33.4868 10.1571C33.5722 9.03966 32.7184 7.19089 31.6455 5.44607C31.6121 5.42751 31.575 5.40894 31.5378 5.39038Z" fill="#E28681"/>
<path d="M31.0181 11.939C31.2074 11.3562 31.3077 10.714 31.1183 10.1311C31.0218 9.83783 30.8399 9.55569 30.5615 9.41833C30.3758 9.32552 30.168 9.30696 29.9638 9.28839C29.2696 9.22528 28.5716 9.15846 27.8774 9.09535C27.7029 9.0805 27.521 9.06194 27.3577 9.12134C27.083 9.21786 26.9233 9.48886 26.734 9.70789C26.463 10.0197 26.1103 10.2499 25.7502 10.4541C24.3358 11.2485 22.7135 11.6717 21.0912 11.668C20.59 11.668 20.0851 11.6272 19.5839 11.6717C18.9565 11.7274 17.7166 12.1506 16.9964 12.804C17.156 13.1716 17.3751 13.5131 17.6795 13.773C18.3811 14.3781 19.3835 14.4598 20.3078 14.4338C23.894 14.3261 27.3243 13.0008 30.8547 12.366C30.9179 12.2286 30.9698 12.0838 31.0181 11.939Z" fill="#C97775"/>
<path d="M22.1976 3.2966C22.3312 3.45623 22.5762 3.4451 22.7878 3.43025C23.367 3.3857 23.9535 3.40426 24.5289 3.49336C24.7999 3.53419 25.0747 3.59359 25.3048 3.7458C25.5313 3.89801 25.7021 4.16159 25.6686 4.4363C25.6501 4.59965 25.5573 4.75557 25.561 4.92263C25.5684 5.16764 25.7911 5.36811 26.0287 5.43122C26.2663 5.49433 26.5188 5.4535 26.7638 5.41637C27.7736 5.26417 28.8502 5.18992 29.7783 5.62056C29.8785 5.66882 29.9899 5.72079 30.0975 5.69109C30.2312 5.65025 30.2943 5.48691 30.2646 5.35326C30.2349 5.21962 30.1346 5.10825 30.0307 5.01915C29.6001 4.6442 29.0284 4.47343 28.5643 4.13931C27.9221 3.67526 27.4803 2.89938 26.7192 2.68034C26.1067 2.50215 25.457 2.74346 24.8222 2.69891C24.1651 2.65065 23.586 2.3982 22.9178 2.46874C22.5725 2.49101 21.7966 2.8177 22.1976 3.2966Z" fill="#C97775"/>
<path d="M19.9218 4.10961C20.1594 4.4363 20.6012 4.55139 21.0021 4.54396C21.4068 4.53654 21.804 4.43259 22.2049 4.41774C23.0996 4.38433 23.998 4.83353 24.514 5.56487C24.6365 5.73935 24.7405 5.92868 24.8927 6.08089C25.2713 6.45584 25.8616 6.48925 26.3925 6.50039C25.7391 6.41872 25.1229 6.08089 24.7034 5.57601C24.3804 5.18621 24.1539 4.68875 23.7233 4.42517C23.3483 4.19871 22.888 4.18757 22.4499 4.19871C22.0119 4.20985 21.559 4.23584 21.1543 4.06878C20.7497 3.90172 20.4155 3.47108 20.5195 3.04416C20.5937 2.73974 20.9167 2.32024 20.5121 2.10864C20.2782 1.98984 19.9404 2.11977 19.8253 2.34252C19.6211 2.72861 19.6805 3.77921 19.9218 4.10961Z" fill="#FFDDD7"/>
<path d="M18.1213 10.6211C18.9455 10.4801 19.803 10.5098 20.6049 10.2796C21.3511 10.068 22.0156 9.64107 22.7173 9.31438C23.4189 8.98397 24.2133 8.74638 24.967 8.93571C23.3632 9.00625 21.9859 10.0791 20.4341 10.4838C19.6879 10.6768 18.9009 10.7177 18.1919 11.0146C17.3046 11.3859 16.5992 12.1581 16.306 13.0713C16.28 13.153 15.9124 12.9562 15.879 12.9265C15.7194 12.7892 15.6674 12.5998 15.6711 12.3957C15.6711 12.0801 15.8122 11.9316 16.0312 11.7349C16.6586 11.1706 17.2712 10.7696 18.1213 10.6211Z" fill="#FFDDD7"/>
<path d="M33.4906 10.1014C33.5648 9.1102 32.904 7.54357 32.0019 5.98437C31.2037 5.89156 30.387 6.23681 30.1531 7.08324C30.0455 7.46561 29.9898 7.89625 29.6965 8.16354C29.6408 8.21551 29.574 8.2712 29.5777 8.34545C29.5814 8.39 29.6074 8.42712 29.6371 8.46053C29.9415 8.80578 30.4724 8.82435 30.8659 9.06936C31.278 9.32552 31.4933 9.81184 31.5564 10.2945C31.6232 10.7733 31.5601 11.2597 31.5379 11.746C31.5304 11.8871 31.5342 12.0393 31.5527 12.1878C31.7161 12.1618 31.8794 12.1395 32.0465 12.1209C32.0502 12.1209 32.0502 12.1209 32.0539 12.1209C32.8743 11.5307 33.4349 10.8587 33.4906 10.1014Z" fill="#C97775"/>
<path d="M28.4825 5.96209C27.7475 6.14029 27.1238 6.72313 26.8974 7.44705C26.7934 7.77745 26.7674 8.14126 26.8751 8.47167C26.9827 8.80207 27.2352 9.09164 27.5619 9.20301C28.0037 9.3515 28.4788 9.1696 28.9392 9.09164C29.3438 9.0211 29.7596 9.03595 30.1605 8.94685C30.5615 8.86147 30.9661 8.64615 31.1369 8.2712C31.2706 7.97421 31.2334 7.62153 31.0961 7.32825C30.6394 6.33333 29.5814 5.6948 28.4825 5.96209Z" fill="#FFDDD7"/>
<path d="M28.438 6.87163C28.1411 7.03869 27.8738 7.29856 27.7995 7.62896C27.729 7.96307 27.9183 8.3603 28.2524 8.42712C28.4715 8.47167 28.6905 8.37144 28.9095 8.32318C29.162 8.26749 29.4293 8.28234 29.6817 8.21552C29.9341 8.14869 30.1829 7.96307 30.2014 7.70321C30.2126 7.56214 30.1495 7.42478 30.0752 7.30598C29.6817 6.69715 29.0506 6.52638 28.438 6.87163Z" fill="#A35D58"/>
<path d="M20.0592 15.8742C19.3205 15.8742 18.604 15.8148 17.9283 15.6997C16.9742 15.5363 16.0944 15.2134 15.389 14.7716C14.5426 14.2407 13.9746 13.5651 13.6999 12.7595C13.5069 12.1952 13.4734 11.5975 13.4623 11.0369C13.4252 8.33431 14.0303 5.92126 15.2108 4.05764C16.8926 1.40328 19.61 0 23.0625 0C24.0352 0 25.0524 0.115084 26.0918 0.337827C27.6511 0.675655 29.2622 1.78195 30.3982 3.30403C31.9945 5.44236 33.8099 8.53478 33.6837 10.2165C33.5983 11.3599 32.4623 12.4365 30.3165 13.4203C28.4121 14.2927 26.1215 14.8904 25.3716 15.0871C23.3038 15.6217 21.6184 15.8742 20.0592 15.8742ZM23.0663 0.386088C20.7534 0.386088 17.5756 1.05803 15.5412 4.26182C14.4015 6.06233 13.8187 8.40113 13.8558 11.0258C13.8632 11.553 13.8929 12.1135 14.0711 12.6258C14.5278 13.9586 15.9979 14.9609 17.9988 15.3099C18.6522 15.4213 19.3464 15.4807 20.0629 15.4807C21.585 15.4807 23.2407 15.2319 25.2751 14.7011C26.0176 14.508 28.2822 13.914 30.1569 13.0565C32.1653 12.1358 33.2233 11.1706 33.2976 10.1794C33.409 8.70184 31.7681 5.77648 30.0901 3.53048C29.0098 2.08265 27.4877 1.02833 26.0139 0.712778C25.0004 0.49746 24.0092 0.386088 23.0663 0.386088Z" fill="#EFCE84"/>
<path d="M25.1266 13.2792C25.3419 12.8189 25.5275 12.3029 25.9507 12.0281C25.7428 12.4885 25.5684 12.9637 25.4347 13.45C25.4124 13.5391 25.3865 13.6319 25.4087 13.721C25.4459 13.8732 25.6018 13.9697 25.7577 13.9846C25.9136 13.9994 26.0658 13.9512 26.2143 13.9029C26.4853 13.8138 26.76 13.721 26.9902 13.5502C27.2204 13.3794 27.3949 13.1159 27.3874 12.83C27.3726 12.4291 27.0088 12.1172 26.9308 11.7237C26.8751 11.4379 26.9791 11.1409 27.1461 10.9033C27.3132 10.6657 27.5434 10.4801 27.7698 10.2982C27.8181 10.4429 27.7327 10.5989 27.625 10.7102C27.5174 10.8216 27.3874 10.9107 27.3058 11.0406C27.1276 11.3302 27.2575 11.7126 27.4394 12.0021C27.6213 12.2917 27.8515 12.5739 27.8738 12.9154C27.896 13.2681 27.6807 13.6022 27.3949 13.8101C27.109 14.018 26.76 14.1182 26.4185 14.2073C25.8431 14.3595 25.2602 14.4894 24.67 14.5934C24.269 14.6676 23.6305 14.5711 24.2059 14.2481C24.644 13.9994 24.9113 13.747 25.1266 13.2792Z" fill="#FFDDD7"/>
<path opacity="0.62" d="M15.6414 5.78761C15.4669 6.19226 15.3184 6.64888 15.4483 7.0721C15.4743 7.15377 15.5114 7.23915 15.5783 7.29484C15.7379 7.43591 16.0052 7.3728 16.1537 7.22059C16.3022 7.06467 16.3616 6.84935 16.421 6.64517C16.6808 5.73192 17.0187 4.82981 17.5384 4.03165C18.0581 3.23349 18.7709 2.5467 19.647 2.16803C19.8178 2.09378 20.0294 1.97499 19.9923 1.79308C19.9515 1.58519 19.6582 1.58519 19.4577 1.6483C17.6386 2.21258 16.3653 4.10961 15.6414 5.78761Z" fill="white"/>
<path opacity="0.62" d="M14.8619 8.81692C14.7691 9.5594 14.6763 10.3167 14.8062 11.0555C14.8322 11.204 14.8767 11.3673 15.0067 11.4527C15.1403 11.5418 15.3296 11.5084 15.4559 11.4045C15.5784 11.3005 15.6489 11.1446 15.6823 10.9887C15.7937 10.4726 15.6006 9.92321 15.7417 9.41462C15.8382 9.06565 16.0684 8.59047 15.6823 8.31204C15.274 8.02247 14.9101 8.43083 14.8619 8.81692Z" fill="white"/>
<path d="M10.3995 4.59222C9.82409 4.81125 9.17814 4.93005 8.73636 5.35697C8.69181 5.40152 8.64355 5.45349 8.63984 5.52032C8.63613 5.57972 8.66583 5.63911 8.70666 5.68738C9.03707 6.09945 9.69045 5.99179 10.1731 5.78018C10.9749 5.43122 11.7285 4.90035 12.5972 4.83353C13.0873 4.7964 13.6256 4.89664 14.0339 4.62934C14.394 4.39546 14.5351 3.94998 14.7504 3.57874C14.962 3.21492 15.2665 2.9068 15.6266 2.68405C15.827 2.56154 16.0461 2.46502 16.2205 2.3091C16.3876 2.16061 16.5361 1.92673 16.473 1.70398C15.3556 1.69656 14.3755 1.96014 13.4585 2.60238C12.4636 3.30031 11.5541 4.15787 10.3995 4.59222Z" fill="#CE956B"/>
<path d="M4.75292 6.30734C4.50419 6.47811 4.28516 6.70828 4.20349 6.99785C4.1181 7.28741 4.19235 7.63267 4.43365 7.81086C4.57844 7.91852 4.76034 7.95564 4.93483 7.97792C5.08332 7.99648 5.23553 8.00391 5.38402 7.97049C5.72185 7.88882 5.95944 7.58812 6.14506 7.29484C6.33068 7.00156 6.51259 6.67858 6.80958 6.5041C7.03975 6.37045 7.32189 6.32962 7.52236 6.15514C7.60032 6.08831 7.66343 5.98437 7.62631 5.88784C7.57805 5.75791 7.40356 5.74677 7.26621 5.76162C6.49032 5.83216 5.42486 5.85072 4.75292 6.30734Z" fill="#D89C73"/>
</svg>
