<svg width="36" height="18" viewBox="0 0 36 18" fill="none" xmlns="http://www.w3.org/2000/svg">
<path d="M33.819 6.19776C32.9593 6.17513 32.1223 6.19776 31.2853 6.35611C29.5659 6.67283 28.0276 7.46462 26.4667 8.23378C25.0641 8.93508 23.752 9.83998 22.3267 10.496C21.0146 11.0842 19.5668 11.4009 18.1416 11.5367C16.5128 11.695 14.8161 11.7855 13.1873 11.695C11.5358 11.6045 10.0427 11.1295 8.43653 10.7901C6.8982 10.4734 5.31462 10.2246 3.75367 9.97571C2.39632 10.9937 1.01635 12.238 0.518652 13.5274C0.518652 13.5274 0.450785 14.7717 0.971102 14.7264C1.49142 14.6812 4.63594 13.437 9.13782 14.7264C9.13782 14.7264 10.1106 14.93 12.0335 14.5455C13.9338 14.1609 18.2321 14.636 19.3632 14.7717C20.4943 14.93 21.8517 14.9753 25.8559 13.3238C29.86 11.6724 30.5161 10.2924 32.5747 9.79473C34.6334 9.31966 35.9907 8.59574 34.7691 7.01217C34.7917 7.05741 34.3845 6.69545 33.819 6.19776Z" fill="#EC9936"/>
<path opacity="0.55" d="M30.1994 9.81736C30.222 9.13868 30.4482 7.93969 31.0364 7.44199C31.783 6.83119 33.0046 6.42398 34.1131 6.46923C34.0226 6.37874 33.9095 6.28825 33.7964 6.19776C32.9367 6.17513 32.0997 6.19776 31.2627 6.35611C29.5433 6.67283 28.005 7.46462 26.4441 8.23378C25.0415 8.93508 23.7294 9.83998 22.3041 10.496C20.992 11.0842 19.5442 11.4009 18.119 11.5367C16.4902 11.695 14.7935 11.7855 13.1646 11.695C11.5132 11.6045 10.0201 11.1295 8.41392 10.7901C6.87559 10.4734 5.29202 10.2246 3.73106 9.97571C2.37371 10.9937 0.993744 12.238 0.496049 13.5274C0.496049 13.5274 0.473425 14.0478 0.586537 14.4097C1.17472 14.455 1.76291 14.0025 2.2606 13.7763C2.78092 13.5501 3.25599 13.3917 3.82155 13.3012C4.59072 13.1655 5.45038 13.1429 6.15167 13.5048C6.49101 13.6632 6.5815 13.9573 6.53625 14.2287C6.96608 14.274 7.41854 14.3419 7.87099 14.4323C8.30081 13.6858 9.40931 14.1383 10.088 14.1383C10.8798 14.1156 11.5811 14.0251 12.3502 13.8894C12.7801 13.7989 13.1646 13.7537 13.6171 13.7989C13.8886 13.8442 14.0695 14.093 14.16 14.3419C14.16 14.3645 14.1827 14.3871 14.1827 14.4097C14.6125 14.4097 15.0649 14.4323 15.4948 14.455C15.5174 14.4097 15.54 14.3419 15.5626 14.2966C15.8115 13.8442 16.3997 13.7763 16.8295 13.9573C17.1688 14.093 17.4629 14.2966 17.6439 14.6133C18.3904 14.6812 19.0239 14.7491 19.3406 14.7943C19.5668 14.8169 19.8157 14.8622 20.1098 14.8622C20.6301 14.2514 21.2409 14.2966 22.01 14.1383C22.9149 13.9573 23.6389 13.1202 24.5211 12.7809C25.0867 12.5773 25.4487 13.0298 25.4487 13.5048C25.5844 13.4596 25.7201 13.3917 25.8559 13.3465C26.2857 13.1655 26.6703 12.9845 27.0322 12.8261C26.8965 12.5999 26.8513 12.3511 26.9418 12.057C27.0549 11.7403 27.4621 11.6272 27.6657 11.4236C27.9371 11.1295 28.2539 10.8806 28.5932 11.1068C28.8194 11.2652 28.9552 11.4688 29.1135 11.695C29.5433 11.4236 29.9053 11.1747 30.2446 10.9711C30.222 10.496 30.1994 10.2698 30.1994 9.81736Z" fill="#DB8C36"/>
<path d="M26.0369 11.876C26.512 11.5367 27.1228 11.3331 27.6205 11.0842C28.6837 10.5639 29.4077 9.70425 30.2899 8.93508C31.5342 7.87182 32.7558 6.5371 34.5882 7.03479C34.6787 7.05741 34.7466 7.08004 34.8371 7.12528C34.8144 7.10266 34.7918 7.08004 34.7918 7.05741C34.7918 7.05741 30.7424 3.61879 30.403 2.98536C30.0637 2.35193 27.0775 -0.0234304 24.114 0.0670596C23.5484 0.0896821 23.096 0.0670596 22.7566 0.0218146C22.1685 -0.0460529 21.6029 0.0444371 21.06 0.293285C20.2455 0.677867 19.2275 1.40179 19.1823 2.55553C19.1823 2.55553 16.8748 4.79516 15.902 5.1345C14.9293 5.49646 12.5765 5.79055 11.4454 5.88104C10.3143 5.97153 7.55432 7.10266 6.71729 7.89445C5.90288 8.66361 1.55935 11.0164 0.563965 13.5048H0.586589C2.12492 13.1881 3.70849 12.713 5.31469 12.9393C7.07925 13.1881 8.59496 13.8894 10.45 13.6858C10.5631 13.6632 10.6536 13.6858 10.7215 13.7084C12.0109 13.5727 13.3231 13.3465 14.6125 13.1655C15.8568 12.9845 16.8974 13.2786 18.1417 13.4596C20.7432 13.8668 23.4806 13.0298 25.8333 11.9665C25.9012 11.9213 25.969 11.8986 26.0369 11.876Z" fill="#FAC64C"/>
<path opacity="0.55" d="M34.7918 7.05741C34.7918 7.05741 30.7423 3.61879 30.403 2.98536C30.0636 2.35193 27.0775 -0.0234304 24.1139 0.0670596C23.5484 0.0896821 23.0959 0.0670596 22.7566 0.0218146C22.1684 -0.0460529 21.6028 0.0444371 21.0599 0.293285C20.2455 0.677867 19.2275 1.40179 19.1822 2.55553C19.1822 2.55553 19.1822 2.55553 19.1596 2.57816C20.155 3.07585 21.5123 3.5283 22.9602 3.84502C24.5211 4.18436 26.3762 4.95352 27.3716 5.74531C28.3896 6.55972 29.9279 8.82197 30.0863 9.11606C30.1541 9.04819 30.222 9.00295 30.2899 8.93508C31.5341 7.87182 32.7557 6.5371 34.5881 7.03479C34.6786 7.05741 34.7465 7.08004 34.837 7.12528C34.837 7.10266 34.8144 7.08004 34.7918 7.05741Z" fill="#C2664C"/>
<path d="M34.7918 7.05741C34.7918 7.05741 30.7424 3.61879 30.403 2.98536C30.0637 2.35193 27.0775 -0.0234304 24.114 0.0670596C23.5484 0.0896821 23.0959 0.0670596 22.7566 0.0218146C22.1684 -0.0460529 21.6029 0.0444371 21.0599 0.293285C20.336 0.632622 19.4763 1.22081 19.2501 2.14833C19.6799 2.35193 20.0872 2.55553 20.5848 2.66865C21.3314 2.827 22.0779 2.94012 22.8019 3.1211C23.9782 3.41519 25.1094 3.75453 26.1726 4.34271C27.2811 4.95352 28.367 5.42859 29.1814 6.42398C29.7696 7.12528 30.1768 7.93969 30.4256 8.82197C31.6246 7.78133 32.8236 6.5371 34.5882 7.03479C34.6787 7.05741 34.7465 7.08004 34.837 7.12528C34.837 7.10266 34.8144 7.08004 34.7918 7.05741Z" fill="#F89945"/>
<path d="M30.8102 5.38335C30.1315 5.17975 29.4755 5.02139 28.9325 4.52369C28.0955 3.77715 27.4168 2.89487 26.3762 2.39718C25.3582 1.89948 24.2949 2.05784 23.2091 2.03522C21.8517 2.0126 20.9016 1.67326 19.9967 0.994583C19.6573 1.3113 19.3632 1.67326 19.2501 2.14833C19.6799 2.35193 20.0872 2.55554 20.5848 2.66865C21.3314 2.82701 22.0779 2.94012 22.8019 3.1211C23.9782 3.41519 25.1094 3.75453 26.1726 4.34271C27.2811 4.95352 28.367 5.42859 29.1814 6.42398C29.7696 7.12528 30.1768 7.93969 30.4256 8.82197C30.9912 8.32427 31.5568 7.78133 32.2128 7.39675C31.8282 6.65021 31.602 5.6322 30.8102 5.38335Z" fill="#E2762E"/>
<path d="M32.0318 8.9577C32.1902 9.02557 32.439 8.91246 32.5974 8.86721C32.7784 8.82197 32.9593 8.77672 33.1403 8.70885C33.3439 8.64099 33.8416 8.43738 33.8642 8.16591C33.8869 7.82658 33.3665 7.82658 33.1403 7.82658C32.801 7.82658 32.5069 7.89444 32.2128 8.07542C31.9866 8.18854 31.6699 8.43738 31.6699 8.70885C31.6699 9.00295 32.1223 8.98032 32.3485 8.91246L32.0318 8.9577Z" fill="#B15631"/>
<path opacity="0.55" d="M23.39 1.46966C23.6389 1.46966 23.9329 1.56015 24.2044 1.62801C24.5438 1.7185 24.8831 1.74113 25.2224 1.74113C25.2677 1.7185 25.3355 1.69588 25.3355 1.65064C25.426 1.60539 25.4487 1.46966 25.426 1.37917C25.5165 0.949338 25.0415 0.723113 24.6342 0.610001C24.3402 0.542133 24.0687 0.496888 23.7746 0.474266C23.5484 0.451643 23.1412 0.406398 22.9376 0.519511C22.8244 0.496888 22.5304 0.587378 22.4851 0.700491C22.372 0.745736 22.3041 1.01721 22.3494 1.15294C22.4172 1.3113 22.5982 1.35654 22.7566 1.40179C23.1412 1.5149 23.39 1.46966 23.39 1.46966Z" fill="#F89945"/>
<path opacity="0.55" d="M26.4667 2.0126C26.6477 2.05784 26.987 2.32931 27.168 2.12571C27.3716 1.92211 27.1001 1.69588 26.9191 1.60539C26.7608 1.53753 26.3083 1.42441 26.2178 1.62802C26.1273 1.89949 26.2631 2.0126 26.4667 2.0126Z" fill="#F89945"/>
<path opacity="0.55" d="M29.6112 3.93551C29.7922 4.00338 30.9686 5.1345 31.0364 4.50107C31.059 4.25223 30.7423 3.98076 30.6066 3.79978C30.4256 3.55093 30.222 3.36995 29.9505 3.21159C29.7469 3.09848 29.6112 3.1211 29.385 3.16635C29.1814 3.21159 28.9099 3.14372 29.0004 3.46044C29.0909 3.91289 29.2945 3.79978 29.6112 3.93551Z" fill="#F89945"/>
<path opacity="0.55" d="M32.5974 5.72269C32.7557 5.90367 32.9141 6.24301 32.7331 6.44661C32.2807 6.9443 31.602 5.65482 31.4663 5.31548C31.4436 5.24762 31.421 5.20237 31.4436 5.11188C31.5341 5.11188 31.6925 5.08926 31.783 5.15713C31.8735 5.24762 32.3938 5.49646 32.5974 5.72269Z" fill="#F89945"/>
<path d="M28.2086 7.78133C28.005 7.66821 27.9372 7.57772 27.8919 7.37412C27.8467 7.17052 27.9598 6.94429 27.7562 6.80856C27.7788 6.33349 26.7382 5.83579 26.331 5.72268C25.7428 5.56432 25.2677 5.76792 24.7021 5.85841C24.2271 5.9489 23.9782 5.76792 23.9556 5.31547C23.933 5.31547 23.9104 5.31547 23.8877 5.29285C23.9104 5.27023 23.9104 5.24761 23.933 5.22498C23.9104 5.20236 23.8877 5.20236 23.8877 5.17974C23.9104 5.02138 23.7972 4.70467 23.6615 4.61418C23.5258 4.16173 22.8019 4.00337 22.372 3.9355C22.1006 3.89026 21.7386 3.86763 21.4445 3.89026C21.1052 3.9355 20.9242 4.18435 20.6075 4.27484C20.155 4.38795 20.1776 3.41518 19.7252 3.18896C19.2954 2.98536 18.5941 2.98536 18.1416 3.09847C17.4856 3.25683 17.0105 3.64141 16.6259 4.18435C16.2187 4.72729 15.6758 4.99876 15.0197 4.72729C14.4315 4.50106 14.0017 4.52369 13.5492 4.97614C13.0742 5.42859 12.6217 5.56432 11.9431 5.51908C11.4001 5.49645 10.8798 5.36072 10.3369 5.31547C9.52245 5.27023 9.11524 5.47383 8.54968 6.01677C7.98412 6.55971 7.50905 7.19314 6.96611 7.73608C6.46841 8.21115 5.88023 8.2564 5.2468 8.30164C4.31927 8.36951 3.75371 8.70885 3.18815 9.41015C2.91668 9.74948 2.87143 10.0662 2.7357 10.4508C2.57734 10.9259 2.62259 11.3783 2.30587 11.7629C2.19276 11.9439 1.49146 12.1701 1.08426 12.3058C0.880654 12.3737 0.654428 12.4416 0.49607 12.5773C0.40558 12.6452 0.360331 12.713 0.315086 12.8261C0.269841 12.9166 0.201978 12.9845 0.156733 13.075C0.088865 13.256 0.0209947 13.5501 0.111485 13.7537C0.15673 13.8668 0.315086 13.9346 0.428198 13.9573C0.586556 14.0025 0.767539 13.9573 0.925896 13.912C1.21999 13.8215 1.51408 13.6858 1.76293 13.5501C2.46423 13.1429 2.9393 12.713 3.75371 12.5094C4.81697 12.2606 6.44579 12.4416 6.89824 13.6179C7.35069 14.8169 5.67662 16.0838 6.64939 17.1923C7.07921 17.6674 7.89363 17.509 8.05198 16.8529C8.21034 16.1743 7.55429 15.8123 7.39593 15.2241C7.23758 14.6586 7.37331 13.8894 7.93887 13.6632C8.50443 13.4143 9.00213 13.6406 9.54507 13.7084C10.2237 13.7763 11.0382 13.5727 11.7168 13.4822C12.124 13.4143 12.5312 13.3691 12.9384 13.2786C13.2325 13.2333 13.6171 13.075 13.9338 13.1202C14.4542 13.2107 14.8387 13.9573 14.522 14.4323C14.1827 14.9527 13.5719 15.3599 13.9112 16.0612C14.2505 16.7851 15.721 16.6946 15.8567 15.8576C15.9472 15.292 15.1555 14.8622 15.1102 14.274C15.0423 13.5048 15.9246 13.4822 16.4902 13.5048C17.0557 13.5274 17.5761 13.731 17.9606 14.1609C18.3 14.5455 18.6846 14.9753 18.5036 15.4504C18.3226 15.948 17.6439 16.8303 18.0964 17.2828C18.4583 17.6447 19.1596 17.5542 19.5216 17.2602C19.9514 16.8982 19.4311 15.948 19.3859 15.473C19.318 14.7943 19.6573 14.6133 20.2908 14.274C20.7885 14.0025 21.4219 14.0025 21.9648 13.7537C22.5304 13.5048 22.915 13.0524 23.5031 12.8714C24.0461 12.6904 24.5664 12.3737 25.0867 12.2153C25.5618 12.0796 26.331 12.238 26.2405 12.894C26.1726 13.3465 25.2903 14.1156 26.1952 14.2514C26.7834 14.3192 27.3264 13.8668 27.0549 13.2333C26.8287 12.713 26.5572 12.3058 26.8513 11.7403C27.1228 11.2199 27.5752 11.1068 27.9824 10.7223C28.2313 10.496 28.9326 9.61375 29.2266 10.3377C29.3398 10.6091 29.0683 10.858 29.1588 11.1068C29.2493 11.4009 29.5434 11.3331 29.7696 11.1747C30.3125 10.7901 30.0184 10.2472 29.8601 9.77211C29.7696 9.52326 29.7243 9.25179 29.747 8.98032C29.7696 8.70885 29.9053 8.48262 29.6339 8.27902C29.4302 8.12066 29.1135 8.14329 28.8873 8.07542C28.6837 8.00755 28.5253 7.89444 28.3217 7.80395C28.0729 7.69084 28.3444 7.87182 28.2086 7.78133Z" fill="#FBDF6A"/>
<path opacity="0.55" d="M16.6712 8.14329C15.4948 7.23839 14.4994 6.15251 13.4135 5.17974C12.9384 5.81317 12.1693 6.0394 11.106 5.8358C10.4273 5.70006 9.81654 5.63219 9.25098 6.10727C9.38671 6.17513 9.52245 6.22038 9.63556 6.28825C12.3729 7.71346 14.7482 9.38753 17.9606 9.4554C18.3 9.4554 18.6167 9.43278 18.9108 9.41015C18.119 9.09344 17.3498 8.68623 16.6712 8.14329Z" fill="#ECBC49"/>
<path opacity="0.55" d="M26.2405 7.1479C25.4035 6.35611 24.7022 6.58234 23.6615 6.35611C23.1638 6.243 22.8019 6.0394 22.4625 5.65482C21.7386 4.79516 21.5124 4.4332 20.3586 4.79516C19.7931 4.97614 19.1823 4.81778 18.6846 4.54631C18.3452 4.36533 18.1869 3.89026 17.8702 3.7319C17.6439 3.64141 17.4177 3.57354 17.1915 3.55092C16.9653 3.7319 16.7843 3.9355 16.6033 4.18435C16.5354 4.27484 16.4676 4.36533 16.3771 4.4332C16.3771 4.45582 16.3771 4.47844 16.3771 4.47844C16.7843 4.86303 17.4177 5.20236 17.7118 5.38334C18.662 5.94891 19.6573 6.42398 20.698 6.83119C22.6209 7.55511 24.5212 7.30626 26.512 7.39675C26.4215 7.30626 26.331 7.23839 26.2405 7.1479Z" fill="#ECBC49"/>
<path opacity="0.55" d="M6.94351 16.0159C6.73991 15.9481 6.58155 15.8349 6.44582 15.6766C6.26484 16.1969 6.17435 16.7172 6.60418 17.1923C7.034 17.6674 7.84841 17.509 8.00677 16.853C8.09726 16.4684 7.91628 16.1969 7.7353 15.9254C7.48645 16.0612 7.21498 16.1064 6.94351 16.0159Z" fill="#ECBC49"/>
<path opacity="0.55" d="M14.7482 15.3146C14.4768 15.3372 14.2279 15.1789 14.0696 14.9527C13.8207 15.2694 13.6397 15.6087 13.866 16.0612C14.2053 16.7851 15.6758 16.6946 15.8115 15.8576C15.8567 15.5409 15.6305 15.2468 15.4043 14.9527C15.2459 15.1789 14.9745 15.292 14.7482 15.3146Z" fill="#ECBC49"/>
<path opacity="0.55" d="M18.9334 16.1969C18.662 16.1969 18.4131 16.0385 18.2774 15.8123C18.0285 16.31 17.6666 16.9208 18.0285 17.3054C18.3905 17.6674 19.0918 17.5769 19.4537 17.2828C19.7478 17.0113 19.5895 16.4684 19.4311 15.9933C19.318 16.1064 19.137 16.1969 18.9334 16.1969Z" fill="#ECBC49"/>
<path opacity="0.55" d="M26.9418 13.1429C26.7608 13.3012 26.512 13.3691 26.2405 13.3012C26.1726 13.2786 26.1048 13.256 26.0369 13.2107C25.8107 13.6406 25.4035 14.1383 26.1048 14.2287C26.693 14.2966 27.2359 13.8442 26.9644 13.2107C26.9644 13.1655 26.9418 13.1429 26.9418 13.1429Z" fill="#ECBC49"/>
<path opacity="0.55" d="M9.97487 13.1881C9.52242 13.1202 9.09259 13.1655 8.66277 13.1881C8.34605 13.2786 8.0972 13.4143 7.93884 13.6406C8.05196 13.5727 8.18769 13.5727 8.3008 13.5727C8.70801 13.5501 9.06997 13.6858 9.49979 13.7311C10.1785 13.7989 10.9476 13.6179 11.6037 13.5048C11.0608 13.3917 10.5178 13.256 9.97487 13.1881Z" fill="#F2CC49"/>
<path opacity="0.55" d="M1.60457 13.3012C1.24261 13.2786 0.903269 13.1655 0.699667 12.8488C0.631799 12.7357 0.609177 12.6226 0.586554 12.5094C0.541309 12.5321 0.473439 12.5773 0.428194 12.5999C0.337704 12.6678 0.292462 12.7357 0.247217 12.8488C0.201972 12.9393 0.134101 13.0071 0.0888564 13.0976C0.0209889 13.2786 -0.0468744 13.5727 0.0436156 13.7763C0.0888606 13.8894 0.247217 13.9573 0.360329 13.9799C0.518687 14.0251 0.699669 13.9799 0.858027 13.9347C1.15212 13.8442 1.44621 13.7084 1.69506 13.5727C1.87604 13.4596 2.05702 13.3691 2.21538 13.256C2.01177 13.3012 1.80817 13.3238 1.60457 13.3012Z" fill="#ECBC49"/>
<path opacity="0.55" d="M7.59952 8.66361C6.62676 9.38753 4.29664 9.29704 3.82156 10.4508C3.64058 10.9032 3.50485 11.3104 3.27863 11.695C3.97992 11.6045 4.72647 11.3331 5.42776 11.3104C5.9707 11.3104 6.49102 11.4009 7.01134 11.514C7.69001 11.6724 8.30082 11.5593 8.9795 11.5593C10.2011 11.5819 11.3549 12.0344 12.5539 12.0117C13.5945 11.9891 14.4315 11.4009 15.4495 11.2878C16.8295 11.1521 17.938 13.1655 19.2954 12.4416C20.4717 11.8081 21.6707 11.0616 22.9602 10.6544C24.1818 10.2698 26.15 10.7449 27.1001 9.70424C27.3263 9.4554 27.5073 9.20655 27.7109 8.9577C26.8965 8.91246 26.0821 8.9577 25.2903 9.09344C23.752 9.36491 22.5078 10.0662 21.0599 10.5639C19.7931 10.9937 18.4131 11.0616 17.0784 10.9032C14.1827 10.5413 12.0562 9.34228 9.54506 7.96231C9.1831 7.75871 8.82114 7.60035 8.43656 7.44199C8.36869 7.89444 8.09722 8.30165 7.59952 8.66361Z" fill="#ECBC49"/>
<path opacity="0.55" d="M22.7566 12.3963C21.8744 12.8035 19.7252 14.3871 19.7252 14.5681C19.861 14.4776 20.0193 14.3871 20.2229 14.274C20.7206 14.0025 21.354 14.0025 21.897 13.7537C22.4625 13.5048 22.8471 13.0524 23.4353 12.8714C23.9782 12.6904 24.4986 12.3737 25.0189 12.2154C25.2451 12.1475 25.5166 12.1475 25.7428 12.238V12.2154C25.7428 12.1022 23.7068 11.9665 22.7566 12.3963Z" fill="#F2CC49"/>
<path opacity="0.55" d="M29.2945 10.3603C29.2493 10.3603 29.204 10.3603 29.1588 10.3377C29.2266 10.5865 29.0004 10.8128 29.0683 11.0616C29.1588 11.3557 29.4529 11.2878 29.6791 11.1295C30.0863 10.8354 30.0184 10.4508 29.8827 10.0662C29.7243 10.2472 29.5207 10.3603 29.2945 10.3603Z" fill="#ECBC49"/>
<path d="M4.77174 10.7901C4.77174 10.7901 3.00718 11.0842 2.69047 11.6498C2.37375 12.1927 2.91669 12.7809 3.84422 12.2606C4.77174 11.7176 5.02059 10.7449 4.77174 10.7901Z" fill="#14B661"/>
<path d="M10.0427 6.65021V7.19315L11.943 7.53249L12.1466 6.71808C12.1692 6.7407 10.5178 6.42399 10.0427 6.65021Z" fill="#14B661"/>
<path d="M17.3272 4.56894L17.7118 5.11188L19.1823 4.47845C19.1823 4.47845 19.0013 3.84502 18.8429 3.75453L17.3272 4.56894Z" fill="#FF3E4A"/>
<path d="M18.956 8.39215V9.0482C18.956 9.0482 20.9241 9.22918 20.9241 9.20656C20.9241 9.18393 21.1051 8.1433 21.1051 8.1433L18.956 8.39215Z" fill="#14B661"/>
<path d="M23.0054 5.31549L22.5756 5.81318C22.5756 5.81318 23.1412 6.67284 23.5031 6.83119L24.1139 6.28825C24.1139 6.31088 23.0054 5.47384 23.0054 5.31549Z" fill="#FF3E4A"/>
<path d="M8.91162 11.6045V12.3511L10.6083 12.5094L11.2644 11.3557C11.2644 11.3557 9.65816 11.4688 8.91162 11.6045Z" fill="#FF3E4A"/>
<path d="M21.3088 11.4688C21.3088 11.4688 20.4944 11.0616 19.6347 11.2652C18.775 11.4688 18.6845 11.1295 18.4357 11.3557C18.1869 11.5819 17.9833 12.5999 19.3406 12.4416C20.698 12.2832 20.2455 11.8986 20.698 11.8308C21.173 11.7629 21.5576 11.6498 21.3088 11.4688Z" fill="#14B661"/>
<path d="M26.5346 10.3603C26.5346 10.3603 27.0775 9.02556 28.1181 8.84458C29.1588 8.6636 29.1362 9.65899 28.3217 9.90784C27.5073 10.1567 26.3762 10.677 26.5346 10.3603Z" fill="#14B661"/>
<path d="M21.7612 5.7453C21.5124 4.81778 20.3134 4.70467 19.5442 4.81778C18.7072 4.93089 17.5534 5.45121 17.4177 6.37873C17.3272 6.98954 18.0285 7.39675 18.5488 7.53248C19.137 7.66822 20.1098 7.80395 20.6527 7.48724C21.1504 7.21577 22.01 6.67283 21.7612 5.7453Z" fill="#766974"/>
<path opacity="0.65" d="M21.7612 5.7453C21.5124 4.81778 20.3134 4.70467 19.5442 4.81778C18.7072 4.93089 17.5534 5.45121 17.4177 6.37873C17.3272 6.98954 18.0285 7.39675 18.5488 7.53248C19.137 7.66822 20.1098 7.80395 20.6527 7.48724C21.1504 7.21577 22.01 6.67283 21.7612 5.7453ZM20.4265 6.49185C20.0871 6.62758 19.8157 6.69545 19.1822 6.71807C18.775 6.74069 18.3452 6.58234 18.2321 6.17513C18.119 5.76793 18.3678 5.36072 18.775 5.22499C19.318 5.04401 19.8609 4.95352 20.4265 4.95352C21.3992 4.95352 21.3314 6.12989 20.4265 6.49185Z" fill="#6C5F66"/>
<path d="M20.3812 5.45121C20.3134 5.40597 20.2455 5.40597 20.1776 5.40597C20.0193 5.40597 19.8383 5.45121 19.7025 5.51908C19.6121 5.56433 19.4763 5.63219 19.4311 5.74531C19.4084 5.8358 19.4311 5.92629 19.5216 5.99415C19.6347 6.06202 19.8157 6.06202 19.9514 6.0394C20.0645 6.01678 20.2002 5.99415 20.3134 5.92629C20.3812 5.88104 20.4717 5.8358 20.5396 5.74531C20.5622 5.74531 20.5396 5.5417 20.3812 5.45121Z" fill="#AAA2A9"/>
<path d="M12.9385 7.5551C12.9385 7.5551 14.0696 6.08464 14.9292 5.85841C15.7889 5.63219 16.7164 6.28824 16.0604 6.92167C15.3817 7.5551 12.5765 7.98493 12.9385 7.5551Z" fill="#14B661"/>
<path d="M5.54089 10.7901L5.97072 11.5367L11.649 9.61376L11.6942 8.88984C11.6942 8.88984 10.3595 7.66822 8.50444 8.1433C6.6494 8.61837 5.58614 9.72687 5.54089 10.7901Z" fill="#D12424"/>
<path d="M5.54089 10.7901L11.7168 8.88984C11.7168 8.88984 10.3821 7.66822 8.52707 8.1433C6.6494 8.61837 5.58614 9.72687 5.54089 10.7901Z" fill="#EA3333"/>
<path d="M7.14707 9.83999C7.32805 9.83999 7.89362 10.021 7.96148 9.99835C8.02935 9.99835 7.53166 9.56852 7.53166 9.56852C7.53166 9.56852 8.00673 9.13869 9.06998 9.13869C9.06998 9.13869 8.77589 9.52327 9.06998 9.61376C9.36408 9.70425 9.47719 9.13869 9.47719 9.0482C9.47719 8.98033 10.2237 8.93509 10.5404 9.27443L11.7394 8.91247C11.7394 8.91247 10.4047 7.69085 8.54967 8.16592C6.672 8.641 5.60874 9.7495 5.58612 10.8128L6.80773 10.4282C6.85298 10.2019 7.01134 9.83999 7.14707 9.83999Z" fill="#C91D1D"/>
<path d="M7.96152 8.95772C8.95691 8.61838 10.088 8.41478 10.9251 9.1387L11.7169 8.88985C11.7169 8.88985 10.3821 7.66823 8.52709 8.14331C6.64942 8.61838 5.58616 9.72688 5.56354 10.7901L6.1291 10.6092C6.28746 9.65902 7.12449 9.25181 7.96152 8.95772Z" fill="#FF3333"/>
<path d="M7.2376 10.1793C7.31257 10.1793 7.37334 10.1388 7.37334 10.0888C7.37334 10.0389 7.31257 9.99834 7.2376 9.99834C7.16264 9.99834 7.10187 10.0389 7.10187 10.0888C7.10187 10.1388 7.16264 10.1793 7.2376 10.1793Z" fill="#FF7E70"/>
<path d="M8.14244 9.59114C8.14244 9.65901 8.07457 9.70426 8.0067 9.70426C7.93883 9.70426 7.87097 9.65901 7.87097 9.59114C7.87097 9.52328 7.93883 9.47803 8.0067 9.47803C8.07457 9.50065 8.14244 9.5459 8.14244 9.59114Z" fill="#FF7E70"/>
<path d="M8.64019 9.61378C8.64019 9.68164 8.57232 9.72689 8.50445 9.72689C8.43658 9.72689 8.36871 9.68164 8.36871 9.61378C8.36871 9.54591 8.43658 9.50066 8.50445 9.50066C8.57232 9.50066 8.64019 9.54591 8.64019 9.61378Z" fill="#FF7E70"/>
<path d="M9.74867 9.31967C9.81114 9.31967 9.86178 9.27916 9.86178 9.22918C9.86178 9.1792 9.81114 9.13869 9.74867 9.13869C9.6862 9.13869 9.63556 9.1792 9.63556 9.22918C9.63556 9.27916 9.6862 9.31967 9.74867 9.31967Z" fill="#FF7E70"/>
<path d="M26.806 9.22918L26.4441 8.66362C26.4441 8.66362 24.9736 8.77673 24.5212 8.73148L26.0821 7.62298C26.0821 7.62298 23.8877 7.21578 22.7792 7.78134C21.7612 8.30166 21.9422 8.91246 21.8743 9.38754C21.8743 9.4554 21.8743 9.54589 21.897 9.61376L21.6255 10.3377C21.535 10.5865 21.6255 10.8806 21.8743 11.0164C21.9648 11.0616 22.0553 11.1068 22.1232 11.1295C22.2363 11.1747 22.372 11.1973 22.553 11.2426C23.0507 11.3331 23.7972 11.3783 24.6795 11.1521C24.9962 11.0616 25.2677 10.9485 25.5166 10.8128C25.5844 10.7675 25.6749 10.7223 25.7428 10.6544C25.9464 10.496 26.1274 10.3377 26.2631 10.1793C26.3083 10.1341 26.3536 10.0662 26.3988 10.021C26.6929 9.59114 26.806 9.22918 26.806 9.22918Z" fill="#E7D1CA"/>
<path d="M21.5124 9.72687L21.7839 10.496C21.8517 10.677 22.0101 10.8354 22.1911 10.8806C22.6435 11.0164 23.5484 11.22 24.7248 10.9032C26.4215 10.4508 26.8965 8.9577 26.8965 8.9577L26.5346 8.39214C26.5346 8.39214 25.0641 8.50525 24.6117 8.46001L26.1726 7.35151C26.1726 7.35151 23.9782 6.9443 22.8697 7.50986C21.8517 8.03018 21.5576 8.98033 21.5124 9.4554C21.4671 9.56851 21.4671 9.659 21.5124 9.72687Z" fill="#E65126"/>
<path d="M26.512 8.41477C26.4441 8.8446 26.2858 9.22918 25.9012 9.50065C25.313 9.9531 24.6343 10.2698 23.8878 10.3829C22.9829 10.5187 21.897 10.4508 21.4898 9.68163C21.4898 9.70425 21.4898 9.72687 21.5124 9.72687L21.7839 10.496C21.8518 10.677 22.0101 10.8354 22.1911 10.8806C22.6436 11.0164 23.5485 11.22 24.7248 10.9032C26.4215 10.4508 26.8966 8.95771 26.8966 8.95771L26.512 8.41477Z" fill="#D93300"/>
<path d="M22.7566 8.91247C22.8471 9.0482 22.7566 9.27443 22.553 9.36492C22.3494 9.47803 22.1232 9.45541 22.0553 9.29705C21.9649 9.16131 22.0553 8.93509 22.2589 8.8446C22.4625 8.73149 22.6888 8.75411 22.7566 8.91247Z" fill="#EA8D70"/>
<path d="M24.0914 7.96232C24.1593 8.12068 24.0462 8.30166 23.8652 8.41477C23.6616 8.50526 23.4354 8.46002 23.3675 8.32428C23.2996 8.16592 23.4127 7.98494 23.5937 7.87183C23.7973 7.75872 24.0236 7.80396 24.0914 7.96232Z" fill="#EA8D70"/>
<path d="M24.4986 9.31967C24.5438 9.47803 24.4081 9.65901 24.2045 9.72688C24.0009 9.79474 23.7747 9.72688 23.7294 9.56852C23.6842 9.41016 23.8199 9.22918 24.0235 9.16131C24.2271 9.07082 24.4307 9.16131 24.4986 9.31967Z" fill="#EA8D70"/>
<path d="M25.8785 9.00295C25.9238 9.16131 25.788 9.34229 25.5844 9.41016C25.3808 9.47803 25.1546 9.41016 25.1094 9.2518C25.0641 9.09344 25.1999 8.91246 25.4035 8.8446C25.6071 8.75411 25.8333 8.8446 25.8785 9.00295Z" fill="#EA8D70"/>
<path d="M17.8475 10.858C17.8702 10.8354 17.8702 10.7901 17.8928 10.7675C17.8928 10.7449 17.8928 10.7449 17.8928 10.7223C17.8928 10.677 17.9154 10.6544 17.9154 10.6091C17.9154 10.5865 17.9154 10.5865 17.9154 10.5639C17.9154 10.5413 17.9154 10.496 17.9154 10.4734C17.9154 10.4508 17.9154 10.4282 17.9154 10.4282C17.9154 10.4055 17.8928 10.3829 17.8928 10.3603C17.8928 10.3377 17.8702 10.2924 17.8475 10.2698C17.8475 10.2472 17.8249 10.2246 17.8249 10.2019C17.8023 10.1793 17.8023 10.1567 17.7797 10.1341C17.7797 10.1114 17.757 10.1114 17.757 10.0888C17.6892 9.99834 17.6213 9.93047 17.5534 9.83998L17.5308 9.81736C17.5082 9.79473 17.463 9.77211 17.4403 9.74949C17.1915 9.56851 16.8974 9.43277 16.5807 9.41015C15.4948 9.31966 15.1328 9.8626 15.1328 10.2019C15.1328 10.5413 14.522 11.1521 14.2053 10.7223C14.0243 10.4734 14.1601 10.3377 14.3184 10.2698C14.2732 10.3377 14.2506 10.4734 14.4994 10.4734C14.8614 10.496 15.1102 9.90785 14.4994 9.68162C13.9112 9.4554 12.4181 10.0888 12.1919 10.9711C12.1693 11.0163 12.1919 11.0842 12.1693 11.1068C11.6716 11.7629 12.1693 12.4416 14.2279 12.8262C14.8614 12.9393 15.4495 12.8261 15.8794 12.6678C16.0151 12.6225 16.1282 12.5773 16.2187 12.5321C16.3771 12.4416 16.4902 12.3737 16.5807 12.2606C16.6938 12.1249 16.7617 11.9891 16.7617 11.8534C16.7617 11.8081 16.7617 11.7403 16.739 11.695C16.7164 11.5819 16.6938 11.4688 16.6712 11.3783C16.7164 11.3783 16.7617 11.3783 16.8069 11.3557C16.9879 11.3331 17.2141 11.2652 17.4856 11.1521C17.5534 11.1295 17.5987 11.1068 17.6439 11.0616C17.6666 11.0616 17.6666 11.039 17.6892 11.039C17.7344 11.0163 17.757 10.9937 17.7797 10.9485L17.8023 10.9259C17.8249 10.8806 17.8702 10.858 17.8928 10.8127C17.8249 10.8806 17.8249 10.8806 17.8475 10.858ZM15.6305 11.5367C15.7436 11.4236 15.8794 11.4009 16.0377 11.4236C16.0604 11.4914 16.0604 11.5593 16.0151 11.6272C15.9699 11.6045 15.902 11.6045 15.8568 11.5819C15.8568 11.5819 15.8568 11.5819 15.8341 11.5819C15.721 11.5593 15.6305 11.5367 15.6305 11.5367ZM13.4135 10.1793C13.3683 10.2019 13.3457 10.2019 13.3004 10.2246C13.2778 10.2472 13.2325 10.2472 13.2099 10.2698H13.1873C13.1647 10.2924 13.1421 10.2924 13.1194 10.3151L13.0968 10.3377C13.0742 10.3603 13.0516 10.3603 13.0289 10.3829C13.0289 10.3829 13.0289 10.3829 13.0063 10.3829C13.1873 10.2019 13.4814 10.0888 13.7302 10.0436C13.6171 10.0888 13.5266 10.1341 13.4135 10.1793Z" fill="#E7D1CA"/>
<path d="M14.5447 9.70426C14.5447 9.70426 13.9113 9.81737 14.2054 10.2924C14.5221 10.7449 15.1103 10.0888 15.1329 9.70426C15.1555 9.31967 15.4949 8.73149 16.5808 8.82198C17.6666 8.91247 18.5263 10.2698 17.4857 10.7901C16.445 11.2878 16.0152 10.8128 15.6759 11.1521C15.6759 11.1521 16.3319 11.2426 16.3093 11.3557C16.2867 11.6045 15.4722 11.9213 14.6805 11.7855C14.3185 11.7177 13.7756 11.6272 13.0969 11.2426C11.6038 10.4056 14.0697 8.95771 14.5447 9.70426Z" fill="#EAC086"/>
<path d="M15.9021 11.1973C15.9021 11.1747 15.9021 11.1747 15.9021 11.1973C15.3591 11.5367 14.5221 11.514 14.0697 11.1068C13.8661 10.9259 13.8208 10.6318 13.8661 10.3603C13.9339 9.99834 14.2054 9.79474 14.5221 9.68162C14.047 8.9577 11.6038 10.4055 13.0969 11.2652C13.7756 11.6498 14.3185 11.7403 14.6805 11.8081C15.3365 11.9213 16.0152 11.7176 16.2414 11.4914C16.1057 11.4236 15.9926 11.3104 15.9021 11.1973Z" fill="#D59D63"/>
<path d="M17.463 9.18394C17.4404 9.18394 17.4404 9.20656 17.463 9.18394C17.5535 9.38754 17.5535 9.72688 17.4178 9.90786C17.1463 10.2924 16.8296 10.3603 16.3771 10.3603C15.608 10.3603 15.6532 10.8354 15.4044 11.3557C15.6306 11.2878 15.7211 11.1521 15.7211 11.1521C16.0378 10.8128 16.4902 11.2878 17.5309 10.7901C18.2322 10.4282 18.0059 9.65901 17.463 9.18394Z" fill="#DA9F59"/>
<path d="M14.3637 9.70426C14.3637 9.70426 14.1375 9.99835 14.4994 10.021C14.8614 10.0436 15.1102 9.41017 14.4994 9.16132C13.8886 8.91247 12.1014 9.45541 12.0336 10.5187C11.9657 11.6045 12.7575 12.4642 14.2279 12.6226C15.6984 12.7809 16.8069 12.1701 16.7843 11.5593C16.7617 10.9485 16.5581 10.6092 16.1056 10.6318C16.1056 10.6318 15.8568 10.7675 16.0377 10.9485C16.2187 11.1295 16.1509 11.3783 15.6532 11.4688C15.1555 11.5593 13.6624 11.8986 13.0063 10.8806C12.3503 9.81737 14.047 9.18394 14.3637 9.70426Z" fill="#F6E4CA"/>
<path d="M15.0424 12.1249C14.1827 12.1475 13.4135 12.1249 12.7349 11.5367C12.3277 11.1747 11.9431 10.7901 12.0788 10.2924C12.0562 10.3603 12.0336 10.4282 12.0336 10.5187C11.9657 11.6045 12.7575 12.4642 14.2279 12.6226C15.6984 12.7809 16.8069 12.1701 16.7843 11.5593C16.7843 11.4462 16.7617 11.3557 16.7617 11.2652C16.5581 11.8308 15.7437 12.1022 15.0424 12.1249Z" fill="#F6E4CA"/>
</svg>
