<svg width="33" height="17" viewBox="0 0 33 17" fill="none" xmlns="http://www.w3.org/2000/svg">
<path d="M19.2281 9.48627L4.11224 13.91L4.50899 16.0325L29.9799 12.6007L30.0791 10.7558L19.2281 9.48627Z" fill="#EC9936"/>
<path opacity="0.55" d="M19.2281 9.48627L4.11224 13.8901L4.50899 16.0127L15.5979 14.5249C15.6773 13.8504 15.8757 13.1958 16.4906 12.8586C17.4031 12.3428 18.5338 12.1841 19.5654 12.2238C20.5771 12.2635 21.4102 12.9578 22.0847 13.6521L29.9799 12.5809L30.0592 10.736L19.2281 9.48627Z" fill="#EC9936"/>
<path d="M25.4966 11.6882C23.2947 11.5295 21.0927 11.7874 18.9305 12.1246C17.4427 12.3627 15.3796 12.4618 14.0704 13.2355C11.4321 14.763 9.07144 14.3662 6.4331 15.2787C5.79831 15.4969 5.12385 15.735 4.46922 15.616C3.79476 15.4969 3.15997 14.9018 3.27899 14.2472C3.37818 13.5926 4.09232 13.2355 4.72711 12.9974C6.25456 12.4222 7.8217 11.9461 9.38883 11.5295C16.3517 9.68465 23.6716 9.26806 30.7931 10.2996C30.3567 11.1724 29.3847 11.6485 28.4325 11.7874C27.4208 11.9064 26.4488 11.7675 25.4966 11.6882Z" fill="#6F9E23"/>
<path d="M7.60356 14.9811C6.25464 15.0208 4.90571 15.0605 3.55679 15.1002C3.14021 15.12 2.68396 15.12 2.30705 14.9216C1.93014 14.7233 1.65242 14.267 1.81112 13.8703C1.98966 13.4537 2.5451 13.3545 3.00135 13.4339C3.4576 13.533 3.87418 13.7512 4.33044 13.7512C4.8462 13.7512 5.30246 13.5132 5.77855 13.3148C6.31415 13.1165 6.86959 12.9974 7.44487 12.8982C8.25819 12.7594 9.05167 12.6404 9.865 12.5412C12.1661 12.2238 13.9316 11.2518 16.2327 10.9344C18.2561 10.6567 20.7953 11.0534 22.8186 10.7757C25.4768 10.4186 28.1747 10.0417 30.7138 9.1887C31.1701 9.03001 31.7454 8.87131 32.1223 9.1887C32.519 9.52593 32.3801 10.2401 31.9834 10.5773C31.5867 10.9145 31.0312 10.9939 30.4956 11.0534C30.1584 11.0931 29.8013 11.1327 29.4641 11.1923C28.9483 11.2518 28.4326 11.3311 27.9366 11.5096C27.1431 11.8072 26.4687 12.3626 25.6355 12.5015C24.8024 12.6205 23.9692 12.2635 23.1559 12.0254C20.8151 11.351 18.3156 11.708 15.8955 12.0453C14.864 12.204 13.7927 12.3626 12.9001 12.8586C12.1066 13.3148 11.452 14.0091 10.6386 14.4257C9.68646 14.9216 8.63509 14.9613 7.60356 14.9811Z" fill="#9FCC29"/>
<path opacity="0.55" d="M17.3039 11.4501C17.6808 11.2914 17.9585 11.3113 18.3751 11.2716C19.3273 11.1923 20.2596 11.0336 21.192 10.9344C19.5256 10.9542 17.7205 10.7757 16.2128 10.9939C13.9117 11.3113 12.1462 12.2833 9.84512 12.6007C9.0318 12.7197 8.21848 12.8189 7.42499 12.9578C6.86955 13.0569 6.29428 13.176 5.75867 13.3743C5.28258 13.5529 4.82633 13.8108 4.31056 13.8108C4.013 13.8108 3.71545 13.7116 3.41789 13.6124C2.98147 14.5249 4.80649 14.1877 5.26274 14.1083C6.05623 13.9695 6.84972 13.8901 7.66304 13.8306C9.58724 13.6521 11.4519 13.0768 13.3365 12.6999C14.1299 12.3627 15.0028 12.2436 15.8359 12.1246C16.1732 12.0849 16.5104 12.0254 16.8675 11.9857C17.046 11.7675 17.1055 11.5295 17.3039 11.4501Z" fill="#B87936"/>
<path opacity="0.55" d="M26.31 10.5971C27.044 10.4781 27.7779 10.2996 28.5119 10.1607C28.6309 10.1409 29.1269 10.1012 29.4839 10.0219C29.3848 9.92268 29.3252 9.80366 29.2657 9.6648C27.2027 10.2202 25.0603 10.5178 22.9178 10.8154C24.0486 10.7757 25.1991 10.7955 26.31 10.5971Z" fill="#B87936"/>
<path d="M2.98145 12.5214L3.23933 14.0091L16.9865 11.7279L16.6691 10.5178L16.0343 9.4466L6.7505 10.4583L2.98145 12.5214Z" fill="#FFCF08"/>
<path d="M2.98138 12.5214L3.23927 14.0091L16.9864 11.7279L16.669 10.5178L2.98138 12.5214Z" fill="#EFA708"/>
<path d="M15.7963 9.74415L16.1533 11.2518L29.5037 9.72431L29.0475 8.39522C29.0475 8.39522 25.2983 6.29248 21.7672 6.60988C18.4941 6.90743 16.3715 8.13734 15.7963 9.74415Z" fill="#F73333"/>
<path d="M26.2703 7.22483C24.961 6.80825 23.3542 6.47101 21.7672 6.60987C20.1009 6.74873 18.7322 7.14548 17.7205 7.72075L26.2703 7.22483Z" fill="#D63333"/>
<path opacity="0.55" d="M20.6365 9.74415C20.6365 9.38708 20.7555 9.04985 20.9539 8.7523L16.1732 9.03002C16.0145 9.26806 15.8756 9.50611 15.7963 9.74415L16.1533 11.2518L20.8349 10.7162C20.7159 10.4186 20.6365 10.1012 20.6365 9.74415Z" fill="#D63333"/>
<path d="M15.7963 9.74415L29.0475 8.39522C29.0475 8.39522 25.2983 6.29248 21.7672 6.60988C18.4941 6.90743 16.3715 8.13734 15.7963 9.74415Z" fill="#EA3333"/>
<path d="M19.0297 8.67295C19.3669 8.71262 20.4778 9.16887 20.5969 9.16887C20.7159 9.16887 19.8232 8.35555 19.8232 8.35555C19.8232 8.35555 20.7555 7.81995 22.8781 8.05799C22.8781 8.05799 22.3028 8.59359 22.9376 8.8118C23.5923 9.03001 23.751 8.13734 23.7311 8.01832C23.7113 7.91913 25.3578 8.03816 26.2306 8.67295L29.0475 8.37539C29.0475 8.37539 25.2983 6.27265 21.7672 6.59005C18.4941 6.8876 16.3715 8.1175 15.7764 9.72431L18.1569 9.48626C18.3949 9.16887 18.7917 8.65311 19.0297 8.67295Z" fill="#C91D1D"/>
<path d="M20.7159 7.5819C22.6004 7.32402 24.9213 7.26451 27.1629 8.57376L29.0475 8.37539C29.0475 8.37539 25.2983 6.27265 21.7672 6.59005C18.4941 6.8876 16.3715 8.1175 15.7764 9.72431L16.8873 9.60529C17.5618 8.23653 19.1289 7.81995 20.7159 7.5819Z" fill="#C92222"/>
<path d="M19.3868 9.16886C19.367 9.24821 19.2678 9.28788 19.1289 9.26805C18.9901 9.24821 18.8909 9.16886 18.9107 9.08951C18.9306 9.01016 19.0298 8.97049 19.1686 8.99032C19.3075 9.01016 19.4067 9.08951 19.3868 9.16886Z" fill="#FF7E70"/>
<path d="M21.0134 8.57376C21.0134 8.67295 20.8944 8.71262 20.7357 8.69278C20.5969 8.67294 20.4778 8.59359 20.4778 8.49441C20.4778 8.41506 20.5969 8.35555 20.7357 8.37539C20.8944 8.39523 21.0134 8.49441 21.0134 8.57376Z" fill="#FF7E70"/>
<path d="M22.0251 8.73245C22.0251 8.83164 21.9061 8.91098 21.7275 8.89115C21.5689 8.87131 21.43 8.77213 21.43 8.67294C21.43 8.57376 21.5689 8.51424 21.7077 8.53408C21.8862 8.53408 22.0251 8.63327 22.0251 8.73245Z" fill="#FF7E70"/>
<path d="M24.6832 8.45473C24.7031 8.53408 24.584 8.59359 24.4452 8.57376C24.3063 8.55392 24.1675 8.47457 24.1675 8.39522C24.1476 8.31587 24.2666 8.2762 24.4055 8.2762C24.5444 8.29604 24.6634 8.37538 24.6832 8.45473Z" fill="#FF7E70"/>
<path d="M4.27094 10.3393L4.72719 11.9659L17.8594 9.86317L17.4626 8.53408C17.4626 8.53408 13.9515 6.41151 10.4403 6.78842C7.04813 7.12565 4.82637 8.55392 4.27094 10.3393Z" fill="#F73333"/>
<path opacity="0.55" d="M8.45657 9.22838C8.43673 9.14903 8.39706 9.08952 8.37722 9.01017L4.88589 9.20854C4.60817 9.56561 4.38996 9.94252 4.27094 10.3393L4.72719 11.9659L9.66663 11.1724C9.01201 10.7558 8.61527 10.0417 8.45657 9.22838Z" fill="#D63333"/>
<path d="M4.27094 10.3393L17.4626 8.53408C17.4626 8.53408 13.9515 6.41151 10.4403 6.78842C7.04813 7.12565 4.82637 8.55392 4.27094 10.3393Z" fill="#EA3333"/>
<path d="M7.66309 9.0697C8.02015 9.10937 9.15087 9.54579 9.28973 9.54579C9.40875 9.54579 8.47641 8.69279 8.47641 8.69279C8.47641 8.69279 9.42859 8.09767 11.571 8.31588C11.571 8.31588 11.0156 8.911 11.6305 9.10937C12.2851 9.32758 12.424 8.3754 12.4042 8.25637C12.3843 8.15719 13.9911 8.25637 14.8243 8.87133L17.4626 8.51425C17.4626 8.51425 13.9515 6.39168 10.4403 6.76859C7.04813 7.12566 4.82637 8.53409 4.27094 10.3194L6.79025 9.9822C7.00846 9.62513 7.42504 9.03002 7.66309 9.0697Z" fill="#C91D1D"/>
<path d="M9.38892 7.85962C11.2933 7.54223 13.5745 7.44304 15.717 8.77213L17.4626 8.53408C17.4626 8.53408 13.9515 6.41151 10.4403 6.78842C7.04813 7.14549 4.82637 8.55392 4.27094 10.3393L5.46116 10.1806C6.09595 8.61343 7.74243 8.1175 9.38892 7.85962Z" fill="#C92222"/>
<path d="M8.05977 9.58545C8.05977 9.66479 7.92091 9.72431 7.78205 9.70447C7.64319 9.68463 7.54401 9.60529 7.54401 9.52594C7.56384 9.44659 7.68287 9.38708 7.80189 9.40691C7.96059 9.40691 8.05977 9.48626 8.05977 9.58545Z" fill="#FF7E70"/>
<path d="M9.70626 8.91098C9.70626 9.01017 9.58723 9.06968 9.42854 9.04984C9.28968 9.03001 9.17065 8.93082 9.17065 8.85147C9.17065 8.75229 9.28968 8.69277 9.44838 8.71261C9.58724 8.71261 9.70626 8.8118 9.70626 8.91098Z" fill="#FF7E70"/>
<path d="M10.718 9.04985C10.718 9.16887 10.599 9.22838 10.4204 9.20854C10.2617 9.1887 10.1229 9.08952 10.1229 8.9705C10.1229 8.87131 10.2419 8.79196 10.4006 8.8118C10.5791 8.83164 10.718 8.93082 10.718 9.04985Z" fill="#FF7E70"/>
<path d="M13.3364 8.69278C13.3563 8.77213 13.2571 8.83165 13.0984 8.81181C12.9595 8.79197 12.8405 8.71262 12.8207 8.63328C12.8008 8.55393 12.9198 8.49441 13.0587 8.51425C13.1976 8.53409 13.3166 8.61344 13.3364 8.69278Z" fill="#FF7E70"/>
<path d="M22.9376 5.77673C22.9376 5.77673 15.1416 5.93543 14.9631 6.45119C14.7845 6.94712 16.193 8.5936 17.7998 8.79197C19.4066 8.99034 29.226 8.058 29.9599 7.30419L29.8211 6.39168C29.8211 6.41152 26.9844 5.04276 22.9376 5.77673Z" fill="#DB4C51"/>
<path d="M27.282 7.18515C25.457 7.52239 23.6121 7.68108 21.7474 7.8001C20.0613 7.89929 18.2363 8.25636 16.6493 7.66124C15.8955 7.38352 15.34 7.06613 14.9433 6.64955C15.0623 7.28434 16.3319 8.63326 17.78 8.8118C19.3868 9.01017 29.2062 8.07782 29.9402 7.32401L29.8211 6.53053C29.2855 7.06613 28.016 7.04629 27.282 7.18515Z" fill="#F27162"/>
<path d="M18.5537 7.70092C19.2281 7.83978 19.8233 8.2762 20.5176 8.23653C21.6086 8.17702 22.3227 6.90744 23.4138 6.84793C24.0089 6.80825 24.5842 7.14548 25.1793 7.12565C25.7744 7.08597 26.2703 6.70907 26.8456 6.5107C27.6788 6.23298 28.5714 6.41151 29.4046 6.6694C30.2378 6.92728 31.0511 7.28435 31.9041 7.3637C32.2016 7.38353 32.5389 7.38353 32.7769 7.18516C33.015 6.98679 33.0943 6.59005 32.8563 6.39168C32.6777 6.23298 32.4198 6.27265 32.1818 6.29249C31.9438 6.31233 31.666 6.23298 31.5867 6.01477C31.5073 5.71721 31.8842 5.49901 32.0033 5.20145C32.1223 4.90389 31.9041 4.54682 31.6065 4.40796C31.309 4.2691 30.9717 4.28894 30.6543 4.30878C28.4921 4.50715 26.3298 5.18161 24.1676 4.9634C22.779 4.82454 21.4301 4.32861 20.0216 4.22943C18.276 4.1104 16.4906 4.64601 15.102 5.69738C14.9235 5.83624 14.745 5.9751 14.6458 6.17347C14.3879 6.6694 14.7251 7.32402 15.221 7.58191C15.717 7.83979 16.3121 7.81995 16.8675 7.76044C17.423 7.70093 17.9982 7.5819 18.5537 7.70092Z" fill="#9FCC29"/>
<path d="M14.7449 7.36369C15.1417 7.38352 15.4591 7.68108 15.8558 7.74059C16.3716 7.81994 16.9072 7.44303 17.0659 6.92727C17.2246 6.43134 17.0659 5.85606 16.7286 5.43948C16.3914 5.04274 15.8955 4.78486 15.3797 4.646C14.1498 4.3286 12.8406 4.66583 11.6702 5.14193C10.4799 5.61802 9.34922 6.23297 8.11931 6.49085C7.10762 6.70906 5.99674 6.70906 5.10407 7.2645C4.64782 7.54222 4.29075 7.93896 3.89401 8.2762C3.49726 8.61343 3.02117 8.91098 2.48557 8.91098C2.14834 8.91098 1.83094 8.79196 1.49371 8.73245C1.15648 8.67294 0.779575 8.71261 0.541529 8.93082C0.243972 9.22838 0.283648 9.74414 0.561368 10.0417C0.839087 10.3393 1.2755 10.4583 1.69208 10.4186C2.10866 10.3789 2.48557 10.2004 2.84264 10.0219C3.19971 9.84333 3.57661 9.64496 3.97335 9.52593C5.10407 9.22838 6.37365 9.76398 7.40518 9.22838C8.13915 8.85147 8.57557 7.99847 9.36905 7.8001C10.5196 7.50254 11.7098 8.73245 12.8406 8.33571C13.5349 8.09766 14.0109 7.30418 14.7449 7.36369Z" fill="#9FCC29"/>
<path d="M14.864 7.00662C13.4159 6.86776 12.2653 7.9588 10.8767 7.99848C11.5313 8.23652 12.2058 8.55392 12.8406 8.33571C13.5349 8.09766 14.011 7.30418 14.745 7.36369C15.1417 7.38353 15.4591 7.68108 15.8558 7.7406C16.1335 7.78027 16.4113 7.68108 16.6493 7.52239C16.074 7.4232 15.5186 7.08597 14.864 7.00662Z" fill="#6F9E23"/>
<path opacity="0.55" d="M3.75516 9.40691C5.08424 9.40691 6.41333 9.36724 7.74242 9.32757C10.6982 9.20854 13.4357 8.69278 16.3121 8.07783C19.0297 7.48272 21.8466 7.83978 24.5643 7.16532C25.7744 6.86776 26.9646 6.51069 28.1945 6.352C28.869 6.27265 29.5633 6.1933 30.2377 6.09412C30.2774 6.09412 30.3964 6.07428 30.5551 6.05444C30.5154 6.01477 30.4956 5.97509 30.4559 5.91558C30.1782 5.41965 30.0592 4.92373 30.0195 4.40796C28.0755 4.66584 26.1314 5.18161 24.1676 4.98324C22.779 4.84438 21.43 4.34845 20.0216 4.24926C18.7124 4.15007 17.3833 4.42779 16.2129 5.02291C15.955 4.86421 15.6773 4.74519 15.3797 4.66584C14.1498 4.34845 12.8406 4.68568 11.6702 5.16177C10.4799 5.63786 9.34923 6.25281 8.11933 6.51069C7.10763 6.7289 5.99675 6.7289 5.10408 7.28434C4.64783 7.56206 4.29076 7.9588 3.89402 8.29603C3.59646 8.55392 3.25923 8.77213 2.88232 8.87132C3.06086 9.16887 2.80297 9.40691 3.75516 9.40691Z" fill="#B87936"/>
<path d="M6.71079 7.91913C7.70264 7.34385 8.45645 6.82809 9.60701 7.20499C10.579 7.50255 11.3527 7.64141 12.285 7.20499C12.8801 6.92727 13.4356 6.66939 14.0704 6.53053C14.9432 6.352 16.1731 7.26451 17.0261 6.98679C17.0261 6.96695 17.0459 6.94711 17.0459 6.92727C17.2046 6.43135 17.0459 5.85607 16.7087 5.43949C16.3715 5.04275 15.8755 4.78486 15.3598 4.646C14.1299 4.32861 12.8206 4.66584 11.6502 5.14193C10.46 5.61802 9.32929 6.23298 8.09939 6.49086C7.08769 6.70907 5.97681 6.70907 5.08414 7.26451C4.74691 7.48272 4.44935 7.76043 4.15179 8.01832C5.08414 8.2762 6.01649 8.33571 6.71079 7.91913Z" fill="#6F9E23"/>
<path d="M18.137 0.162819L1.73169 6.78843L2.78306 8.85149C2.78306 8.85149 24.4849 7.14549 30.4955 5.47917L30.7534 3.57481L18.137 0.162819Z" fill="#EA8D1E"/>
<path opacity="0.55" d="M24.2668 1.82915C24.2271 3.17807 24.1279 4.50716 23.7708 5.77674C23.6915 6.07429 23.5923 6.39168 23.4931 6.72892C26.429 6.33217 28.9483 5.9156 30.4758 5.47918L30.7337 3.57481L24.2668 1.82915Z" fill="#EC9936"/>
<path opacity="0.55" d="M13.6935 5.24112C13.3761 4.20959 13.3761 2.86067 13.9118 1.88865L1.71191 6.82809L2.76328 8.89115C2.76328 8.89115 9.38888 8.37539 16.3319 7.62158C15.1417 7.205 14.0903 6.47103 13.6935 5.24112Z" fill="#EC9936"/>
<path d="M18.137 0.162819L1.73169 6.78843L1.87055 6.80826C6.47276 7.14549 12.3247 6.45119 17.6212 5.65771C22.7591 4.88406 30.7534 3.57481 30.7534 3.57481L18.137 0.162819Z" fill="#F89F16"/>
<path d="M17.9387 0.460373L3.06085 6.47103L3.17988 6.49087C7.34567 6.80826 12.6422 6.17347 17.4626 5.43949C22.1243 4.72536 29.3649 3.55497 29.3649 3.55497L17.9387 0.460373Z" fill="#F9C22D"/>
<path opacity="0.32" d="M5.50079 6.27266C8.27799 5.0626 11.075 3.85253 13.8522 2.64246C15.5582 1.88865 17.4031 1.13484 19.2479 1.47207C19.5653 1.53158 19.9224 1.65061 20.0811 1.92833C20.2398 2.20605 20.0612 2.68214 19.724 2.64246C21.8466 2.62262 23.989 2.88051 26.0521 3.41611C26.0719 3.65416 25.8934 3.85253 25.695 3.95171C25.4768 4.0509 25.2387 4.07074 25.0205 4.07074C18.4544 4.34846 5.50079 6.27266 5.50079 6.27266Z" fill="#E39700"/>
<path opacity="0.32" d="M17.2444 2.20604C17.284 2.36474 17.1055 2.56311 16.8278 2.64246C16.5501 2.72181 16.2724 2.6623 16.2327 2.5036C16.193 2.3449 16.3715 2.14653 16.6493 2.06718C16.927 1.98783 17.1849 2.04735 17.2444 2.20604Z" fill="#F9C22D"/>
<path opacity="0.32" d="M23.1162 3.17807C23.1559 3.33677 22.9773 3.53515 22.6996 3.61449C22.4219 3.69384 22.164 3.63433 22.1045 3.47563C22.0648 3.31693 22.2434 3.11856 22.5211 3.03921C22.8186 2.95986 23.0765 3.01938 23.1162 3.17807Z" fill="#F9C22D"/>
<path opacity="0.32" d="M15.3202 4.24928C15.3598 4.40797 15.1813 4.60635 14.9036 4.6857C14.6259 4.76504 14.3482 4.70553 14.3085 4.54683C14.2688 4.38814 14.4473 4.18977 14.7251 4.11042C15.0226 4.01123 15.2805 4.09058 15.3202 4.24928Z" fill="#F9C22D"/>
<path opacity="0.32" d="M10.2419 4.82455C10.2815 4.98324 10.103 5.18162 9.82529 5.26097C9.54757 5.34031 9.26985 5.2808 9.23017 5.1221C9.1905 4.96341 9.36903 4.76504 9.64675 4.68569C9.92447 4.60634 10.2022 4.66585 10.2419 4.82455Z" fill="#F9C22D"/>
<path opacity="0.32" d="M17.9982 3.25742C18.0379 3.41611 17.8594 3.61449 17.5816 3.69384C17.3039 3.77318 17.0262 3.71367 16.9865 3.55497C16.9468 3.39628 17.1254 3.19791 17.4031 3.11856C17.6808 3.01937 17.9585 3.09872 17.9982 3.25742Z" fill="#F9C22D"/>
<path opacity="0.32" d="M19.486 1.82914C19.5257 1.98784 19.3471 2.18621 19.0694 2.26556C18.7917 2.34491 18.5338 2.2854 18.4743 2.1267C18.4346 1.968 18.6132 1.76963 18.8909 1.69028C19.1686 1.61093 19.4463 1.67045 19.486 1.82914Z" fill="#F9C22D"/>
<path opacity="0.32" d="M20.1406 3.63432C20.1604 3.79301 19.9422 3.97155 19.6645 4.01123C19.367 4.0509 19.1289 3.95171 19.0892 3.79302C19.0496 3.63432 19.2876 3.45579 19.5653 3.41611C19.8629 3.3566 20.1009 3.45578 20.1406 3.63432Z" fill="#F9C22D"/>
<path opacity="0.32" d="M14.7449 2.95986C14.7647 3.11856 14.5465 3.29709 14.2688 3.33676C13.9712 3.37644 13.7332 3.27726 13.6935 3.11856C13.6737 2.95986 13.8919 2.78133 14.1696 2.74165C14.4473 2.70198 14.725 2.80116 14.7449 2.95986Z" fill="#F9C22D"/>
<path opacity="0.32" d="M12.4835 4.46748C12.5034 4.62618 12.2852 4.80471 12.0074 4.84439C11.7297 4.88406 11.4718 4.78487 11.4322 4.62618C11.4123 4.46748 11.6305 4.28895 11.9083 4.24927C12.2058 4.2096 12.4637 4.30879 12.4835 4.46748Z" fill="#F9C22D"/>
<path opacity="0.55" d="M22.0449 1.57125C23.136 2.42425 24.227 3.27724 25.2189 4.22943C27.5795 3.85252 29.3648 3.55496 29.3648 3.55496L22.0449 1.57125Z" fill="#F9C22D"/>
<path opacity="0.55" d="M15.8756 3.75334C15.0226 3.27724 14.1696 2.80116 13.3166 2.32507L10.9362 3.27725C11.4519 3.53513 11.9479 3.75333 12.2652 3.93187C13.3364 4.48731 14.4077 5.04275 15.4987 5.55852C15.578 5.59819 15.6772 5.63787 15.7566 5.67754C16.3319 5.59819 16.9071 5.51884 17.4824 5.41965C17.8196 5.36014 18.1767 5.32047 18.5536 5.26096C17.6609 4.78487 16.7683 4.2691 15.8756 3.75334Z" fill="#F9C22D"/>
<path opacity="0.55" d="M8.25818 4.36829L3.08069 6.47103L3.19971 6.49087C5.52066 6.6694 8.17883 6.55038 10.9164 6.27266C10.0237 5.65771 9.13102 5.02292 8.25818 4.36829Z" fill="#F9C22D"/>
</svg>
