<svg width="27" height="22" viewBox="0 0 27 22" fill="none" xmlns="http://www.w3.org/2000/svg">
<path d="M11.5239 7.4159C11.5239 7.4159 3.49634 9.32722 2.65536 9.73497C1.81438 10.1427 -0.428235 12.946 0.106933 16.3099C0.642102 19.6738 3.8786 20.2345 5.78992 19.8267C7.70123 19.419 14.6329 16.157 14.6329 16.157C14.6329 16.157 17.8949 10.0917 11.5239 7.4159Z" fill="#4D294B"/>
<path opacity="0.55" d="M14.6585 10.7289C13.4353 11.0856 12.4159 11.8756 11.1417 11.8502C9.25584 11.7992 7.72679 12.6911 6.07031 13.1499V14.7299C7.87969 14.4496 9.56165 13.2773 11.3965 13.3282C13.7411 13.4047 14.4546 12.844 15.0408 12.2069C14.9898 11.7227 14.8624 11.2131 14.6585 10.7289Z" fill="#8B868A"/>
<path opacity="0.5" d="M11.0907 14.526C9.8929 14.9338 7.57384 16.5647 6.32511 16.9725C6.29963 17.1764 6.27414 17.4057 6.24866 17.6096V19.1387C8.74611 18.3232 14.4036 15.6728 14.4036 15.6728C14.4036 15.6728 14.7604 14.6279 15.0152 13.6341C13.9194 14.6789 13.3588 13.7615 11.0907 14.526Z" fill="#3C153A"/>
<path opacity="0.55" d="M12.6708 8.3843C10.7849 9.22528 8.79715 8.84302 6.40164 9.98981C6.2997 10.0408 6.19776 10.0408 6.09583 10.0917V11.1876C7.29358 10.7289 9.2049 10.0408 10.3262 10.0408C11.8553 10.0408 12.2885 9.48012 13.6137 9.17431C13.3079 8.8685 13.0021 8.61366 12.6708 8.3843Z" fill="#8B868A"/>
<path d="M8.82263 17.4567C9.89297 15.6728 10.5301 14.0928 10.0459 12.156C9.05199 8.02752 4.5158 9.17432 2.96126 9.63303C2.80835 9.684 2.70642 9.73497 2.62997 9.76045C1.78899 10.1682 -0.453626 12.9715 0.0815426 16.3354C0.616711 19.6483 3.77676 20.26 5.68807 19.8522C5.89195 19.7248 8.0581 18.7564 8.82263 17.4567Z" fill="#634361"/>
<path d="M8.87359 11.7227C7.93068 9.91336 5.96839 9.83691 4.36289 10.1172C3.7003 10.2956 3.2161 10.4485 3.03771 10.525C2.32415 10.8818 0.463799 13.2008 0.897031 16.0041C1.35575 18.8074 4.05708 19.2916 5.6371 18.9348C5.86646 18.8838 6.17227 18.7819 6.55453 18.6545C8.41488 16.9725 10.0204 13.8889 8.87359 11.7227Z" fill="#DED4CA"/>
<path d="M7.70125 12.946C7.59932 12.5382 7.24254 11.5189 5.688 11.4934C4.2354 11.4679 2.85925 12.3853 2.47699 13.7869C2.32408 14.3476 2.2986 15.0102 2.62989 15.6728C3.59829 17.6606 7.70125 16.7941 7.72674 13.2008C7.72674 13.1244 7.72674 13.0224 7.70125 12.946Z" fill="#654F42"/>
<path d="M6.68204 14.8828C6.22333 13.8634 4.94911 13.787 4.0062 14.3476C3.57297 14.5515 3.36909 14.8828 3.21619 15.2396C4.21007 15.7238 5.50977 15.7492 6.68204 14.8828Z" fill="#DA2D36"/>
<path d="M5.6371 15.4179C5.61161 15.0102 5.43323 14.577 4.97451 14.577C4.6687 14.577 4.3374 14.9847 4.28643 15.265C4.26095 15.367 4.28643 15.4689 4.31192 15.5708C4.71967 15.5963 5.17838 15.5708 5.6371 15.4179Z" fill="#B1353B"/>
<path d="M2.62989 13.3792C2.55344 13.5321 2.50247 13.6595 2.47699 13.8125C2.32408 14.3731 2.2986 15.0357 2.62989 15.6983C2.96119 16.3864 3.70023 16.7431 4.49024 16.7431C4.7196 15.2141 4.00604 13.8379 2.62989 13.3792Z" fill="#E6545B"/>
<path d="M6.12137 15.7747C5.79007 15.6473 4.87264 14.9847 4.54135 15.1376C4.05715 15.367 3.95521 15.3925 3.59843 15.7747C3.44552 15.9531 3.26713 16.1315 3.08875 16.2844C3.95521 16.9725 5.48426 16.8706 6.52912 15.9531C6.40169 15.9022 6.24879 15.8257 6.12137 15.7747Z" fill="#E6545B"/>
<path d="M7.67591 13.8634C6.63105 13.4557 5.66265 14.2967 5.40781 15.367C5.2549 15.8257 5.33136 16.1825 5.48426 16.5647C6.50363 16.208 7.44655 15.316 7.67591 13.8634Z" fill="#E6545B"/>
<path d="M5.48428 10.3466C5.33137 10.1172 5.05105 9.83692 4.71975 9.8624C4.4904 9.70949 4.00619 9.8624 3.87877 10.0918C3.6749 10.3976 3.95523 10.6014 4.23555 10.6779C4.61782 10.7798 5.89203 10.9837 5.48428 10.3466Z" fill="#FAECE2"/>
<path d="M7.319 9.78594C7.08964 9.5311 6.57996 9.55658 6.27415 9.63303C6.04479 9.684 5.45865 9.86239 5.81543 10.1682C6.07027 10.3721 6.80932 10.525 7.11513 10.3211C7.29352 10.1937 7.67578 9.86239 7.319 9.78594Z" fill="#FAECE2"/>
<path d="M6.73285 10.9837C6.57995 10.8308 6.35059 10.6779 6.09575 10.6269C5.86639 10.5759 5.40767 10.6779 5.688 10.9582C5.89187 11.1621 6.32511 11.2895 6.60543 11.315C7.06415 11.3659 6.86027 11.1366 6.73285 10.9837Z" fill="#FAECE2"/>
<path d="M8.05813 10.5759C7.1407 10.2446 6.91134 12.156 7.75232 11.8247C8.23652 11.5953 8.79717 10.8308 8.05813 10.5759Z" fill="#FAECE2"/>
<path d="M9.20489 12.0795C9.20489 11.7737 8.97553 11.5953 8.6952 11.6463C8.36391 11.7227 8.26197 12.0795 8.33843 12.3853C8.41488 12.7166 8.77166 12.8695 9.05198 12.6657C9.40876 12.4363 9.20489 12.3853 9.20489 12.0795Z" fill="#FAECE2"/>
<path d="M4.59232 11.0601C4.56684 11.0601 4.54135 11.0347 4.51587 11.0601C4.26103 10.8308 3.11423 11.0092 3.54747 11.4424C3.75134 11.6463 4.23554 11.5443 4.4649 11.4424C4.79619 11.2895 4.92361 11.1876 4.59232 11.0601Z" fill="#FAECE2"/>
<path d="M3.03767 10.8308C2.78283 10.7289 2.40056 10.8818 2.19669 11.0856C2.0183 11.264 1.76346 11.6718 2.14572 11.7737C2.47702 11.8502 2.93573 11.5953 3.08864 11.315C3.16509 11.1366 3.36896 10.7034 3.03767 10.8308Z" fill="#FAECE2"/>
<path d="M2.65539 12.1815C2.477 12.1305 2.09474 12.1815 1.9928 12.3344C1.8399 12.3344 1.58506 12.5382 1.63602 12.7166C1.68699 12.946 2.14571 12.8695 2.29861 12.8186C2.477 12.7676 2.75733 12.6402 2.78281 12.4108C2.8083 12.1815 2.83378 12.105 2.65539 12.1815Z" fill="#FAECE2"/>
<path d="M1.55962 13.2008C0.973478 13.1499 0.591214 14.2202 1.20284 14.2712C1.76349 14.3221 2.17124 13.2773 1.55962 13.2008Z" fill="#FAECE2"/>
<path d="M8.5424 13.2773C8.03271 13.0989 7.34464 14.0673 7.80335 14.1692C8.44046 14.3221 9.28144 13.5576 8.5424 13.2773Z" fill="#FAECE2"/>
<path d="M9.23045 13.6341C8.74625 13.5576 8.51689 14.6789 9.10303 14.577C9.35787 14.5515 9.43432 14.2457 9.38335 14.0163C9.33238 13.7105 9.17948 13.6595 8.87367 13.6595L9.23045 13.6341Z" fill="#FAECE2"/>
<path d="M8.36386 14.9338C7.9816 14.8063 7.90515 15.367 7.87966 15.6218C7.85418 16.0296 8.15999 16.1315 8.49128 16.0296C8.77161 15.7493 8.74613 15.1631 8.41483 14.9338C8.36386 14.8828 8.44031 14.9847 8.36386 14.9338Z" fill="#FAECE2"/>
<path d="M7.44642 15.9531C7.19157 15.8002 6.70737 16.0041 6.47802 16.1315C6.12124 16.3354 6.22317 16.5902 6.65641 16.5902C6.91125 16.5902 7.42093 16.4883 7.54835 16.2334C7.62481 16.0296 7.67578 15.8767 7.44642 15.9531Z" fill="#FAECE2"/>
<path d="M7.47193 16.8196C6.7074 16.7431 6.29966 18.1702 7.06418 18.0938C7.44645 18.0428 7.72677 17.6606 7.70129 17.2783C7.70129 16.9215 7.5229 16.5902 7.11515 16.947L7.47193 16.8196Z" fill="#FAECE2"/>
<path d="M6.17227 17.1509C5.89194 17.0235 5.40774 17.1254 5.20387 17.3547C4.94903 17.6351 5.1529 17.8899 5.4842 17.9409C5.76452 17.9664 6.40163 17.8135 6.4526 17.4567C6.50356 17.1254 6.42711 17.0744 6.17227 17.1509Z" fill="#FAECE2"/>
<path d="M4.15901 17.2018C3.36899 17.1254 3.31803 18.3996 4.0061 18.3486C4.71966 18.2977 4.64321 16.9725 4.15901 17.2018Z" fill="#FAECE2"/>
<path d="M5.99384 18.3741C5.61157 18.2977 5.22931 18.2722 4.89802 18.4761C4.56672 18.7054 4.49027 19.0622 4.99995 19.1387C5.30576 19.1896 5.91739 19.1387 6.12126 18.8838C6.3761 18.5525 6.29965 18.4506 5.99384 18.3741Z" fill="#FAECE2"/>
<path d="M2.96136 17.8899C2.63006 17.9664 2.42619 18.2977 2.55361 18.629C2.63006 18.8583 3.13975 19.0622 3.36911 19.0367C3.85331 18.9602 3.67492 17.7115 2.96136 17.8899Z" fill="#FAECE2"/>
<path d="M2.29864 16.6922C1.61057 16.7176 2.47703 18.1957 2.93575 17.5586C3.24156 17.0744 2.70639 16.3864 2.29864 16.6922Z" fill="#FAECE2"/>
<path d="M1.99281 15.8512C1.71249 15.7493 1.17732 15.9531 0.973442 16.1825C0.744084 16.4118 0.667632 16.8451 1.07538 16.8706C1.45764 16.896 1.91636 16.6157 2.06926 16.2844C2.19669 15.9786 2.34959 15.9786 1.99281 15.8512Z" fill="#FAECE2"/>
<path d="M1.66157 14.8573C1.4577 14.6789 1.04995 14.6279 0.79511 14.7299C0.43833 14.8828 0.591236 15.2905 0.846078 15.4434C1.1264 15.5963 1.6106 15.6473 1.78899 15.316C1.9419 15.0102 1.83996 15.0357 1.66157 14.8573Z" fill="#FAECE2"/>
<path d="M2.12019 17.9409C2.04374 17.6606 1.91632 17.3548 1.61051 17.3038C1.27921 17.2528 1.10082 17.5077 1.15179 17.8135C1.17728 18.1193 1.55954 18.4761 1.89083 18.3741C2.24761 18.2722 2.19664 18.1957 2.12019 17.9409Z" fill="#FAECE2"/>
<path d="M7.29354 14.9847C6.98773 14.7299 6.57998 14.526 6.2232 14.8573C5.99384 15.0612 6.04481 15.5963 6.2232 15.8257C6.27417 15.9276 6.37611 15.9786 6.45256 16.0041C6.78385 15.7492 7.06418 15.4179 7.29354 14.9847Z" fill="#B1353B"/>
<path d="M5.63708 16.5138C5.56063 16.4373 5.45869 16.3864 5.40772 16.3354C5.30579 16.2589 5.07643 16.208 5.02546 16.106H4.99998C4.7961 15.8512 4.54126 16.0296 4.3119 16.1825C4.18448 16.2589 3.85319 16.4373 3.77673 16.6412C4.33739 16.7941 4.99998 16.7686 5.63708 16.5138Z" fill="#DA2D36"/>
<path d="M3.49646 14.7808C3.36904 14.3986 2.9358 14.3476 2.65548 14.5515C2.55354 14.6025 2.47709 14.6789 2.40063 14.7808C2.42612 15.0867 2.50257 15.3925 2.65548 15.6983C2.73193 15.8767 2.85935 16.0296 2.98677 16.157C3.06322 16.157 3.16516 16.106 3.24161 16.0551C3.54742 15.7747 3.59839 15.1631 3.49646 14.7808Z" fill="#B1353B"/>
<path d="M3.26709 12.4618L3.95516 14.0928L4.94905 13.2008L4.41388 11.7227C3.98065 11.9011 3.5729 12.156 3.26709 12.4618Z" fill="#13AF5B"/>
<path d="M4.79611 12.8186C4.71966 12.9715 4.59224 13.0734 4.41385 13.1244C4.10804 13.2008 3.72578 13.0224 3.64932 12.6911C3.64932 12.6657 3.59836 12.5382 3.64932 12.6402C3.62384 12.6147 3.62384 12.5637 3.59836 12.5382C3.54739 12.4363 3.5219 12.3598 3.47094 12.2579V12.2324C3.39448 12.3089 3.31803 12.3599 3.24158 12.4363L3.92965 14.0673L4.92354 13.1753L4.79611 12.8186Z" fill="#00903D"/>
<path d="M7.70133 12.946C7.62488 12.6147 7.37004 11.9011 6.47809 11.6208L6.09583 13.7615L7.70133 13.0734C7.70133 13.0224 7.70133 12.997 7.70133 12.946Z" fill="#13AF5B"/>
<path d="M7.62488 12.7166C7.39552 12.8441 7.14068 12.946 6.86035 12.997C6.98777 12.9715 6.9368 12.997 6.88584 12.997C6.73293 13.0224 6.55454 13.0224 6.42712 12.946C6.37615 12.895 6.2997 12.8695 6.27421 12.7931L6.09583 13.787L7.70133 13.0989C7.70133 13.0479 7.70133 13.0224 7.70133 12.9715C7.67585 12.8695 7.67585 12.7931 7.62488 12.7166Z" fill="#00903D"/>
<path d="M5.05087 12.9715L4.36279 13.9908L5.61152 13.9144L6.09572 13.2518L5.05087 12.9715Z" fill="#FBDF6A"/>
<path d="M5.6881 11.4934C5.3568 11.4934 5.00002 11.5443 4.69421 11.6208L5.05099 12.8186L6.1723 13.0479L6.35069 11.5698C6.14681 11.5444 5.94294 11.5189 5.6881 11.4934Z" fill="#FBDF6A"/>
<path d="M5.91733 13.4302C5.73894 13.5831 5.40765 13.6086 5.20377 13.5321C5.05087 13.4812 4.92345 13.4047 4.84699 13.2773L4.36279 13.9908L5.61152 13.8889L6.09572 13.2263H6.07024C6.04475 13.3028 5.99378 13.3792 5.91733 13.4302Z" fill="#FFB152"/>
<path d="M5.4842 12.4363C5.10193 12.2579 5.07645 11.9011 5.07645 11.5443C4.94903 11.5698 4.79612 11.5953 4.6687 11.6463L5.02548 12.844L6.14679 13.0734L6.22324 12.3598C6.04485 12.5382 5.73904 12.5637 5.4842 12.4363Z" fill="#FFB152"/>
<path opacity="0.55" d="M13.6647 10.1937C13.7156 10.7034 13.2059 11.1366 12.5434 11.1876C11.8808 11.2385 11.3201 10.8818 11.2691 10.3976C11.2182 9.88788 11.7279 9.45464 12.3904 9.40368C13.053 9.32722 13.6137 9.684 13.6647 10.1937Z" fill="#8B868A"/>
<path opacity="0.55" d="M10.7594 9.88787C10.7849 10.0917 10.581 10.2701 10.3262 10.2701C10.0713 10.2956 9.84197 10.1427 9.81649 9.96432C9.791 9.76045 9.99488 9.58206 10.2497 9.58206C10.5046 9.55657 10.7339 9.684 10.7594 9.88787Z" fill="#8B868A"/>
<path opacity="0.55" d="M11.524 7.4159C11.524 7.4159 4.71968 9.0469 2.98676 9.60755C2.93579 9.63303 2.88482 9.63304 2.83385 9.65852C2.80837 9.65852 2.80837 9.65852 2.78288 9.684C2.7574 9.684 2.7574 9.684 2.73191 9.70949C2.70643 9.73497 2.68094 9.73497 2.65546 9.73497C2.62998 9.73497 2.62998 9.76046 2.60449 9.76046C4.18451 9.37819 5.8155 8.97044 7.37004 9.45464C8.97555 9.96433 9.96943 11.2895 10.0204 12.9715C10.1223 15.6218 9.12845 17.839 7.34456 19.2916C10.0969 18.2467 14.6076 16.157 14.6076 16.157C14.6076 16.157 17.895 10.0917 11.524 7.4159Z" fill="#544D53"/>
<path d="M19.6789 0C19.6789 0 11.473 0.91743 10.6065 1.24873C9.7146 1.55454 7.1407 4.05199 7.26812 7.46688C7.39554 10.8818 10.5301 11.8247 12.4669 11.6463C14.4037 11.4679 21.6922 9.07238 21.6922 9.07238C21.6922 9.07238 25.6932 3.41489 19.6789 0Z" fill="#4D294B"/>
<path opacity="0.55" d="M22.3803 3.64424C21.1316 3.84812 20.0103 4.5107 18.7615 4.33231C16.9012 4.05199 15.2702 4.74006 13.5628 4.9949L13.3589 6.57493C15.1938 6.49847 17.0031 5.55556 18.8125 5.8104C21.1316 6.16718 21.8961 5.70846 22.5587 5.14781C22.6097 4.68909 22.5332 4.17941 22.3803 3.64424Z" fill="#8B868A"/>
<path opacity="0.5" d="M18.4047 7.00816C17.1559 7.263 14.6585 8.61366 13.3843 8.8685C13.3333 9.07238 13.2823 9.27625 13.2314 9.48012L13.053 10.9837C15.6269 10.474 21.5902 8.53721 21.5902 8.53721C21.5902 8.53721 22.0744 7.54333 22.4312 6.57492C21.1824 7.51784 20.7492 6.52396 18.4047 7.00816Z" fill="#3C153A"/>
<path opacity="0.55" d="M20.6982 1.09582C18.736 1.68195 16.7992 1.07033 14.2762 1.91131C14.1743 1.9368 14.0469 1.9368 13.9449 1.96228L13.8175 3.03262C15.0662 2.72681 17.0285 2.26809 18.1498 2.39551C19.6534 2.5739 20.1886 2.0897 21.5137 1.93679C21.2844 1.65647 21.0295 1.37614 20.6982 1.09582Z" fill="#8B868A"/>
<path d="M15.8053 9.63305C17.0795 8.00206 17.895 6.49848 17.6657 4.51071C17.1815 0.280333 12.5433 0.891955 10.9378 1.1468C10.7849 1.17228 10.6575 1.19777 10.581 1.22325C9.68909 1.52906 7.11518 4.02651 7.2426 7.4414C7.37003 10.8053 10.4281 11.7737 12.3649 11.6208C12.5943 11.5189 14.8624 10.8308 15.8053 9.63305Z" fill="#634361"/>
<path d="M16.5443 3.95005C15.8053 2.03873 13.8685 1.73292 12.2629 1.80937C11.5749 1.91131 11.0652 1.98776 10.9123 2.06422C10.1732 2.31906 8.03256 4.40877 8.1345 7.263C8.23644 10.0917 10.8613 10.9072 12.4923 10.7543C12.7217 10.7289 13.053 10.6779 13.4352 10.5759C15.4485 9.12334 17.4108 6.24363 16.5443 3.95005Z" fill="#DED4CA"/>
<path d="M15.2191 5.02039C15.1682 4.58716 14.9388 3.5423 13.3843 3.33843C11.9317 3.13456 10.4791 3.89908 9.91843 5.24975C9.68907 5.78492 9.61262 6.42202 9.84198 7.13558C10.5555 9.22529 14.7349 8.84303 15.2191 5.30072C15.2191 5.19878 15.2446 5.12233 15.2191 5.02039Z" fill="#654F42"/>
<path d="M13.9705 6.82978C13.6392 5.75944 12.3905 5.53008 11.3966 5.9888C10.9634 6.14171 10.7085 6.44751 10.5046 6.77881C11.4221 7.36495 12.7218 7.54334 13.9705 6.82978Z" fill="#DA2D36"/>
<path d="M12.8746 7.23753C12.9001 6.82978 12.7726 6.39655 12.3139 6.3201C12.0081 6.26913 11.6513 6.65139 11.5494 6.93172C11.5239 7.03365 11.5239 7.13559 11.5494 7.23753C11.9571 7.31398 12.3904 7.31398 12.8746 7.23753Z" fill="#B1353B"/>
<path d="M10.1478 4.842C10.0714 4.96942 9.99491 5.12233 9.94394 5.24975C9.71458 5.78492 9.63813 6.42202 9.86749 7.13558C10.1223 7.87463 10.7849 8.30786 11.5749 8.38431C11.9827 6.90622 11.4475 5.47911 10.1478 4.842Z" fill="#E6545B"/>
<path d="M13.3079 7.64527C12.9766 7.46688 12.1611 6.72784 11.8298 6.82978C11.3201 7.00817 11.2182 7.00817 10.8359 7.33946C10.6575 7.49237 10.4537 7.64527 10.2753 7.77269C11.0398 8.5627 12.5688 8.63916 13.7411 7.84915C13.5627 7.79818 13.4353 7.72172 13.3079 7.64527Z" fill="#E6545B"/>
<path d="M15.0917 5.93783C14.0978 5.40266 13.0529 6.11622 12.6452 7.13559C12.4413 7.56882 12.4668 7.95108 12.5687 8.33334C13.6391 8.12947 14.6839 7.33946 15.0917 5.93783Z" fill="#E6545B"/>
<path d="M13.3589 2.16616C13.257 1.9368 13.0022 1.6055 12.6709 1.58002C12.467 1.40163 11.9573 1.50357 11.8044 1.68195C11.575 1.96228 11.8299 2.19164 12.0847 2.31906C12.416 2.49745 13.6902 2.85423 13.3589 2.16616Z" fill="#FAECE2"/>
<path d="M15.2446 1.83486C15.0407 1.55453 14.531 1.50356 14.2252 1.55453C13.9959 1.58001 13.3843 1.68195 13.7155 2.03873C13.9449 2.26809 14.6585 2.52293 14.9898 2.34454C15.1681 2.2426 15.5504 1.96228 15.2446 1.83486Z" fill="#FAECE2"/>
<path d="M14.5056 2.95616C14.3782 2.77777 14.1489 2.59938 13.9195 2.52293C13.6901 2.44648 13.2314 2.47196 13.4863 2.80326C13.6647 3.03262 14.0724 3.211 14.3527 3.28746C14.786 3.38939 14.6076 3.13455 14.5056 2.95616Z" fill="#FAECE2"/>
<path d="M15.8562 2.70133C14.9898 2.2681 14.5056 4.12845 15.3975 3.89909C15.9072 3.77167 16.5698 3.05811 15.8562 2.70133Z" fill="#FAECE2"/>
<path d="M16.8247 4.3578C16.8502 4.05199 16.6718 3.84812 16.366 3.87361C16.0092 3.89909 15.8818 4.23038 15.9328 4.56168C15.9837 4.89297 16.2896 5.09685 16.5954 4.94394C16.9776 4.74007 16.7992 4.66362 16.8247 4.3578Z" fill="#FAECE2"/>
<path d="M12.365 2.77778C12.3395 2.77778 12.314 2.7523 12.2885 2.7523C12.0592 2.49746 10.8869 2.54842 11.2946 3.03262C11.473 3.2365 11.9572 3.2365 12.2121 3.13456C12.5434 3.03262 12.6963 2.95617 12.365 2.77778Z" fill="#FAECE2"/>
<path d="M10.8358 2.37003C10.581 2.24261 10.1987 2.34455 9.96936 2.52294C9.79097 2.67584 9.48516 3.0581 9.81645 3.21101C10.1477 3.33843 10.6065 3.13456 10.7849 2.87972C10.9378 2.67584 11.1926 2.2681 10.8358 2.37003Z" fill="#FAECE2"/>
<path d="M10.3262 3.64425C10.1733 3.56779 9.76555 3.56779 9.63813 3.69522C9.48523 3.69522 9.2049 3.84812 9.23039 4.02651C9.25587 4.28135 9.71459 4.25587 9.86749 4.2049C10.0459 4.17942 10.3517 4.07748 10.3772 3.8736C10.4536 3.66973 10.5046 3.61876 10.3262 3.64425Z" fill="#FAECE2"/>
<path d="M9.10308 4.53619C8.54243 4.40876 8.03274 5.42813 8.61888 5.55555C9.17953 5.68298 9.68922 4.66361 9.10308 4.53619Z" fill="#FAECE2"/>
<path d="M16.0347 5.45363C15.5505 5.19879 14.7605 6.09073 15.1938 6.26912C15.7799 6.49848 16.7228 5.83589 16.0347 5.45363Z" fill="#FAECE2"/>
<path d="M16.6462 5.88685C16.1875 5.75943 15.8307 6.82977 16.3914 6.82977C16.6462 6.82977 16.7482 6.54945 16.7482 6.32009C16.7227 6.01428 16.5953 5.93782 16.2895 5.91234L16.6462 5.88685Z" fill="#FAECE2"/>
<path d="M15.6269 7.0846C15.2701 6.90621 15.1172 7.44138 15.0662 7.72171C14.9898 8.12946 15.2701 8.25688 15.6269 8.20591C15.9327 7.97655 15.9837 7.36493 15.6779 7.11009C15.6524 7.03363 15.7034 7.13557 15.6269 7.0846Z" fill="#FAECE2"/>
<path d="M14.6075 7.97656C14.3782 7.79817 13.8685 7.95108 13.6137 8.05301C13.2314 8.20592 13.3079 8.46076 13.7156 8.53722C13.9704 8.5627 14.5056 8.53722 14.633 8.28237C14.7605 8.0785 14.8369 7.9256 14.6075 7.97656Z" fill="#FAECE2"/>
<path d="M14.5311 8.84302C13.7666 8.66463 13.2059 10.0408 13.9704 10.0663C14.3527 10.0663 14.684 9.70948 14.7095 9.3527C14.735 8.99593 14.6075 8.63914 14.1743 8.94496L14.5311 8.84302Z" fill="#FAECE2"/>
<path d="M13.2059 8.99594C12.951 8.84304 12.4413 8.894 12.212 9.09788C11.9317 9.35272 12.1101 9.63304 12.4159 9.7095C12.6962 9.76047 13.3333 9.68401 13.4352 9.35272C13.5117 9.04691 13.4607 8.97046 13.2059 8.99594Z" fill="#FAECE2"/>
<path d="M11.1926 8.81754C10.4281 8.63915 10.1987 9.91336 10.9123 9.93885C11.6004 9.96433 11.7023 8.63915 11.1926 8.81754Z" fill="#FAECE2"/>
<path d="M12.8747 10.2192C12.5179 10.0917 12.1356 10.0153 11.7533 10.1937C11.3966 10.3721 11.2946 10.7289 11.7788 10.8563C12.0846 10.9327 12.6963 10.9582 12.9256 10.7289C13.2314 10.423 13.155 10.3211 12.8747 10.2192Z" fill="#FAECE2"/>
<path d="M9.94391 9.35271C9.61261 9.40368 9.38325 9.70949 9.45971 10.0408C9.51067 10.2701 9.99488 10.5505 10.2242 10.525C10.6575 10.525 10.6575 9.27626 9.94391 9.35271Z" fill="#FAECE2"/>
<path d="M9.40882 8.07849C8.72075 8.02752 9.40882 9.58206 9.91851 9.02141C10.3008 8.58817 9.84206 7.84913 9.40882 8.07849Z" fill="#FAECE2"/>
<path d="M9.20498 7.23753C8.92465 7.1101 8.364 7.23753 8.13464 7.4414C7.8798 7.64527 7.75237 8.05302 8.16012 8.12947C8.54239 8.20593 9.02659 7.97657 9.23046 7.67076C9.38337 7.36495 9.56175 7.39043 9.20498 7.23753Z" fill="#FAECE2"/>
<path d="M9.00108 6.19267C8.82269 5.9888 8.41494 5.88686 8.1601 5.96331C7.77784 6.09073 7.87977 6.49848 8.13462 6.67687C8.38946 6.85526 8.87366 6.95719 9.07753 6.65138C9.25592 6.39654 9.15399 6.39654 9.00108 6.19267Z" fill="#FAECE2"/>
<path d="M9.10295 9.30174C9.07747 9.02142 8.97553 8.69013 8.66972 8.61368C8.33842 8.53722 8.16003 8.74109 8.16003 9.07239C8.16003 9.3782 8.49133 9.76046 8.82262 9.70949C9.15392 9.63304 9.12843 9.58207 9.10295 9.30174Z" fill="#FAECE2"/>
<path d="M14.5566 7.00816C14.3018 6.70235 13.894 6.473 13.5118 6.75332C13.2569 6.93171 13.2569 7.46688 13.3844 7.72172C13.4353 7.82366 13.5118 7.90011 13.5882 7.92559C13.9705 7.69624 14.3018 7.39043 14.5566 7.00816Z" fill="#B1353B"/>
<path d="M12.7472 8.30786C12.6707 8.23141 12.5943 8.15496 12.5433 8.10399C12.4414 8.02754 12.2375 7.9256 12.1865 7.84915H12.1611C11.9827 7.56882 11.7023 7.72172 11.473 7.82366C11.3456 7.90011 10.9888 8.02753 10.8868 8.20592C11.422 8.46077 12.0846 8.48625 12.7472 8.30786Z" fill="#DA2D36"/>
<path d="M10.8103 6.34557C10.7339 5.96331 10.3261 5.86137 9.99483 6.01428C9.89289 6.06525 9.79095 6.1417 9.7145 6.21815C9.68902 6.52396 9.73999 6.82977 9.84192 7.16107C9.91838 7.33946 9.99483 7.51785 10.1223 7.67075C10.1987 7.67075 10.3006 7.64527 10.3771 7.5943C10.7594 7.33946 10.8868 6.72784 10.8103 6.34557Z" fill="#B1353B"/>
<path d="M10.8613 4.02651L11.3455 5.73395L12.4414 4.96942L12.0846 3.44037C11.6513 3.54231 11.2436 3.74618 10.8613 4.02651Z" fill="#13AF5B"/>
<path d="M12.365 4.56167C12.2885 4.68909 12.1356 4.79103 11.9572 4.81652C11.6514 4.86748 11.2691 4.63813 11.2691 4.30683C11.2691 4.28135 11.2182 4.12844 11.2691 4.25586C11.2691 4.23038 11.2436 4.17941 11.2436 4.15393C11.2182 4.05199 11.1672 3.95005 11.1672 3.84811V3.82263C11.0653 3.8736 10.9888 3.95005 10.9124 4.00102L11.3966 5.70846L12.4924 4.94394L12.365 4.56167Z" fill="#00903D"/>
<path d="M15.2192 5.02039C15.1937 4.6891 15.0153 3.95005 14.1743 3.56779L13.5372 5.6575L15.2192 5.14781C15.2192 5.09684 15.2192 5.07136 15.2192 5.02039Z" fill="#13AF5B"/>
<path d="M15.1937 4.79104C14.9388 4.89298 14.684 4.96943 14.4037 4.96943C14.5566 4.96943 14.4801 4.96943 14.4292 4.96943C14.2508 4.96943 14.0979 4.96943 13.9704 4.84201C13.9195 4.79104 13.8685 4.74007 13.8175 4.6891L13.5117 5.6575L15.1937 5.14782C15.1937 5.09685 15.1937 5.07137 15.1937 5.0204C15.2192 4.96943 15.1937 4.86749 15.1937 4.79104Z" fill="#00903D"/>
<path d="M12.5943 4.74006L11.7788 5.65749L13.0275 5.73395L13.6137 5.14781L12.5943 4.74006Z" fill="#FBDF6A"/>
<path d="M13.3843 3.33843C13.053 3.28746 12.6962 3.31295 12.3904 3.36391L12.5943 4.61264L13.6901 4.96942L14.0469 3.51682C13.8685 3.44037 13.6391 3.3894 13.3843 3.33843Z" fill="#FBDF6A"/>
<path d="M13.4098 5.27524C13.2059 5.40266 12.9001 5.40266 12.6708 5.30072C12.5179 5.22427 12.4159 5.12233 12.3395 5.02039L11.7788 5.68298L13.0275 5.73395L13.5882 5.14781C13.5372 5.19878 13.4608 5.24975 13.4098 5.27524Z" fill="#FFB152"/>
<path d="M13.0785 4.25586C12.7217 4.05198 12.7472 3.66972 12.7981 3.33842C12.6707 3.33842 12.5178 3.36391 12.3904 3.3894L12.5943 4.63812L13.6901 4.9949L13.8685 4.28134C13.6391 4.40877 13.3333 4.40876 13.0785 4.25586Z" fill="#FFB152"/>
<path opacity="0.55" d="M21.4629 3.00714C21.4374 3.51683 20.9022 3.89909 20.2397 3.8736C19.5771 3.84812 19.0674 3.44037 19.0674 2.93069C19.0929 2.421 19.628 2.03874 20.2906 2.06422C20.9787 2.08971 21.4884 2.52294 21.4629 3.00714Z" fill="#8B868A"/>
<path opacity="0.55" d="M18.6341 2.34454C18.6341 2.54841 18.4047 2.70132 18.1499 2.67583C17.895 2.67583 17.6912 2.49744 17.6912 2.31905C17.6912 2.11518 17.9205 1.96228 18.1754 1.98776C18.4302 1.98776 18.6341 2.16615 18.6341 2.34454Z" fill="#8B868A"/>
<path d="M22.2018 8.79206C22.2018 8.79206 14.1743 10.7034 13.3333 11.1111C12.4924 11.5189 10.2497 14.3221 10.7849 17.6861C11.3201 21.05 14.5566 21.6106 16.4679 21.2029C18.3537 20.7951 25.3109 17.5332 25.3109 17.5332C25.3109 17.5332 28.5729 11.4679 22.2018 8.79206Z" fill="#4D294B"/>
<path opacity="0.55" d="M25.3364 12.0795C24.1131 12.4363 23.0937 13.2263 21.8195 13.2008C19.9337 13.1499 18.4046 14.0418 16.7482 14.5005V16.0806C18.5575 15.8002 20.2395 14.628 22.0744 14.6789C24.4189 14.7554 25.1325 14.1947 25.7186 13.5576C25.6676 13.0734 25.5402 12.5892 25.3364 12.0795Z" fill="#8B868A"/>
<path opacity="0.5" d="M21.7685 15.9022C20.5708 16.3099 18.2517 17.9409 17.003 18.3487C16.9775 18.5525 16.952 18.7819 16.9265 18.9858V20.5148C19.424 19.6993 25.0815 17.049 25.0815 17.049C25.0815 17.049 25.4382 16.0041 25.6931 15.0102C24.5973 16.0551 24.0366 15.1376 21.7685 15.9022Z" fill="#3C153A"/>
<path opacity="0.55" d="M23.3486 9.76046C21.4628 10.6014 19.475 10.2192 17.0795 11.366C16.9776 11.4169 16.8756 11.4169 16.7737 11.4679V12.5637C17.9714 12.105 19.8828 11.4169 21.0041 11.4169C22.5331 11.4169 22.9663 10.8563 24.2915 10.5505C23.9857 10.2447 23.7054 9.98982 23.3486 9.76046Z" fill="#8B868A"/>
<path d="M19.526 18.8329C20.5963 17.049 21.2334 15.4689 20.7492 13.5321C19.7554 9.40369 15.2192 10.5505 13.6646 11.0092C13.5117 11.0602 13.4098 11.1111 13.3333 11.1366C12.4924 11.5444 10.2497 14.3476 10.7849 17.7115C11.3201 21.0245 14.4801 21.6361 16.3914 21.2284C16.5698 21.101 18.736 20.1326 19.526 18.8329Z" fill="#634361"/>
<path d="M19.5516 13.0989C18.6087 11.2895 16.6464 11.2131 15.0409 11.4934C14.3783 11.6718 13.8941 11.8247 13.7157 11.9011C13.0021 12.2579 11.1418 14.577 11.575 17.3802C12.0337 20.1835 14.7351 20.6677 16.3151 20.3109C16.5444 20.26 16.8502 20.158 17.2325 20.0306C19.0929 18.3486 20.6984 15.2651 19.5516 13.0989Z" fill="#DED4CA"/>
<path d="M18.3792 14.3221C18.2773 13.9144 17.9205 12.895 16.366 12.8695C14.9134 12.844 13.5372 13.7615 13.155 15.1631C13.0021 15.7238 12.9766 16.3864 13.3079 17.0489C14.2763 19.0367 18.3792 18.1703 18.4047 14.577C18.4047 14.5005 18.4047 14.3986 18.3792 14.3221Z" fill="#654F42"/>
<path d="M17.3599 16.2589C16.9012 15.2396 15.627 15.1631 14.6841 15.7238C14.2508 15.9276 14.0469 16.2589 13.894 16.6157C14.8879 17.0999 16.1876 17.1254 17.3599 16.2589Z" fill="#DA2D36"/>
<path d="M16.315 16.7941C16.2895 16.3864 16.1111 15.9531 15.6524 15.9531C15.3466 15.9531 15.0153 16.3609 14.9643 16.6412C14.9388 16.7431 14.9643 16.8451 14.9898 16.947C15.423 16.9725 15.8562 16.947 16.315 16.7941Z" fill="#B1353B"/>
<path d="M13.3079 14.7554C13.2314 14.9083 13.1804 15.0357 13.155 15.1886C13.0021 15.7493 12.9766 16.4118 13.3079 17.0744C13.6392 17.7625 14.3782 18.1193 15.1682 18.1193C15.3976 16.5902 14.7095 15.2141 13.3079 14.7554Z" fill="#E6545B"/>
<path d="M16.7991 17.1509C16.4678 17.0235 15.5504 16.3609 15.2191 16.5138C14.7349 16.7431 14.6329 16.7686 14.2762 17.1509C14.1233 17.3293 13.9449 17.5077 13.7665 17.6606C14.6329 18.3486 16.162 18.2467 17.2068 17.3293C17.0794 17.2528 16.9265 17.2019 16.7991 17.1509Z" fill="#E6545B"/>
<path d="M18.3538 15.2396C17.3089 14.8318 16.3405 15.6728 16.0857 16.7431C15.9328 17.2019 16.0092 17.5586 16.1621 17.9409C17.1815 17.5841 18.1244 16.6922 18.3538 15.2396Z" fill="#E6545B"/>
<path d="M16.1875 11.7227C16.0346 11.4934 15.7543 11.2131 15.423 11.2385C15.1936 11.0856 14.7094 11.2385 14.582 11.4679C14.3781 11.7737 14.6585 11.9776 14.9388 12.054C15.2956 12.156 16.5953 12.3598 16.1875 11.7227Z" fill="#FAECE2"/>
<path d="M17.997 11.1621C17.7676 10.9073 17.2579 10.9327 16.9521 11.0092C16.7228 11.0602 16.1366 11.2386 16.4934 11.5444C16.7483 11.7482 17.4873 11.9011 17.7931 11.6973C17.9715 11.5698 18.3538 11.2131 17.997 11.1621Z" fill="#FAECE2"/>
<path d="M17.4108 12.3599C17.2579 12.207 17.0286 12.0541 16.7737 12.0031C16.5444 11.9521 16.0857 12.0541 16.366 12.3344C16.5699 12.5383 17.0031 12.6657 17.2834 12.6912C17.7676 12.7421 17.5637 12.5128 17.4108 12.3599Z" fill="#FAECE2"/>
<path d="M18.736 11.9521C17.8186 11.6208 17.5892 13.5321 18.4302 13.2008C18.9144 12.9715 19.5005 12.207 18.736 11.9521Z" fill="#FAECE2"/>
<path d="M19.8827 13.4557C19.8827 13.1499 19.6534 12.9715 19.3731 13.0224C19.0418 13.0989 18.9398 13.4557 19.0163 13.7615C19.0927 14.0928 19.4495 14.2457 19.7298 14.0418C20.0866 13.8125 19.8827 13.7615 19.8827 13.4557Z" fill="#FAECE2"/>
<path d="M15.2702 12.4363C15.2447 12.4363 15.2192 12.4108 15.1937 12.4363C14.9389 12.2069 13.7921 12.3853 14.2253 12.8186C14.4292 13.0224 14.9134 12.9205 15.1428 12.8186C15.4741 12.6657 15.627 12.5637 15.2702 12.4363Z" fill="#FAECE2"/>
<path d="M13.7156 12.207C13.4608 12.105 13.0785 12.2579 12.8747 12.4618C12.6963 12.6402 12.4414 13.0479 12.8237 13.1499C13.155 13.2263 13.6137 12.9715 13.7666 12.6912C13.8431 12.4873 14.0469 12.0541 13.7156 12.207Z" fill="#FAECE2"/>
<path d="M13.3588 13.5576C13.1804 13.5067 12.7981 13.5576 12.6962 13.7105C12.5433 13.7105 12.2884 13.9144 12.3394 14.0928C12.3904 14.3222 12.8491 14.2457 13.002 14.1947C13.1804 14.1438 13.4607 14.0163 13.4862 13.787C13.4862 13.5576 13.5117 13.4812 13.3588 13.5576Z" fill="#FAECE2"/>
<path d="M12.2375 14.577C11.6513 14.526 11.2691 15.5963 11.8807 15.6473C12.4668 15.6983 12.8491 14.6534 12.2375 14.577Z" fill="#FAECE2"/>
<path d="M19.2201 14.6534C18.7104 14.4751 18.0224 15.4435 18.4811 15.5454C19.1182 15.6983 19.9592 14.9338 19.2201 14.6534Z" fill="#FAECE2"/>
<path d="M19.9083 15.0102C19.4241 14.9338 19.1947 16.0551 19.7809 15.9531C20.0357 15.9276 20.1122 15.6218 20.0612 15.3925C20.0102 15.0867 19.8573 15.0357 19.5515 15.0357L19.9083 15.0102Z" fill="#FAECE2"/>
<path d="M19.0418 16.3099C18.6596 16.1825 18.5831 16.7431 18.5576 16.998C18.5322 17.4057 18.838 17.5077 19.1693 17.4057C19.4496 17.1254 19.4241 16.5393 19.0928 16.3099C19.0418 16.2589 19.1183 16.3354 19.0418 16.3099Z" fill="#FAECE2"/>
<path d="M18.1243 17.3293C17.8694 17.1764 17.3852 17.3802 17.1559 17.5077C16.7991 17.7115 16.901 17.9664 17.3343 17.9664C17.5891 17.9664 18.0988 17.8644 18.2262 17.6096C18.3027 17.4057 18.3536 17.2528 18.1243 17.3293Z" fill="#FAECE2"/>
<path d="M18.1499 18.1957C17.3854 18.1193 16.9776 19.5464 17.7422 19.47C18.1244 19.419 18.4048 19.0367 18.3793 18.6545C18.3793 18.2977 18.2009 17.9664 17.7931 18.3232L18.1499 18.1957Z" fill="#FAECE2"/>
<path d="M16.8756 18.5016C16.5953 18.3741 16.1111 18.4761 15.9072 18.7054C15.6524 18.9858 15.8563 19.2406 16.1876 19.2916C16.4679 19.3171 17.105 19.1641 17.156 18.8074C17.1815 18.5016 17.105 18.4506 16.8756 18.5016Z" fill="#FAECE2"/>
<path d="M14.8369 18.578C14.0469 18.5016 13.9959 19.7758 14.684 19.7248C15.3975 19.6738 15.3211 18.3487 14.8369 18.578Z" fill="#FAECE2"/>
<path d="M16.6717 19.7503C16.2894 19.6738 15.9072 19.6484 15.5759 19.8522C15.2446 20.0816 15.1681 20.4384 15.6778 20.5148C15.9836 20.5658 16.5952 20.5148 16.7991 20.26C17.054 19.9287 16.9775 19.8267 16.6717 19.7503Z" fill="#FAECE2"/>
<path d="M13.6646 19.2661C13.3333 19.3425 13.1294 19.6738 13.2569 20.0051C13.3333 20.2345 13.843 20.4384 14.0724 20.4129C14.5311 20.3109 14.3527 19.0877 13.6646 19.2661Z" fill="#FAECE2"/>
<path d="M12.9766 18.0428C12.2885 18.0683 13.155 19.5464 13.6137 18.9093C13.9195 18.4506 13.3844 17.7625 12.9766 18.0428Z" fill="#FAECE2"/>
<path d="M12.6708 17.2273C12.3905 17.1254 11.8553 17.3293 11.6514 17.5586C11.4221 17.788 11.3456 18.2212 11.7534 18.2467C12.1356 18.2722 12.5943 17.9919 12.7472 17.6606C12.8747 17.3293 13.0276 17.3548 12.6708 17.2273Z" fill="#FAECE2"/>
<path d="M12.3396 16.2335C12.1357 16.0551 11.7279 16.0041 11.4731 16.106C11.1163 16.259 11.2692 16.6667 11.5241 16.8196C11.8044 16.9725 12.2886 17.0235 12.467 16.6922C12.6199 16.3864 12.5179 16.4119 12.3396 16.2335Z" fill="#FAECE2"/>
<path d="M12.8237 19.3171C12.7472 19.0367 12.6198 18.7309 12.314 18.68C11.9827 18.629 11.8043 18.8838 11.8553 19.1896C11.8808 19.4954 12.263 19.8522 12.5943 19.7503C12.9256 19.6483 12.8747 19.5719 12.8237 19.3171Z" fill="#FAECE2"/>
<path d="M17.9715 16.3609C17.6657 16.106 17.258 15.9022 16.9012 16.2335C16.6718 16.4373 16.7228 16.9725 16.9012 17.2019C16.9521 17.3038 17.0541 17.3548 17.1305 17.3802C17.4618 17.1254 17.7422 16.7941 17.9715 16.3609Z" fill="#B1353B"/>
<path d="M16.3149 17.8644C16.2385 17.788 16.1365 17.737 16.0856 17.6861C15.9836 17.6096 15.7543 17.5586 15.7033 17.4567H15.6778C15.474 17.2019 15.2191 17.3802 14.9898 17.5331C14.8623 17.6096 14.531 17.788 14.4546 17.9919C15.0152 18.1703 15.6778 18.1448 16.3149 17.8644Z" fill="#DA2D36"/>
<path d="M14.1743 16.157C14.0469 15.7748 13.6137 15.7238 13.3333 15.9276C13.2314 15.9786 13.1549 16.0551 13.0785 16.157C13.104 16.4628 13.1804 16.7686 13.3333 17.0744C13.4098 17.2528 13.5372 17.4057 13.6646 17.5332C13.7411 17.5332 13.843 17.4822 13.9195 17.4312C14.2253 17.1509 14.2762 16.5393 14.1743 16.157Z" fill="#B1353B"/>
<path d="M13.9449 13.8379L14.633 15.4689L15.6269 14.577L15.0917 13.0989C14.6585 13.2773 14.2762 13.5321 13.9449 13.8379Z" fill="#13AF5B"/>
<path d="M15.4995 14.1947C15.423 14.3476 15.2956 14.4496 15.1172 14.5005C14.8114 14.577 14.4291 14.3986 14.3527 14.0673C14.3527 14.0418 14.3017 13.9144 14.3527 14.0163C14.3272 13.9908 14.3272 13.9399 14.3017 13.9144C14.2508 13.8125 14.2253 13.736 14.1743 13.6341V13.6086C14.0979 13.685 14.0214 13.736 13.9449 13.8125L14.633 15.4434L15.6269 14.5515L15.4995 14.1947Z" fill="#00903D"/>
<path d="M18.3792 14.3221C18.3027 13.9909 18.0479 13.2773 17.1559 12.997L16.7737 15.1376L18.3792 14.4496C18.4047 14.3986 18.4047 14.3476 18.3792 14.3221Z" fill="#13AF5B"/>
<path d="M18.3027 14.0928C18.0734 14.2202 17.8185 14.3221 17.5382 14.3731C17.6656 14.3476 17.6147 14.3731 17.5637 14.3731C17.4108 14.3986 17.2324 14.3986 17.105 14.3221C17.054 14.2712 16.9776 14.2457 16.9521 14.1692L16.7737 15.1631L18.3792 14.475C18.3792 14.4241 18.3792 14.3986 18.3792 14.3476C18.3792 14.2457 18.3537 14.1692 18.3027 14.0928Z" fill="#00903D"/>
<path d="M15.7288 14.3476L15.0408 15.367L16.2895 15.2905L16.7992 14.6279L15.7288 14.3476Z" fill="#FBDF6A"/>
<path d="M16.366 12.8695C16.0347 12.8695 15.6779 12.9205 15.3721 12.997L15.7288 14.1947L16.8502 14.4241L17.0285 12.946C16.8247 12.9205 16.6208 12.8695 16.366 12.8695Z" fill="#FBDF6A"/>
<path d="M16.5953 14.7809C16.4169 14.9338 16.0856 14.9593 15.8818 14.8828C15.7288 14.8318 15.6014 14.7554 15.525 14.628L15.0408 15.3415L16.2895 15.2396L16.7737 14.577H16.7482C16.7227 14.6789 16.6718 14.7554 16.5953 14.7809Z" fill="#FFB152"/>
<path d="M16.1621 13.8125C15.7798 13.6341 15.7543 13.2773 15.7543 12.9205C15.6269 12.946 15.474 12.9715 15.3466 13.0224L15.7033 14.2202L16.8246 14.4496L16.9011 13.736C16.7227 13.9144 16.4169 13.9399 16.1621 13.8125Z" fill="#FFB152"/>
<path opacity="0.55" d="M24.7758 11.9266C24.8777 12.4108 24.4445 12.9205 23.8074 13.0734C23.1703 13.2263 22.5587 12.946 22.4312 12.4618C22.3293 11.9776 22.7625 11.4679 23.3996 11.315C24.0368 11.1621 24.6484 11.4424 24.7758 11.9266Z" fill="#8B868A"/>
<path opacity="0.55" d="M21.8451 11.9776C21.8961 12.156 21.7177 12.3599 21.4628 12.4363C21.208 12.4873 20.9786 12.3853 20.9277 12.1815C20.8767 12.0031 21.0551 11.7992 21.3099 11.7228C21.5648 11.6973 21.7941 11.7992 21.8451 11.9776Z" fill="#8B868A"/>
</svg>
